{"glyphs":{"0":{"ha":781,"x_min":66,"x_max":715,"o":"m 392 -11 q 215 39 288 -11 q 104 190 142 90 q 66 439 66 290 l 66 555 q 104 807 66 706 q 215 959 142 908 q 392 1010 288 1010 q 567 959 494 1010 q 677 807 640 908 q 715 555 715 706 l 715 439 q 677 190 715 290 q 567 39 640 90 q 392 -11 494 -11 m 392 118 q 491 152 450 118 q 553 253 532 186 q 574 420 574 320 l 574 577 q 553 746 574 678 q 491 847 532 813 q 392 882 450 882 q 292 848 334 882 q 229 746 251 814 q 208 577 208 679 l 208 420 q 229 254 208 321 q 292 152 250 186 q 392 118 333 118 m 182 243 l 124 344 l 600 756 l 656 657 l 182 243 z "},"1":{"ha":781,"x_min":127,"x_max":675,"o":"m 352 0 l 352 865 l 380 836 l 146 728 l 146 871 l 446 1000 l 492 1000 l 492 0 l 352 0 m 127 0 l 127 127 l 675 127 l 675 0 l 127 0 z "},"2":{"ha":781,"x_min":75,"x_max":709,"o":"m 77 0 l 77 39 l 353 385 q 451 509 406 451 q 524 621 496 567 q 552 726 552 674 q 531 806 552 771 q 474 861 510 842 q 392 881 438 881 q 303 858 342 881 q 241 796 264 836 q 218 704 218 756 l 75 704 q 118 862 77 793 q 230 971 159 932 q 391 1010 301 1010 q 545 974 477 1010 q 652 874 612 938 q 691 729 691 811 q 664 600 691 661 q 589 474 637 538 q 478 334 541 410 l 315 132 l 315 127 l 456 130 l 709 130 l 709 0 l 77 0 z "},"3":{"ha":781,"x_min":65,"x_max":716,"o":"m 391 -11 q 228 26 302 -11 q 109 128 153 62 q 65 281 65 194 l 207 284 q 232 196 207 234 q 299 137 258 158 q 391 117 341 117 q 485 139 443 117 q 550 200 526 161 q 574 289 574 239 q 549 376 574 338 q 476 437 524 414 q 357 460 427 460 l 314 460 l 315 579 l 364 579 q 456 602 417 579 q 516 661 494 624 q 537 743 537 698 q 519 818 537 787 q 467 866 500 849 q 391 883 434 883 q 312 866 346 883 q 258 817 277 848 q 238 743 238 785 l 101 743 q 137 879 100 819 q 239 975 174 940 q 389 1010 304 1010 q 538 978 473 1010 q 642 887 604 945 q 680 753 680 829 q 643 623 680 680 q 547 534 607 566 q 413 505 486 503 l 413 539 q 568 509 500 542 q 676 417 637 477 q 716 279 716 357 q 673 132 716 197 q 556 28 630 66 q 391 -11 482 -11 z "},"4":{"ha":781,"x_min":36,"x_max":748,"o":"m 490 0 l 490 608 l 496 779 l 491 779 l 410 650 l 206 342 l 206 337 l 748 337 l 748 215 l 36 215 l 36 296 l 506 1000 l 631 1000 l 631 0 l 490 0 z "},"5":{"ha":781,"x_min":73,"x_max":710,"o":"m 387 -11 q 258 13 320 -11 q 147 82 195 37 q 73 191 98 127 l 201 247 q 246 179 217 208 q 312 134 275 151 q 391 118 349 118 q 485 144 444 118 q 549 215 526 170 q 572 316 572 259 q 549 416 572 372 q 483 485 525 459 q 387 510 441 510 q 325 501 355 510 q 270 477 294 492 q 233 440 245 461 l 123 458 l 123 1000 l 637 1000 l 637 870 l 260 870 l 260 519 l 227 571 q 293 613 245 593 q 405 634 340 634 q 561 593 492 634 q 670 479 630 551 q 710 315 710 407 q 666 144 710 218 q 549 30 623 71 q 387 -11 476 -11 z "},"6":{"ha":781,"x_min":54,"x_max":728,"o":"m 392 -11 q 219 33 295 -11 q 98 149 142 76 q 54 309 54 221 q 67 401 54 355 q 101 492 79 448 q 149 575 122 536 l 441 1000 l 602 1000 l 311 584 l 284 591 q 342 623 307 612 q 415 634 377 634 q 570 593 498 634 q 684 480 641 552 q 728 314 728 408 q 683 147 728 220 q 563 31 639 73 q 392 -11 487 -11 m 392 117 q 492 143 448 117 q 563 214 536 170 q 589 315 589 259 q 563 416 589 372 q 493 485 537 460 q 392 509 448 509 q 292 485 336 509 q 220 417 247 461 q 193 315 193 374 q 219 214 193 258 q 290 143 245 169 q 392 117 335 117 z "},"7":{"ha":781,"x_min":47,"x_max":734,"o":"m 168 0 l 546 865 l 546 870 l 47 870 l 47 1000 l 734 1000 l 734 968 l 319 0 l 168 0 z "},"8":{"ha":781,"x_min":54,"x_max":728,"o":"m 391 -11 q 220 28 297 -11 q 99 133 144 66 q 54 281 54 199 q 99 429 54 363 q 220 533 144 495 q 391 571 297 571 q 562 533 486 571 q 683 429 638 495 q 728 281 728 363 q 683 133 728 199 q 562 28 638 66 q 391 -11 486 -11 m 391 115 q 490 137 445 115 q 562 198 535 159 q 589 286 589 237 q 562 375 589 335 q 491 438 536 414 q 391 462 446 462 q 291 438 336 462 q 220 374 246 414 q 193 285 193 334 q 220 196 193 235 q 292 137 247 158 q 391 115 337 115 m 389 481 q 247 517 311 481 q 143 614 182 553 q 104 749 104 675 q 142 882 104 823 q 245 976 180 941 q 391 1010 310 1010 q 536 977 471 1011 q 638 883 600 943 q 676 748 676 823 q 637 610 676 670 q 532 515 597 549 q 389 481 467 481 m 391 585 q 470 606 434 585 q 527 663 506 627 q 548 741 548 698 q 526 816 548 783 q 469 867 505 848 q 391 886 433 886 q 313 867 349 886 q 255 816 277 848 q 233 741 233 783 q 255 665 233 700 q 312 607 276 629 q 391 585 347 585 z "},"9":{"ha":781,"x_min":54,"x_max":727,"o":"m 389 1010 q 563 967 486 1010 q 683 851 640 924 q 727 691 727 779 q 714 598 727 645 q 681 507 702 551 q 633 425 659 463 l 340 0 l 180 0 l 470 416 l 497 409 q 439 376 474 387 q 366 366 405 366 q 212 407 283 366 q 97 520 140 448 q 54 686 54 592 q 98 853 54 779 q 218 968 142 926 q 389 1010 294 1010 m 389 882 q 289 856 334 882 q 219 785 245 830 q 193 684 193 741 q 218 584 193 627 q 289 515 244 540 q 389 490 333 490 q 490 515 445 490 q 561 583 534 539 q 588 684 588 626 q 562 786 588 741 q 491 857 536 831 q 389 882 446 882 z "},"A":{"ha":781,"x_min":6,"x_max":775,"o":"m 6 0 l 319 1000 l 463 1000 l 775 0 l 625 0 l 541 289 l 528 342 l 393 812 l 388 812 l 253 342 l 240 289 l 156 0 l 6 0 m 176 248 l 176 375 l 606 375 l 606 248 l 176 248 z "},"Á":{"ha":781,"x_min":6,"x_max":775,"o":"m 6 0 l 319 1000 l 463 1000 l 775 0 l 625 0 l 541 289 l 528 342 l 393 812 l 388 812 l 253 342 l 240 289 l 156 0 l 6 0 m 176 248 l 176 375 l 606 375 l 606 248 l 176 248 m 391 1052 l 329 1117 l 537 1315 l 607 1226 l 391 1052 z "},"Ă":{"ha":781,"x_min":6,"x_max":775,"o":"m 6 0 l 319 1000 l 463 1000 l 775 0 l 625 0 l 541 289 l 528 342 l 393 812 l 388 812 l 253 342 l 240 289 l 156 0 l 6 0 m 176 248 l 176 375 l 606 375 l 606 248 l 176 248 m 391 1059 q 279 1082 330 1059 q 197 1149 228 1106 q 166 1253 166 1193 l 254 1253 q 295 1171 255 1199 q 391 1143 336 1143 q 487 1171 447 1143 q 528 1253 528 1199 l 616 1253 q 588 1149 618 1193 q 505 1082 557 1106 q 391 1059 453 1059 z "},"Ắ":{"ha":781,"x_min":6,"x_max":775,"o":"m 6 0 l 319 1000 l 463 1000 l 775 0 l 625 0 l 541 289 l 528 342 l 393 812 l 388 812 l 253 342 l 240 289 l 156 0 l 6 0 m 176 248 l 176 375 l 606 375 l 606 248 l 176 248 m 372 1204 l 317 1274 l 526 1466 l 590 1379 l 372 1204 m 391 1059 q 274 1083 325 1059 q 194 1152 223 1108 q 165 1253 165 1196 l 252 1253 q 291 1170 252 1202 q 391 1138 330 1138 q 490 1170 451 1138 q 529 1253 529 1202 l 616 1253 q 587 1152 616 1196 q 508 1083 558 1108 q 391 1059 457 1059 z "},"Ặ":{"ha":781,"x_min":6,"x_max":775,"o":"m 6 0 l 319 1000 l 463 1000 l 775 0 l 625 0 l 541 289 l 528 342 l 393 812 l 388 812 l 253 342 l 240 289 l 156 0 l 6 0 m 176 248 l 176 375 l 606 375 l 606 248 l 176 248 m 389 -283 q 320 -255 348 -283 q 292 -185 292 -227 q 320 -116 292 -144 q 389 -87 348 -87 q 459 -116 431 -87 q 487 -185 487 -144 q 459 -255 487 -227 q 389 -283 431 -283 m 391 1059 q 279 1082 330 1059 q 197 1149 228 1106 q 166 1253 166 1193 l 254 1253 q 295 1171 255 1199 q 391 1143 336 1143 q 487 1171 447 1143 q 528 1253 528 1199 l 616 1253 q 588 1149 618 1193 q 505 1082 557 1106 q 391 1059 453 1059 z "},"Ằ":{"ha":781,"x_min":6,"x_max":775,"o":"m 6 0 l 319 1000 l 463 1000 l 775 0 l 625 0 l 541 289 l 528 342 l 393 812 l 388 812 l 253 342 l 240 289 l 156 0 l 6 0 m 176 248 l 176 375 l 606 375 l 606 248 l 176 248 m 410 1204 l 191 1379 l 255 1466 l 464 1274 l 410 1204 m 391 1059 q 274 1084 325 1059 q 194 1153 223 1109 q 165 1253 165 1197 l 252 1253 q 291 1170 252 1202 q 391 1138 330 1138 q 490 1170 452 1138 q 529 1253 529 1202 l 616 1253 q 587 1153 616 1197 q 508 1084 558 1109 q 391 1059 457 1059 z "},"Ẳ":{"ha":781,"x_min":6,"x_max":775,"o":"m 6 0 l 319 1000 l 463 1000 l 775 0 l 625 0 l 541 289 l 528 342 l 393 812 l 388 812 l 253 342 l 240 289 l 156 0 l 6 0 m 176 248 l 176 375 l 606 375 l 606 248 l 176 248 m 391 1059 q 274 1084 325 1059 q 194 1153 223 1109 q 165 1253 165 1197 l 252 1253 q 291 1170 252 1202 q 391 1138 330 1138 q 490 1170 452 1138 q 529 1253 529 1202 l 616 1253 q 587 1153 616 1197 q 508 1084 558 1109 q 391 1059 457 1059 m 408 1199 l 353 1255 q 394 1288 377 1268 q 410 1330 410 1308 q 393 1365 410 1352 q 344 1378 376 1378 q 309 1374 330 1378 q 272 1364 288 1371 l 272 1452 q 313 1462 287 1459 q 357 1466 339 1466 q 460 1435 422 1466 q 498 1347 498 1404 q 471 1257 498 1298 q 408 1199 444 1216 z "},"Ẵ":{"ha":781,"x_min":6,"x_max":775,"o":"m 6 0 l 319 1000 l 463 1000 l 775 0 l 625 0 l 541 289 l 528 342 l 393 812 l 388 812 l 253 342 l 240 289 l 156 0 l 6 0 m 176 248 l 176 375 l 606 375 l 606 248 l 176 248 m 273 1298 q 310 1421 273 1375 q 410 1468 347 1468 q 469 1456 445 1468 q 510 1429 492 1444 q 544 1402 528 1413 q 581 1390 561 1390 q 622 1411 608 1390 q 635 1468 635 1431 l 726 1468 q 711 1381 728 1419 q 663 1320 694 1343 q 589 1298 632 1298 q 533 1310 556 1298 q 491 1339 509 1322 q 456 1367 473 1355 q 418 1379 439 1379 q 378 1359 393 1379 q 363 1298 364 1339 l 273 1298 m 500 1059 q 383 1084 434 1059 q 303 1153 332 1109 q 274 1253 274 1197 l 361 1253 q 400 1170 361 1202 q 500 1138 439 1138 q 600 1170 561 1138 q 638 1253 638 1202 l 726 1253 q 696 1153 726 1197 q 617 1084 667 1109 q 500 1059 566 1059 z "},"Ǎ":{"ha":781,"x_min":6,"x_max":775,"o":"m 6 0 l 319 1000 l 463 1000 l 775 0 l 625 0 l 541 289 l 528 342 l 393 812 l 388 812 l 253 342 l 240 289 l 156 0 l 6 0 m 176 248 l 176 375 l 606 375 l 606 248 l 176 248 m 225 1275 l 388 1146 l 393 1146 l 557 1275 l 623 1204 l 408 1047 l 374 1047 l 159 1204 l 225 1275 z "},"Â":{"ha":781,"x_min":6,"x_max":775,"o":"m 6 0 l 319 1000 l 463 1000 l 775 0 l 625 0 l 541 289 l 528 342 l 393 812 l 388 812 l 253 342 l 240 289 l 156 0 l 6 0 m 176 248 l 176 375 l 606 375 l 606 248 l 176 248 m 227 1052 l 161 1124 l 376 1280 l 410 1280 l 625 1124 l 559 1052 l 395 1181 l 390 1181 l 227 1052 z "},"Ấ":{"ha":781,"x_min":6,"x_max":789,"o":"m 6 0 l 319 1000 l 463 1000 l 775 0 l 625 0 l 541 289 l 528 342 l 393 812 l 388 812 l 253 342 l 240 289 l 156 0 l 6 0 m 176 248 l 176 375 l 606 375 l 606 248 l 176 248 m 588 1211 l 523 1259 l 719 1463 l 789 1373 l 588 1211 m 225 1044 l 159 1113 l 374 1271 l 408 1271 l 623 1113 l 557 1044 l 393 1171 l 388 1171 l 225 1044 z "},"Ậ":{"ha":781,"x_min":6,"x_max":775,"o":"m 6 0 l 319 1000 l 463 1000 l 775 0 l 625 0 l 541 289 l 528 342 l 393 812 l 388 812 l 253 342 l 240 289 l 156 0 l 6 0 m 176 248 l 176 375 l 606 375 l 606 248 l 176 248 m 389 -283 q 320 -255 348 -283 q 292 -185 292 -227 q 320 -116 292 -144 q 389 -87 348 -87 q 459 -116 431 -87 q 487 -185 487 -144 q 459 -255 487 -227 q 389 -283 431 -283 m 227 1052 l 161 1124 l 376 1280 l 410 1280 l 625 1124 l 559 1052 l 395 1181 l 390 1181 l 227 1052 z "},"Ầ":{"ha":781,"x_min":-8,"x_max":775,"o":"m 6 0 l 319 1000 l 463 1000 l 775 0 l 625 0 l 541 289 l 528 342 l 393 812 l 388 812 l 253 342 l 240 289 l 156 0 l 6 0 m 176 248 l 176 375 l 606 375 l 606 248 l 176 248 m 193 1210 l -8 1373 l 63 1463 l 258 1259 l 193 1210 m 556 1044 l 393 1171 l 388 1171 l 224 1044 l 159 1112 l 373 1271 l 407 1271 l 623 1112 l 556 1044 z "},"Ẩ":{"ha":781,"x_min":6,"x_max":775,"o":"m 6 0 l 319 1000 l 463 1000 l 775 0 l 625 0 l 541 289 l 528 342 l 393 812 l 388 812 l 253 342 l 240 289 l 156 0 l 6 0 m 176 248 l 176 375 l 606 375 l 606 248 l 176 248 m 573 1208 l 516 1251 q 552 1288 538 1268 q 566 1326 566 1308 q 548 1363 566 1350 q 499 1377 531 1377 q 464 1373 482 1377 q 428 1362 445 1370 l 428 1451 q 469 1461 442 1458 q 517 1465 495 1465 q 616 1435 578 1465 q 655 1345 655 1406 q 642 1288 655 1315 q 609 1241 629 1261 q 573 1208 590 1221 m 224 1044 l 157 1113 l 373 1271 l 407 1271 l 621 1113 l 555 1044 l 392 1171 l 387 1171 l 224 1044 z "},"Ẫ":{"ha":781,"x_min":6,"x_max":775,"o":"m 6 0 l 319 1000 l 463 1000 l 775 0 l 625 0 l 541 289 l 528 342 l 393 812 l 388 812 l 253 342 l 240 289 l 156 0 l 6 0 m 176 248 l 176 375 l 606 375 l 606 248 l 176 248 m 161 1298 q 198 1421 161 1375 q 298 1468 235 1468 q 356 1456 333 1468 q 397 1429 380 1444 q 432 1402 415 1413 q 469 1390 448 1390 q 509 1411 494 1390 q 523 1468 523 1431 l 615 1468 q 602 1381 616 1419 q 557 1320 587 1343 q 487 1298 528 1298 q 429 1310 453 1298 q 388 1339 406 1322 q 353 1367 370 1355 q 315 1379 336 1379 q 271 1359 289 1379 q 252 1298 254 1339 l 161 1298 m 222 1044 l 156 1113 l 372 1271 l 406 1271 l 620 1113 l 554 1044 l 391 1171 l 385 1171 l 222 1044 z "},"Ȁ":{"ha":781,"x_min":6,"x_max":775,"o":"m 6 0 l 319 1000 l 463 1000 l 775 0 l 625 0 l 541 289 l 528 342 l 393 812 l 388 812 l 253 342 l 240 289 l 156 0 l 6 0 m 176 248 l 176 375 l 606 375 l 606 248 l 176 248 m 239 1072 l 83 1289 l 182 1343 l 311 1107 l 239 1072 m 468 1072 l 319 1289 l 416 1343 l 544 1107 l 468 1072 z "},"Ä":{"ha":781,"x_min":6,"x_max":775,"o":"m 6 0 l 319 1000 l 463 1000 l 775 0 l 625 0 l 541 289 l 528 342 l 393 812 l 388 812 l 253 342 l 240 289 l 156 0 l 6 0 m 176 248 l 176 375 l 606 375 l 606 248 l 176 248 m 542 1067 q 476 1093 503 1067 q 450 1158 449 1120 q 476 1224 449 1198 q 542 1251 503 1251 q 607 1224 581 1251 q 633 1158 633 1198 q 607 1093 633 1120 q 542 1067 581 1067 m 244 1067 q 178 1093 205 1067 q 151 1158 151 1120 q 178 1224 151 1198 q 244 1251 205 1251 q 309 1224 283 1251 q 335 1158 335 1198 q 309 1093 335 1120 q 244 1067 283 1067 z "},"Ȧ":{"ha":781,"x_min":6,"x_max":775,"o":"m 6 0 l 319 1000 l 463 1000 l 775 0 l 625 0 l 541 289 l 528 342 l 393 812 l 388 812 l 253 342 l 240 289 l 156 0 l 6 0 m 176 248 l 176 375 l 606 375 l 606 248 l 176 248 m 391 1067 q 321 1096 349 1067 q 293 1165 293 1124 q 321 1235 293 1206 q 391 1263 349 1263 q 460 1235 432 1263 q 488 1165 488 1206 q 460 1096 488 1124 q 391 1067 432 1067 z "},"Ạ":{"ha":781,"x_min":6,"x_max":775,"o":"m 6 0 l 319 1000 l 463 1000 l 775 0 l 625 0 l 541 289 l 528 342 l 393 812 l 388 812 l 253 342 l 240 289 l 156 0 l 6 0 m 176 248 l 176 375 l 606 375 l 606 248 l 176 248 m 389 -283 q 320 -255 348 -283 q 292 -185 292 -227 q 320 -116 292 -144 q 389 -87 348 -87 q 459 -116 431 -87 q 487 -185 487 -144 q 459 -255 487 -227 q 389 -283 431 -283 z "},"À":{"ha":781,"x_min":6,"x_max":775,"o":"m 6 0 l 319 1000 l 463 1000 l 775 0 l 625 0 l 541 289 l 528 342 l 393 812 l 388 812 l 253 342 l 240 289 l 156 0 l 6 0 m 176 248 l 176 375 l 606 375 l 606 248 l 176 248 m 391 1052 l 174 1226 l 244 1315 l 452 1117 l 391 1052 z "},"Ả":{"ha":781,"x_min":6,"x_max":775,"o":"m 6 0 l 319 1000 l 463 1000 l 775 0 l 625 0 l 541 289 l 528 342 l 393 812 l 388 812 l 253 342 l 240 289 l 156 0 l 6 0 m 176 248 l 176 375 l 606 375 l 606 248 l 176 248 m 411 1073 l 357 1128 q 397 1161 380 1142 q 414 1203 414 1181 q 396 1239 414 1226 q 348 1251 379 1251 q 312 1248 334 1251 q 275 1238 291 1244 l 275 1325 q 316 1336 290 1332 q 361 1339 342 1339 q 464 1309 426 1339 q 502 1221 502 1278 q 474 1131 502 1171 q 411 1073 447 1090 z "},"Ȃ":{"ha":781,"x_min":6,"x_max":775,"o":"m 6 0 l 319 1000 l 463 1000 l 775 0 l 625 0 l 541 289 l 528 342 l 393 812 l 388 812 l 253 342 l 240 289 l 156 0 l 6 0 m 176 248 l 176 375 l 606 375 l 606 248 l 176 248 m 389 1258 q 504 1235 452 1258 q 587 1167 556 1211 q 615 1063 617 1124 l 526 1063 q 486 1146 526 1118 q 389 1173 446 1173 q 294 1146 334 1173 q 253 1063 254 1118 l 165 1063 q 196 1167 165 1124 q 278 1235 227 1211 q 389 1258 329 1258 z "},"Ā":{"ha":781,"x_min":6,"x_max":775,"o":"m 6 0 l 319 1000 l 463 1000 l 775 0 l 625 0 l 541 289 l 528 342 l 393 812 l 388 812 l 253 342 l 240 289 l 156 0 l 6 0 m 176 248 l 176 375 l 606 375 l 606 248 l 176 248 m 142 1108 l 142 1207 l 639 1207 l 639 1108 l 142 1108 z "},"Ą":{"ha":781,"x_min":6,"x_max":789,"o":"m 6 0 l 319 1000 l 463 1000 l 775 0 l 625 0 l 541 289 l 528 342 l 393 812 l 388 812 l 253 342 l 240 289 l 156 0 l 6 0 m 176 248 l 176 375 l 606 375 l 606 248 l 176 248 m 691 -281 q 602 -248 637 -281 q 566 -160 566 -214 q 604 -63 566 -106 q 701 26 641 -20 l 776 0 q 720 -49 747 -26 q 675 -96 692 -72 q 657 -146 657 -119 q 673 -183 657 -170 q 715 -197 690 -197 q 757 -189 735 -197 q 790 -173 779 -181 l 790 -257 q 744 -275 774 -268 q 691 -281 715 -281 z "},"Å":{"ha":781,"x_min":6,"x_max":775,"o":"m 6 0 l 319 1000 l 463 1000 l 775 0 l 625 0 l 541 289 l 528 342 l 393 812 l 388 812 l 253 342 l 240 289 l 156 0 l 6 0 m 176 248 l 176 375 l 606 375 l 606 248 l 176 248 m 391 1044 q 309 1066 345 1044 q 250 1123 272 1087 q 229 1204 229 1159 q 250 1287 229 1251 q 309 1345 272 1324 q 391 1366 345 1366 q 471 1345 435 1366 q 528 1287 507 1324 q 549 1204 549 1251 q 528 1123 549 1159 q 471 1066 507 1087 q 391 1044 435 1044 m 391 1128 q 444 1150 423 1128 q 465 1204 464 1172 q 444 1261 465 1240 q 391 1282 423 1282 q 337 1261 359 1282 q 315 1204 315 1240 q 336 1150 315 1172 q 391 1128 358 1128 z "},"Ǻ":{"ha":781,"x_min":6,"x_max":775,"o":"m 6 0 l 319 1000 l 463 1000 l 775 0 l 625 0 l 541 289 l 528 342 l 393 812 l 388 812 l 253 342 l 240 289 l 156 0 l 6 0 m 176 248 l 176 375 l 606 375 l 606 248 l 176 248 m 391 1036 q 284 1078 327 1036 q 242 1180 242 1120 q 284 1284 242 1243 q 391 1324 327 1324 q 496 1284 454 1324 q 539 1180 539 1243 q 497 1078 539 1120 q 391 1036 454 1036 m 391 1107 q 443 1129 423 1107 q 463 1181 463 1151 q 442 1233 463 1213 q 391 1253 422 1253 q 339 1233 361 1253 q 318 1180 318 1213 q 339 1129 318 1151 q 391 1107 361 1107 m 438 1355 l 376 1420 l 585 1618 l 654 1530 l 438 1355 z "},"Ã":{"ha":781,"x_min":6,"x_max":775,"o":"m 6 0 l 319 1000 l 463 1000 l 775 0 l 625 0 l 541 289 l 528 342 l 393 812 l 388 812 l 253 342 l 240 289 l 156 0 l 6 0 m 176 248 l 176 375 l 606 375 l 606 248 l 176 248 m 164 1076 q 200 1198 164 1151 q 298 1246 237 1246 q 358 1233 334 1246 q 400 1205 382 1221 q 433 1177 417 1189 q 469 1164 450 1164 q 511 1188 497 1164 q 526 1246 526 1213 l 616 1246 q 581 1125 618 1174 q 479 1076 544 1076 q 422 1088 446 1076 q 380 1117 399 1101 q 345 1145 362 1133 q 307 1158 328 1158 q 268 1135 281 1158 q 255 1076 255 1112 l 164 1076 z "},"Æ":{"ha":781,"x_min":6,"x_max":758,"o":"m 6 0 l 281 1000 l 420 1000 l 420 868 l 367 868 l 230 342 l 222 294 l 144 0 l 6 0 m 168 250 l 168 375 l 471 375 l 471 250 l 168 250 m 407 0 l 396 325 l 396 351 l 376 1000 l 758 1000 l 758 871 l 503 871 l 528 128 l 758 128 l 758 0 l 407 0 m 504 444 l 498 571 l 730 571 l 730 444 l 504 444 z "},"Ǽ":{"ha":781,"x_min":6,"x_max":758,"o":"m 6 0 l 281 1000 l 420 1000 l 420 868 l 367 868 l 230 342 l 222 294 l 144 0 l 6 0 m 168 250 l 168 375 l 471 375 l 471 250 l 168 250 m 407 0 l 396 325 l 396 351 l 376 1000 l 758 1000 l 758 871 l 503 871 l 528 128 l 758 128 l 758 0 l 407 0 m 504 444 l 498 571 l 730 571 l 730 444 l 504 444 m 499 1052 l 437 1117 l 646 1315 l 715 1226 l 499 1052 z "},"B":{"ha":781,"x_min":80,"x_max":718,"o":"m 208 0 l 208 130 l 421 130 q 534 172 491 130 q 577 290 577 215 q 532 406 577 364 q 412 448 487 448 l 197 448 l 197 569 l 374 569 q 447 589 415 569 q 497 644 479 609 q 515 724 515 679 q 474 832 515 795 q 368 870 433 870 l 197 870 l 197 1000 l 363 1000 q 517 967 452 1000 q 617 878 583 935 q 652 747 652 821 q 632 641 652 690 q 579 556 612 591 q 506 505 546 520 l 507 540 q 617 490 570 525 q 691 402 665 456 q 718 279 718 349 q 681 134 718 197 q 578 36 644 71 q 425 0 512 0 l 208 0 m 80 0 l 80 1000 l 220 1000 l 220 0 l 80 0 z "},"C":{"ha":781,"x_min":58,"x_max":736,"o":"m 486 -11 q 261 54 357 -11 q 111 233 165 118 q 58 500 58 349 q 111 767 58 652 q 260 946 164 882 q 483 1010 356 1010 q 615 985 545 1010 q 734 919 686 960 l 681 791 q 597 853 652 828 q 484 879 543 879 q 335 831 399 879 q 236 699 271 784 q 201 503 201 614 q 236 303 201 390 q 336 169 272 217 q 488 121 401 121 q 598 147 544 121 q 684 214 653 174 l 736 87 q 618 17 688 44 q 486 -11 549 -11 z "},"Ć":{"ha":781,"x_min":58,"x_max":736,"o":"m 486 -11 q 261 54 357 -11 q 111 233 165 118 q 58 500 58 349 q 111 767 58 652 q 260 946 164 882 q 483 1010 356 1010 q 615 985 545 1010 q 734 919 686 960 l 681 791 q 597 853 652 828 q 484 879 543 879 q 335 831 399 879 q 236 699 271 784 q 201 503 201 614 q 236 303 201 390 q 336 169 272 217 q 488 121 401 121 q 598 147 544 121 q 684 214 653 174 l 736 87 q 618 17 688 44 q 486 -11 549 -11 m 471 1052 l 409 1117 l 617 1315 l 687 1226 l 471 1052 z "},"Č":{"ha":781,"x_min":58,"x_max":736,"o":"m 486 -11 q 261 54 357 -11 q 111 233 165 118 q 58 500 58 349 q 111 767 58 652 q 260 946 164 882 q 483 1010 356 1010 q 615 985 545 1010 q 734 919 686 960 l 681 791 q 597 853 652 828 q 484 879 543 879 q 335 831 399 879 q 236 699 271 784 q 201 503 201 614 q 236 303 201 390 q 336 169 272 217 q 488 121 401 121 q 598 147 544 121 q 684 214 653 174 l 736 87 q 618 17 688 44 q 486 -11 549 -11 m 305 1275 l 468 1146 l 473 1146 l 637 1275 l 703 1204 l 488 1047 l 454 1047 l 239 1204 l 305 1275 z "},"Ç":{"ha":781,"x_min":58,"x_max":736,"o":"m 486 -11 q 261 54 357 -11 q 111 233 165 118 q 58 500 58 349 q 111 767 58 652 q 260 946 164 882 q 483 1010 356 1010 q 615 985 545 1010 q 734 919 686 960 l 681 791 q 597 853 652 828 q 484 879 543 879 q 335 831 399 879 q 236 699 271 784 q 201 503 201 614 q 236 303 201 390 q 336 169 272 217 q 488 121 401 121 q 598 147 544 121 q 684 214 653 174 l 736 87 q 618 17 688 44 q 486 -11 549 -11 m 372 -323 l 372 -246 q 475 -233 441 -248 q 510 -184 510 -217 q 483 -144 510 -161 q 409 -127 456 -128 l 448 0 l 517 0 l 482 -111 l 472 -73 q 565 -114 532 -83 q 598 -193 598 -144 q 543 -289 598 -254 q 372 -323 487 -323 z "},"Ḉ":{"ha":781,"x_min":58,"x_max":736,"o":"m 486 -11 q 261 54 357 -11 q 111 233 165 118 q 58 500 58 349 q 111 767 58 652 q 260 946 164 882 q 483 1010 356 1010 q 615 985 545 1010 q 734 919 686 960 l 681 791 q 597 853 652 828 q 484 879 543 879 q 335 831 399 879 q 236 699 271 784 q 201 503 201 614 q 236 303 201 390 q 336 169 272 217 q 488 121 401 121 q 598 147 544 121 q 684 214 653 174 l 736 87 q 618 17 688 44 q 486 -11 549 -11 m 372 -323 l 372 -246 q 475 -233 441 -248 q 510 -184 510 -217 q 483 -144 510 -161 q 409 -127 456 -128 l 448 0 l 517 0 l 482 -111 l 472 -73 q 565 -114 532 -83 q 598 -193 598 -144 q 543 -289 598 -254 q 372 -323 487 -323 m 471 1052 l 409 1117 l 617 1315 l 687 1226 l 471 1052 z "},"Ĉ":{"ha":781,"x_min":58,"x_max":736,"o":"m 486 -11 q 261 54 357 -11 q 111 233 165 118 q 58 500 58 349 q 111 767 58 652 q 260 946 164 882 q 483 1010 356 1010 q 615 985 545 1010 q 734 919 686 960 l 681 791 q 597 853 652 828 q 484 879 543 879 q 335 831 399 879 q 236 699 271 784 q 201 503 201 614 q 236 303 201 390 q 336 169 272 217 q 488 121 401 121 q 598 147 544 121 q 684 214 653 174 l 736 87 q 618 17 688 44 q 486 -11 549 -11 m 307 1052 l 241 1124 l 456 1280 l 490 1280 l 705 1124 l 639 1052 l 475 1181 l 470 1181 l 307 1052 z "},"Ċ":{"ha":781,"x_min":58,"x_max":736,"o":"m 486 -11 q 261 54 357 -11 q 111 233 165 118 q 58 500 58 349 q 111 767 58 652 q 260 946 164 882 q 483 1010 356 1010 q 615 985 545 1010 q 734 919 686 960 l 681 791 q 597 853 652 828 q 484 879 543 879 q 335 831 399 879 q 236 699 271 784 q 201 503 201 614 q 236 303 201 390 q 336 169 272 217 q 488 121 401 121 q 598 147 544 121 q 684 214 653 174 l 736 87 q 618 17 688 44 q 486 -11 549 -11 m 471 1067 q 401 1096 429 1067 q 373 1165 373 1124 q 401 1235 373 1206 q 471 1263 429 1263 q 540 1235 512 1263 q 568 1165 568 1206 q 540 1096 568 1124 q 471 1067 512 1067 z "},"D":{"ha":781,"x_min":77,"x_max":736,"o":"m 77 0 l 77 1000 l 334 1000 q 543 938 452 1000 q 685 765 634 876 q 736 508 736 654 q 686 243 736 357 q 548 64 636 129 q 344 0 459 0 l 77 0 m 219 131 l 348 131 q 476 178 420 131 q 563 311 531 226 q 594 508 594 397 q 563 697 594 616 q 476 823 532 778 q 348 869 420 869 l 219 869 l 219 131 z "},"Ǆ":{"ha":781,"x_min":43,"x_max":750,"o":"m 43 0 l 43 1000 l 177 1000 q 349 871 288 1000 q 410 508 410 742 q 352 134 410 267 q 189 0 293 0 l 43 0 m 155 123 l 186 123 q 267 224 237 123 q 298 507 298 326 q 267 779 298 680 q 186 877 237 877 l 155 877 l 155 123 m 413 0 l 413 29 l 614 875 l 614 878 l 434 878 l 434 1000 l 750 1000 l 750 966 l 551 125 l 551 122 l 744 122 l 744 0 l 413 0 m 573 1046 l 427 1204 l 492 1266 l 585 1150 l 589 1150 l 683 1266 l 747 1204 l 601 1046 l 573 1046 z "},"Ď":{"ha":781,"x_min":77,"x_max":736,"o":"m 77 0 l 77 1000 l 334 1000 q 543 938 452 1000 q 685 765 634 876 q 736 508 736 654 q 686 243 736 357 q 548 64 636 129 q 344 0 459 0 l 77 0 m 219 131 l 348 131 q 476 178 420 131 q 563 311 531 226 q 594 508 594 397 q 563 697 594 616 q 476 823 532 778 q 348 869 420 869 l 219 869 l 219 131 m 212 1275 l 375 1146 l 380 1146 l 544 1275 l 610 1204 l 395 1047 l 361 1047 l 146 1204 l 212 1275 z "},"Đ":{"ha":781,"x_min":8,"x_max":762,"o":"m 113 0 l 113 1000 l 366 1000 q 572 938 483 1000 q 712 765 661 876 q 762 508 762 654 q 713 243 762 358 q 576 64 664 129 q 376 0 489 0 l 113 0 m 252 131 l 379 131 q 506 178 451 131 q 593 311 562 226 q 624 508 624 397 q 593 697 624 616 q 506 823 562 778 q 379 869 451 869 l 252 869 l 252 131 m 8 463 l 8 561 l 389 561 l 389 463 l 8 463 z "},"Ḍ":{"ha":781,"x_min":77,"x_max":736,"o":"m 77 0 l 77 1000 l 334 1000 q 543 938 452 1000 q 685 765 634 876 q 736 508 736 654 q 686 243 736 357 q 548 64 636 129 q 344 0 459 0 l 77 0 m 219 131 l 348 131 q 476 178 420 131 q 563 311 531 226 q 594 508 594 397 q 563 697 594 616 q 476 823 532 778 q 348 869 420 869 l 219 869 l 219 131 m 377 -283 q 308 -255 336 -283 q 279 -185 279 -227 q 308 -116 279 -144 q 377 -87 336 -87 q 447 -116 418 -87 q 475 -185 475 -144 q 447 -255 475 -227 q 377 -283 418 -283 z "},"Ḏ":{"ha":781,"x_min":77,"x_max":736,"o":"m 77 0 l 77 1000 l 334 1000 q 543 938 452 1000 q 685 765 634 876 q 736 508 736 654 q 686 243 736 357 q 548 64 636 129 q 344 0 459 0 l 77 0 m 219 131 l 348 131 q 476 178 420 131 q 563 311 531 226 q 594 508 594 397 q 563 697 594 616 q 476 823 532 778 q 348 869 420 869 l 219 869 l 219 131 m 132 -273 l 132 -184 l 622 -184 l 622 -273 l 132 -273 z "},"ǅ":{"ha":781,"x_min":43,"x_max":757,"o":"m 43 0 l 43 1000 l 177 1000 q 349 871 288 1000 q 410 508 410 742 q 352 134 410 267 q 189 0 293 0 l 43 0 m 155 123 l 186 123 q 267 222 237 123 q 298 504 298 322 q 267 777 298 677 q 186 877 237 877 l 155 877 l 155 123 m 416 0 l 416 30 l 618 609 l 618 612 l 448 612 l 448 720 l 749 720 l 749 686 l 549 111 l 549 108 l 742 108 l 742 0 l 416 0 m 574 831 l 420 991 l 472 1052 l 587 927 l 589 927 l 705 1052 l 757 991 l 602 831 l 574 831 z "},"Ð":{"ha":781,"x_min":8,"x_max":762,"o":"m 113 0 l 113 1000 l 366 1000 q 572 938 483 1000 q 712 765 661 876 q 762 508 762 654 q 713 243 762 358 q 576 64 664 129 q 376 0 489 0 l 113 0 m 252 131 l 379 131 q 506 178 451 131 q 593 311 562 226 q 624 508 624 397 q 593 697 624 616 q 506 823 562 778 q 379 869 451 869 l 252 869 l 252 131 m 8 463 l 8 561 l 389 561 l 389 463 l 8 463 z "},"E":{"ha":781,"x_min":128,"x_max":688,"o":"m 128 0 l 128 1000 l 688 1000 l 688 869 l 272 869 l 272 572 l 623 572 l 623 444 l 272 444 l 272 131 l 688 131 l 688 0 l 128 0 z "},"É":{"ha":781,"x_min":128,"x_max":688,"o":"m 128 0 l 128 1000 l 688 1000 l 688 869 l 272 869 l 272 572 l 623 572 l 623 444 l 272 444 l 272 131 l 688 131 l 688 0 l 128 0 m 413 1052 l 351 1117 l 559 1315 l 629 1226 l 413 1052 z "},"Ĕ":{"ha":781,"x_min":128,"x_max":688,"o":"m 128 0 l 128 1000 l 688 1000 l 688 869 l 272 869 l 272 572 l 623 572 l 623 444 l 272 444 l 272 131 l 688 131 l 688 0 l 128 0 m 413 1059 q 301 1082 353 1059 q 219 1149 250 1106 q 189 1253 189 1193 l 277 1253 q 318 1171 277 1199 q 413 1143 358 1143 q 510 1171 469 1143 q 550 1253 550 1199 l 639 1253 q 610 1149 640 1193 q 528 1082 580 1106 q 413 1059 475 1059 z "},"Ě":{"ha":781,"x_min":128,"x_max":688,"o":"m 128 0 l 128 1000 l 688 1000 l 688 869 l 272 869 l 272 572 l 623 572 l 623 444 l 272 444 l 272 131 l 688 131 l 688 0 l 128 0 m 248 1275 l 410 1146 l 415 1146 l 578 1275 l 645 1204 l 430 1047 l 397 1047 l 181 1204 l 248 1275 z "},"Ḝ":{"ha":781,"x_min":128,"x_max":688,"o":"m 128 0 l 128 1000 l 688 1000 l 688 869 l 272 869 l 272 572 l 623 572 l 623 444 l 272 444 l 272 131 l 688 131 l 688 0 l 128 0 m 302 -323 l 302 -246 q 406 -233 371 -248 q 440 -184 440 -217 q 413 -144 440 -161 q 339 -127 387 -128 l 378 0 l 447 0 l 412 -111 l 402 -73 q 495 -114 463 -83 q 528 -193 528 -144 q 473 -289 528 -254 q 302 -323 417 -323 m 413 1059 q 301 1082 353 1059 q 219 1149 250 1106 q 189 1253 189 1193 l 277 1253 q 318 1171 277 1199 q 413 1143 358 1143 q 510 1171 469 1143 q 550 1253 550 1199 l 639 1253 q 610 1149 640 1193 q 528 1082 580 1106 q 413 1059 475 1059 z "},"Ê":{"ha":781,"x_min":128,"x_max":688,"o":"m 128 0 l 128 1000 l 688 1000 l 688 869 l 272 869 l 272 572 l 623 572 l 623 444 l 272 444 l 272 131 l 688 131 l 688 0 l 128 0 m 250 1052 l 183 1124 l 399 1280 l 433 1280 l 647 1124 l 581 1052 l 418 1181 l 412 1181 l 250 1052 z "},"Ế":{"ha":781,"x_min":128,"x_max":811,"o":"m 128 0 l 128 1000 l 688 1000 l 688 869 l 272 869 l 272 572 l 623 572 l 623 444 l 272 444 l 272 131 l 688 131 l 688 0 l 128 0 m 610 1211 l 545 1259 l 741 1463 l 812 1373 l 610 1211 m 248 1044 l 181 1113 l 397 1271 l 431 1271 l 645 1113 l 579 1044 l 416 1171 l 410 1171 l 248 1044 z "},"Ệ":{"ha":781,"x_min":128,"x_max":688,"o":"m 128 0 l 128 1000 l 688 1000 l 688 869 l 272 869 l 272 572 l 623 572 l 623 444 l 272 444 l 272 131 l 688 131 l 688 0 l 128 0 m 418 -283 q 348 -255 376 -283 q 320 -185 320 -227 q 348 -116 320 -144 q 418 -87 376 -87 q 487 -116 459 -87 q 515 -185 515 -144 q 487 -255 515 -227 q 418 -283 459 -283 m 256 1052 l 189 1124 l 405 1280 l 439 1280 l 653 1124 l 587 1052 l 424 1181 l 418 1181 l 256 1052 z "},"Ề":{"ha":781,"x_min":14,"x_max":688,"o":"m 128 0 l 128 1000 l 688 1000 l 688 869 l 272 869 l 272 572 l 623 572 l 623 444 l 272 444 l 272 131 l 688 131 l 688 0 l 128 0 m 216 1210 l 14 1373 l 85 1463 l 281 1259 l 216 1210 m 578 1044 l 415 1171 l 410 1171 l 247 1044 l 181 1112 l 395 1271 l 429 1271 l 645 1112 l 578 1044 z "},"Ể":{"ha":781,"x_min":128,"x_max":688,"o":"m 128 0 l 128 1000 l 688 1000 l 688 869 l 272 869 l 272 572 l 623 572 l 623 444 l 272 444 l 272 131 l 688 131 l 688 0 l 128 0 m 595 1208 l 538 1251 q 574 1288 560 1268 q 588 1326 588 1308 q 571 1363 588 1350 q 522 1377 553 1377 q 486 1373 505 1377 q 450 1362 467 1370 l 450 1451 q 491 1461 465 1458 q 539 1465 517 1465 q 639 1435 600 1465 q 677 1345 677 1406 q 664 1288 677 1315 q 632 1241 651 1261 q 595 1208 612 1221 m 247 1044 l 180 1113 l 395 1271 l 429 1271 l 644 1113 l 578 1044 l 414 1171 l 410 1171 l 247 1044 z "},"Ễ":{"ha":781,"x_min":128,"x_max":688,"o":"m 128 0 l 128 1000 l 688 1000 l 688 869 l 272 869 l 272 572 l 623 572 l 623 444 l 272 444 l 272 131 l 688 131 l 688 0 l 128 0 m 184 1298 q 220 1421 183 1375 q 321 1468 258 1468 q 379 1456 355 1468 q 420 1429 402 1444 q 454 1402 437 1413 q 492 1390 471 1390 q 531 1411 517 1390 q 545 1468 545 1431 l 637 1468 q 624 1381 639 1419 q 580 1320 609 1343 q 509 1298 551 1298 q 452 1310 475 1298 q 410 1339 428 1322 q 376 1367 393 1355 q 338 1379 359 1379 q 294 1359 311 1379 q 275 1298 276 1339 l 184 1298 m 245 1044 l 178 1113 l 394 1271 l 428 1271 l 642 1113 l 576 1044 l 413 1171 l 408 1171 l 245 1044 z "},"Ȅ":{"ha":781,"x_min":105,"x_max":688,"o":"m 128 0 l 128 1000 l 688 1000 l 688 869 l 272 869 l 272 572 l 623 572 l 623 444 l 272 444 l 272 131 l 688 131 l 688 0 l 128 0 m 261 1072 l 105 1289 l 204 1343 l 333 1107 l 261 1072 m 490 1072 l 341 1289 l 438 1343 l 566 1107 l 490 1072 z "},"Ë":{"ha":781,"x_min":128,"x_max":688,"o":"m 128 0 l 128 1000 l 688 1000 l 688 869 l 272 869 l 272 572 l 623 572 l 623 444 l 272 444 l 272 131 l 688 131 l 688 0 l 128 0 m 564 1067 q 498 1093 525 1067 q 472 1158 471 1120 q 498 1224 471 1198 q 564 1251 525 1251 q 629 1224 603 1251 q 656 1158 655 1198 q 629 1093 655 1120 q 564 1067 603 1067 m 267 1067 q 201 1093 228 1067 q 174 1158 174 1120 q 201 1224 174 1198 q 267 1251 228 1251 q 332 1224 306 1251 q 357 1158 357 1198 q 332 1093 357 1120 q 267 1067 306 1067 z "},"Ė":{"ha":781,"x_min":128,"x_max":688,"o":"m 128 0 l 128 1000 l 688 1000 l 688 869 l 272 869 l 272 572 l 623 572 l 623 444 l 272 444 l 272 131 l 688 131 l 688 0 l 128 0 m 412 1067 q 343 1096 371 1067 q 315 1165 315 1124 q 343 1235 315 1206 q 412 1263 371 1263 q 482 1235 454 1263 q 510 1165 510 1206 q 482 1096 510 1124 q 412 1067 454 1067 z "},"Ẹ":{"ha":781,"x_min":128,"x_max":688,"o":"m 128 0 l 128 1000 l 688 1000 l 688 869 l 272 869 l 272 572 l 623 572 l 623 444 l 272 444 l 272 131 l 688 131 l 688 0 l 128 0 m 419 -283 q 350 -255 378 -283 q 321 -185 321 -227 q 350 -116 321 -144 q 419 -87 378 -87 q 489 -116 460 -87 q 517 -185 517 -144 q 489 -255 517 -227 q 419 -283 460 -283 z "},"È":{"ha":781,"x_min":128,"x_max":688,"o":"m 128 0 l 128 1000 l 688 1000 l 688 869 l 272 869 l 272 572 l 623 572 l 623 444 l 272 444 l 272 131 l 688 131 l 688 0 l 128 0 m 413 1052 l 197 1226 l 267 1315 l 475 1117 l 413 1052 z "},"Ẻ":{"ha":781,"x_min":128,"x_max":688,"o":"m 128 0 l 128 1000 l 688 1000 l 688 869 l 272 869 l 272 572 l 623 572 l 623 444 l 272 444 l 272 131 l 688 131 l 688 0 l 128 0 m 433 1073 l 379 1128 q 419 1161 402 1142 q 435 1203 435 1181 q 418 1239 435 1226 q 370 1251 401 1251 q 334 1248 355 1251 q 297 1238 313 1244 l 297 1325 q 338 1336 312 1332 q 382 1339 364 1339 q 486 1309 448 1339 q 524 1221 524 1278 q 496 1131 524 1171 q 433 1073 469 1090 z "},"Ȇ":{"ha":781,"x_min":128,"x_max":688,"o":"m 128 0 l 128 1000 l 688 1000 l 688 869 l 272 869 l 272 572 l 623 572 l 623 444 l 272 444 l 272 131 l 688 131 l 688 0 l 128 0 m 412 1258 q 526 1235 474 1258 q 609 1167 578 1211 q 637 1063 639 1124 l 549 1063 q 508 1146 549 1118 q 412 1173 468 1173 q 316 1146 357 1173 q 275 1063 276 1118 l 187 1063 q 218 1167 187 1124 q 300 1235 249 1211 q 412 1258 351 1258 z "},"Ē":{"ha":781,"x_min":128,"x_max":688,"o":"m 128 0 l 128 1000 l 688 1000 l 688 869 l 272 869 l 272 572 l 623 572 l 623 444 l 272 444 l 272 131 l 688 131 l 688 0 l 128 0 m 164 1108 l 164 1207 l 661 1207 l 661 1108 l 164 1108 z "},"Ḗ":{"ha":781,"x_min":128,"x_max":688,"o":"m 128 0 l 128 1000 l 688 1000 l 688 869 l 272 869 l 272 572 l 623 572 l 623 444 l 272 444 l 272 131 l 688 131 l 688 0 l 128 0 m 164 1108 l 164 1207 l 661 1207 l 661 1108 l 164 1108 m 413 1259 l 351 1324 l 559 1522 l 629 1434 l 413 1259 z "},"Ḕ":{"ha":781,"x_min":128,"x_max":688,"o":"m 128 0 l 128 1000 l 688 1000 l 688 869 l 272 869 l 272 572 l 623 572 l 623 444 l 272 444 l 272 131 l 688 131 l 688 0 l 128 0 m 164 1108 l 164 1207 l 661 1207 l 661 1108 l 164 1108 m 413 1259 l 197 1434 l 267 1522 l 475 1324 l 413 1259 z "},"Ę":{"ha":781,"x_min":128,"x_max":701,"o":"m 128 0 l 128 1000 l 688 1000 l 688 869 l 272 869 l 272 572 l 623 572 l 623 444 l 272 444 l 272 131 l 688 131 l 688 0 l 128 0 m 602 -281 q 512 -248 547 -281 q 477 -160 477 -214 q 514 -63 477 -106 q 612 26 551 -20 l 686 0 q 630 -49 657 -26 q 585 -96 603 -72 q 568 -146 568 -119 q 584 -183 568 -170 q 626 -197 600 -197 q 668 -189 646 -197 q 701 -173 690 -181 l 701 -257 q 655 -275 684 -268 q 602 -281 625 -281 z "},"Ẽ":{"ha":781,"x_min":128,"x_max":688,"o":"m 128 0 l 128 1000 l 688 1000 l 688 869 l 272 869 l 272 572 l 623 572 l 623 444 l 272 444 l 272 131 l 688 131 l 688 0 l 128 0 m 186 1076 q 223 1198 186 1151 q 321 1246 259 1246 q 381 1233 357 1246 q 422 1205 405 1221 q 456 1177 439 1189 q 492 1164 472 1164 q 534 1188 519 1164 q 548 1246 548 1213 l 639 1246 q 603 1125 640 1174 q 502 1076 566 1076 q 445 1088 468 1076 q 403 1117 421 1101 q 368 1145 385 1133 q 330 1158 351 1158 q 291 1135 304 1158 q 277 1076 277 1112 l 186 1076 z "},"Ə":{"ha":781,"x_min":53,"x_max":737,"o":"m 385 -11 q 208 50 283 -11 q 93 216 134 111 q 53 452 53 321 l 53 551 l 640 551 l 640 424 l 186 424 q 210 273 186 342 q 278 162 234 203 q 385 120 323 120 q 475 149 436 120 q 541 228 514 177 q 581 348 567 279 q 595 497 595 417 q 569 696 595 610 q 490 831 543 783 q 360 879 438 879 q 245 853 301 879 q 161 791 190 828 l 107 919 q 226 986 159 962 q 361 1010 293 1010 q 519 970 450 1010 q 637 859 589 930 q 711 693 686 788 q 737 490 737 599 q 712 291 737 382 q 641 132 688 200 q 530 27 595 64 q 385 -11 466 -11 z "},"F":{"ha":781,"x_min":143,"x_max":720,"o":"m 143 0 l 143 1000 l 720 1000 l 720 869 l 287 869 l 287 554 l 659 554 l 659 424 l 287 424 l 287 0 l 143 0 z "},"G":{"ha":781,"x_min":41,"x_max":720,"o":"m 440 -11 q 232 54 322 -11 q 92 233 142 119 q 41 495 41 347 q 96 766 41 650 q 243 946 150 882 q 456 1010 337 1010 q 597 986 529 1010 q 718 919 665 962 l 665 791 q 581 853 635 827 q 463 879 527 879 q 316 831 380 879 q 218 698 253 784 q 182 497 182 612 q 216 302 182 387 q 309 169 249 217 q 450 121 368 121 q 542 142 505 121 q 601 192 579 163 l 582 154 l 582 425 l 393 425 l 393 552 l 720 552 l 720 116 q 601 24 675 58 q 440 -11 527 -11 z "},"Ğ":{"ha":781,"x_min":41,"x_max":720,"o":"m 440 -11 q 232 54 322 -11 q 92 233 142 119 q 41 495 41 347 q 96 766 41 650 q 243 946 150 882 q 456 1010 337 1010 q 597 986 529 1010 q 718 919 665 962 l 665 791 q 581 853 635 827 q 463 879 527 879 q 316 831 380 879 q 218 698 253 784 q 182 497 182 612 q 216 302 182 387 q 309 169 249 217 q 450 121 368 121 q 542 142 505 121 q 601 192 579 163 l 582 154 l 582 425 l 393 425 l 393 552 l 720 552 l 720 116 q 601 24 675 58 q 440 -11 527 -11 m 424 1059 q 312 1082 363 1059 q 230 1149 261 1106 q 199 1253 199 1193 l 288 1253 q 329 1171 288 1199 q 424 1143 369 1143 q 520 1171 480 1143 q 561 1253 561 1199 l 650 1253 q 621 1149 651 1193 q 538 1082 591 1106 q 424 1059 486 1059 z "},"Ǧ":{"ha":781,"x_min":41,"x_max":720,"o":"m 440 -11 q 232 54 322 -11 q 92 233 142 119 q 41 495 41 347 q 96 766 41 650 q 243 946 150 882 q 456 1010 337 1010 q 597 986 529 1010 q 718 919 665 962 l 665 791 q 581 853 635 827 q 463 879 527 879 q 316 831 380 879 q 218 698 253 784 q 182 497 182 612 q 216 302 182 387 q 309 169 249 217 q 450 121 368 121 q 542 142 505 121 q 601 192 579 163 l 582 154 l 582 425 l 393 425 l 393 552 l 720 552 l 720 116 q 601 24 675 58 q 440 -11 527 -11 m 258 1275 l 421 1146 l 426 1146 l 590 1275 l 656 1204 l 441 1047 l 408 1047 l 192 1204 l 258 1275 z "},"Ĝ":{"ha":781,"x_min":41,"x_max":720,"o":"m 440 -11 q 232 54 322 -11 q 92 233 142 119 q 41 495 41 347 q 96 766 41 650 q 243 946 150 882 q 456 1010 337 1010 q 597 986 529 1010 q 718 919 665 962 l 665 791 q 581 853 635 827 q 463 879 527 879 q 316 831 380 879 q 218 698 253 784 q 182 497 182 612 q 216 302 182 387 q 309 169 249 217 q 450 121 368 121 q 542 142 505 121 q 601 192 579 163 l 582 154 l 582 425 l 393 425 l 393 552 l 720 552 l 720 116 q 601 24 675 58 q 440 -11 527 -11 m 260 1052 l 194 1124 l 410 1280 l 444 1280 l 658 1124 l 592 1052 l 429 1181 l 423 1181 l 260 1052 z "},"Ģ":{"ha":781,"x_min":41,"x_max":720,"o":"m 440 -11 q 232 54 322 -11 q 92 233 142 119 q 41 495 41 347 q 96 766 41 650 q 243 946 150 882 q 456 1010 337 1010 q 597 986 529 1010 q 718 919 665 962 l 665 791 q 581 853 635 827 q 463 879 527 879 q 316 831 380 879 q 218 698 253 784 q 182 497 182 612 q 216 302 182 387 q 309 169 249 217 q 450 121 368 121 q 542 142 505 121 q 601 192 579 163 l 582 154 l 582 425 l 393 425 l 393 552 l 720 552 l 720 116 q 601 24 675 58 q 440 -11 527 -11 m 382 -384 l 347 -344 l 401 -291 q 429 -260 417 -275 q 447 -232 441 -245 q 452 -207 453 -219 l 474 -205 q 462 -230 471 -218 q 432 -242 453 -242 q 384 -221 407 -242 q 360 -168 360 -201 q 382 -114 360 -134 q 432 -94 405 -94 q 486 -116 464 -94 q 507 -179 507 -138 q 495 -241 507 -212 q 466 -290 482 -269 q 438 -322 450 -311 l 382 -384 z "},"Ġ":{"ha":781,"x_min":41,"x_max":720,"o":"m 440 -11 q 232 54 322 -11 q 92 233 142 119 q 41 495 41 347 q 96 766 41 650 q 243 946 150 882 q 456 1010 337 1010 q 597 986 529 1010 q 718 919 665 962 l 665 791 q 581 853 635 827 q 463 879 527 879 q 316 831 380 879 q 218 698 253 784 q 182 497 182 612 q 216 302 182 387 q 309 169 249 217 q 450 121 368 121 q 542 142 505 121 q 601 192 579 163 l 582 154 l 582 425 l 393 425 l 393 552 l 720 552 l 720 116 q 601 24 675 58 q 440 -11 527 -11 m 424 1067 q 354 1096 382 1067 q 326 1165 326 1124 q 354 1235 326 1206 q 424 1263 382 1263 q 493 1235 465 1263 q 522 1165 522 1206 q 493 1096 522 1124 q 424 1067 465 1067 z "},"Ḡ":{"ha":781,"x_min":41,"x_max":720,"o":"m 440 -11 q 232 54 322 -11 q 92 233 142 119 q 41 495 41 347 q 96 766 41 650 q 243 946 150 882 q 456 1010 337 1010 q 597 986 529 1010 q 718 919 665 962 l 665 791 q 581 853 635 827 q 463 879 527 879 q 316 831 380 879 q 218 698 253 784 q 182 497 182 612 q 216 302 182 387 q 309 169 249 217 q 450 121 368 121 q 542 142 505 121 q 601 192 579 163 l 582 154 l 582 425 l 393 425 l 393 552 l 720 552 l 720 116 q 601 24 675 58 q 440 -11 527 -11 m 176 1108 l 176 1207 l 672 1207 l 672 1108 l 176 1108 z "},"H":{"ha":781,"x_min":77,"x_max":704,"o":"m 77 0 l 77 1000 l 220 1000 l 220 575 l 561 575 l 561 1000 l 704 1000 l 704 0 l 561 0 l 561 445 l 220 445 l 220 0 l 77 0 z "},"Ħ":{"ha":781,"x_min":14,"x_max":753,"o":"m 14 720 l 14 814 l 753 814 l 753 720 l 14 720 m 77 0 l 77 1000 l 220 1000 l 220 575 l 561 575 l 561 1000 l 704 1000 l 704 0 l 561 0 l 561 445 l 220 445 l 220 0 l 77 0 z "},"Ḫ":{"ha":781,"x_min":77,"x_max":704,"o":"m 77 0 l 77 1000 l 220 1000 l 220 575 l 561 575 l 561 1000 l 704 1000 l 704 0 l 561 0 l 561 445 l 220 445 l 220 0 l 77 0 m 391 -294 q 276 -266 328 -294 q 195 -189 224 -237 q 165 -80 165 -140 l 257 -80 q 295 -173 256 -136 q 391 -211 334 -211 q 487 -173 450 -211 q 526 -80 525 -136 l 618 -80 q 588 -189 618 -140 q 507 -266 558 -237 q 391 -294 456 -294 z "},"Ĥ":{"ha":781,"x_min":77,"x_max":704,"o":"m 77 0 l 77 1000 l 220 1000 l 220 575 l 561 575 l 561 1000 l 704 1000 l 704 0 l 561 0 l 561 445 l 220 445 l 220 0 l 77 0 m 229 1052 l 162 1124 l 378 1280 l 412 1280 l 626 1124 l 560 1052 l 397 1181 l 391 1181 l 229 1052 z "},"Ḥ":{"ha":781,"x_min":77,"x_max":704,"o":"m 77 0 l 77 1000 l 220 1000 l 220 575 l 561 575 l 561 1000 l 704 1000 l 704 0 l 561 0 l 561 445 l 220 445 l 220 0 l 77 0 m 392 -283 q 322 -255 351 -283 q 294 -185 294 -227 q 322 -116 294 -144 q 392 -87 351 -87 q 461 -116 433 -87 q 490 -185 490 -144 q 461 -255 490 -227 q 392 -283 433 -283 z "},"I":{"ha":781,"x_min":115,"x_max":666,"o":"m 319 0 l 319 1000 l 463 1000 l 463 0 l 319 0 m 115 0 l 115 127 l 666 127 l 666 0 l 115 0 m 115 872 l 115 1000 l 666 1000 l 666 872 l 115 872 z "},"Í":{"ha":781,"x_min":115,"x_max":666,"o":"m 319 0 l 319 1000 l 463 1000 l 463 0 l 319 0 m 115 0 l 115 127 l 666 127 l 666 0 l 115 0 m 115 872 l 115 1000 l 666 1000 l 666 872 l 115 872 m 389 1052 l 328 1117 l 536 1315 l 606 1226 l 389 1052 z "},"Ĭ":{"ha":781,"x_min":115,"x_max":666,"o":"m 319 0 l 319 1000 l 463 1000 l 463 0 l 319 0 m 115 0 l 115 127 l 666 127 l 666 0 l 115 0 m 115 872 l 115 1000 l 666 1000 l 666 872 l 115 872 m 389 1059 q 278 1082 329 1059 q 196 1149 227 1106 q 165 1253 165 1193 l 253 1253 q 294 1171 254 1199 q 389 1143 334 1143 q 486 1171 446 1143 q 526 1253 526 1199 l 615 1253 q 586 1149 616 1193 q 504 1082 556 1106 q 389 1059 452 1059 z "},"Ǐ":{"ha":781,"x_min":115,"x_max":666,"o":"m 319 0 l 319 1000 l 463 1000 l 463 0 l 319 0 m 115 0 l 115 127 l 666 127 l 666 0 l 115 0 m 115 872 l 115 1000 l 666 1000 l 666 872 l 115 872 m 224 1275 l 387 1146 l 392 1146 l 555 1275 l 621 1204 l 407 1047 l 373 1047 l 157 1204 l 224 1275 z "},"Î":{"ha":781,"x_min":115,"x_max":666,"o":"m 319 0 l 319 1000 l 463 1000 l 463 0 l 319 0 m 115 0 l 115 127 l 666 127 l 666 0 l 115 0 m 115 872 l 115 1000 l 666 1000 l 666 872 l 115 872 m 226 1052 l 159 1124 l 375 1280 l 409 1280 l 623 1124 l 557 1052 l 394 1181 l 389 1181 l 226 1052 z "},"Ȉ":{"ha":781,"x_min":82,"x_max":666,"o":"m 319 0 l 319 1000 l 463 1000 l 463 0 l 319 0 m 115 0 l 115 127 l 666 127 l 666 0 l 115 0 m 115 872 l 115 1000 l 666 1000 l 666 872 l 115 872 m 238 1072 l 82 1289 l 181 1343 l 310 1107 l 238 1072 m 467 1072 l 318 1289 l 415 1343 l 543 1107 l 467 1072 z "},"Ï":{"ha":781,"x_min":115,"x_max":666,"o":"m 319 0 l 319 1000 l 463 1000 l 463 0 l 319 0 m 115 0 l 115 127 l 666 127 l 666 0 l 115 0 m 115 872 l 115 1000 l 666 1000 l 666 872 l 115 872 m 541 1067 q 474 1093 501 1067 q 448 1158 448 1120 q 474 1224 448 1198 q 541 1251 501 1251 q 605 1224 579 1251 q 632 1158 631 1198 q 605 1093 631 1120 q 541 1067 579 1067 m 243 1067 q 177 1093 204 1067 q 150 1158 150 1120 q 177 1224 150 1198 q 243 1251 204 1251 q 308 1224 282 1251 q 334 1158 334 1198 q 308 1093 334 1120 q 243 1067 282 1067 z "},"Ḯ":{"ha":781,"x_min":115,"x_max":666,"o":"m 319 0 l 319 1000 l 463 1000 l 463 0 l 319 0 m 115 0 l 115 127 l 666 127 l 666 0 l 115 0 m 115 872 l 115 1000 l 666 1000 l 666 872 l 115 872 m 541 1067 q 474 1093 501 1067 q 448 1158 448 1120 q 474 1224 448 1198 q 541 1251 501 1251 q 605 1224 579 1251 q 632 1158 631 1198 q 605 1093 631 1120 q 541 1067 579 1067 m 243 1067 q 177 1093 204 1067 q 150 1158 150 1120 q 177 1224 150 1198 q 243 1251 204 1251 q 308 1224 282 1251 q 334 1158 334 1198 q 308 1093 334 1120 q 243 1067 282 1067 m 389 1255 l 328 1320 l 536 1518 l 606 1429 l 389 1255 z "},"İ":{"ha":781,"x_min":115,"x_max":666,"o":"m 319 0 l 319 1000 l 463 1000 l 463 0 l 319 0 m 115 0 l 115 127 l 666 127 l 666 0 l 115 0 m 115 872 l 115 1000 l 666 1000 l 666 872 l 115 872 m 389 1067 q 320 1096 348 1067 q 292 1165 292 1124 q 320 1235 292 1206 q 389 1263 348 1263 q 459 1235 431 1263 q 487 1165 487 1206 q 459 1096 487 1124 q 389 1067 431 1067 z "},"Ị":{"ha":781,"x_min":115,"x_max":666,"o":"m 319 0 l 319 1000 l 463 1000 l 463 0 l 319 0 m 115 0 l 115 127 l 666 127 l 666 0 l 115 0 m 115 872 l 115 1000 l 666 1000 l 666 872 l 115 872 m 389 -283 q 320 -255 348 -283 q 292 -185 292 -227 q 320 -116 292 -144 q 389 -87 348 -87 q 459 -116 431 -87 q 487 -185 487 -144 q 459 -255 487 -227 q 389 -283 431 -283 z "},"Ì":{"ha":781,"x_min":115,"x_max":666,"o":"m 319 0 l 319 1000 l 463 1000 l 463 0 l 319 0 m 115 0 l 115 127 l 666 127 l 666 0 l 115 0 m 115 872 l 115 1000 l 666 1000 l 666 872 l 115 872 m 389 1052 l 173 1226 l 243 1315 l 451 1117 l 389 1052 z "},"Ỉ":{"ha":781,"x_min":115,"x_max":666,"o":"m 319 0 l 319 1000 l 463 1000 l 463 0 l 319 0 m 115 0 l 115 127 l 666 127 l 666 0 l 115 0 m 115 872 l 115 1000 l 666 1000 l 666 872 l 115 872 m 410 1073 l 356 1128 q 396 1161 379 1142 q 412 1203 412 1181 q 395 1239 412 1226 q 347 1251 378 1251 q 311 1248 332 1251 q 274 1238 290 1244 l 274 1325 q 315 1336 289 1332 q 359 1339 341 1339 q 463 1309 425 1339 q 500 1221 500 1278 q 473 1131 500 1171 q 410 1073 446 1090 z "},"Ȋ":{"ha":781,"x_min":115,"x_max":666,"o":"m 319 0 l 319 1000 l 463 1000 l 463 0 l 319 0 m 115 0 l 115 127 l 666 127 l 666 0 l 115 0 m 115 872 l 115 1000 l 666 1000 l 666 872 l 115 872 m 388 1258 q 503 1235 451 1258 q 586 1167 555 1211 q 614 1063 616 1124 l 525 1063 q 485 1146 526 1118 q 388 1173 445 1173 q 293 1146 334 1173 q 252 1063 252 1118 l 163 1063 q 194 1167 163 1124 q 276 1235 225 1211 q 388 1258 328 1258 z "},"Ī":{"ha":781,"x_min":115,"x_max":666,"o":"m 319 0 l 319 1000 l 463 1000 l 463 0 l 319 0 m 115 0 l 115 127 l 666 127 l 666 0 l 115 0 m 115 872 l 115 1000 l 666 1000 l 666 872 l 115 872 m 168 1108 l 168 1207 l 610 1207 l 610 1108 l 168 1108 z "},"Į":{"ha":781,"x_min":115,"x_max":680,"o":"m 319 0 l 319 1000 l 463 1000 l 463 0 l 319 0 m 115 0 l 115 127 l 666 127 l 666 0 l 115 0 m 115 872 l 115 1000 l 666 1000 l 666 872 l 115 872 m 582 -281 q 492 -248 528 -281 q 457 -160 457 -214 q 494 -63 457 -106 q 592 26 532 -20 l 667 0 q 610 -49 637 -26 q 566 -96 583 -72 q 548 -146 548 -119 q 564 -183 548 -170 q 606 -197 581 -197 q 648 -189 626 -197 q 681 -173 670 -181 l 681 -257 q 635 -275 665 -268 q 582 -281 606 -281 z "},"Ĩ":{"ha":781,"x_min":115,"x_max":666,"o":"m 319 0 l 319 1000 l 463 1000 l 463 0 l 319 0 m 115 0 l 115 127 l 666 127 l 666 0 l 115 0 m 115 872 l 115 1000 l 666 1000 l 666 872 l 115 872 m 163 1076 q 199 1198 163 1151 q 297 1246 235 1246 q 357 1233 333 1246 q 398 1205 381 1221 q 432 1177 416 1189 q 468 1164 448 1164 q 510 1188 496 1164 q 524 1246 524 1213 l 615 1246 q 579 1125 616 1174 q 478 1076 543 1076 q 421 1088 444 1076 q 379 1117 397 1101 q 344 1145 361 1133 q 306 1158 327 1158 q 267 1135 280 1158 q 254 1076 254 1112 l 163 1076 z "},"J":{"ha":781,"x_min":37,"x_max":633,"o":"m 333 -11 q 177 27 243 -11 q 74 131 111 64 q 37 286 37 198 l 177 286 q 219 165 178 210 q 330 120 260 120 q 409 140 374 120 q 466 200 445 159 q 487 302 487 240 l 487 1000 l 633 1000 l 633 304 q 594 131 633 201 q 487 25 555 61 q 333 -11 418 -11 z "},"Ĵ":{"ha":781,"x_min":37,"x_max":787,"o":"m 333 -11 q 177 27 243 -11 q 74 131 111 64 q 37 286 37 198 l 177 286 q 219 165 178 210 q 330 120 260 120 q 409 140 374 120 q 466 200 445 159 q 487 302 487 240 l 487 1000 l 633 1000 l 633 304 q 594 131 633 201 q 487 25 555 61 q 333 -11 418 -11 m 390 1052 l 323 1124 l 539 1280 l 573 1280 l 787 1124 l 722 1052 l 558 1181 l 553 1181 l 390 1052 z "},"K":{"ha":781,"x_min":97,"x_max":769,"o":"m 97 0 l 97 1000 l 238 1000 l 238 541 l 277 541 l 222 513 l 574 1000 l 749 1000 l 351 464 l 351 538 l 769 0 l 592 0 l 222 483 l 277 458 l 238 458 l 238 0 l 97 0 z "},"Ķ":{"ha":781,"x_min":97,"x_max":769,"o":"m 97 0 l 97 1000 l 238 1000 l 238 541 l 277 541 l 222 513 l 574 1000 l 749 1000 l 351 464 l 351 538 l 769 0 l 592 0 l 222 483 l 277 458 l 238 458 l 238 0 l 97 0 m 362 -384 l 328 -344 l 382 -291 q 410 -260 397 -275 q 428 -232 422 -245 q 433 -207 433 -219 l 454 -205 q 443 -230 452 -218 q 412 -242 433 -242 q 364 -221 387 -242 q 340 -168 340 -201 q 363 -114 340 -134 q 412 -94 385 -94 q 466 -116 444 -94 q 488 -179 488 -138 q 475 -241 488 -212 q 446 -290 463 -269 q 418 -322 430 -311 l 362 -384 z "},"L":{"ha":781,"x_min":143,"x_max":710,"o":"m 143 0 l 143 1000 l 288 1000 l 288 131 l 710 131 l 710 0 l 143 0 z "},"Ǉ":{"ha":781,"x_min":60,"x_max":725,"o":"m 544 -11 q 411 65 455 -11 q 368 281 367 140 l 480 281 q 496 150 480 193 q 543 106 512 106 q 594 152 577 106 q 611 288 611 197 l 611 1000 l 725 1000 l 725 291 q 679 67 725 145 q 544 -11 633 -11 m 60 0 l 60 1000 l 173 1000 l 173 117 l 336 117 l 336 0 l 60 0 z "},"Ĺ":{"ha":781,"x_min":143,"x_max":710,"o":"m 143 0 l 143 1000 l 288 1000 l 288 131 l 710 131 l 710 0 l 143 0 m 216 1052 l 155 1117 l 363 1315 l 433 1226 l 216 1052 z "},"Ľ":{"ha":781,"x_min":143,"x_max":714,"o":"m 143 0 l 143 1000 l 288 1000 l 288 131 l 710 131 l 710 0 l 143 0 m 600 685 l 603 1000 l 714 1000 l 699 685 l 600 685 z "},"Ļ":{"ha":781,"x_min":143,"x_max":710,"o":"m 143 0 l 143 1000 l 288 1000 l 288 131 l 710 131 l 710 0 l 143 0 m 393 -384 l 358 -344 l 412 -291 q 440 -260 428 -275 q 458 -232 452 -245 q 463 -207 464 -219 l 485 -205 q 473 -230 482 -218 q 443 -242 464 -242 q 394 -221 418 -242 q 371 -168 371 -201 q 393 -114 371 -134 q 443 -94 416 -94 q 496 -116 475 -94 q 518 -179 518 -138 q 506 -241 518 -212 q 477 -290 493 -269 q 449 -322 460 -311 l 393 -384 z "},"Ŀ":{"ha":781,"x_min":143,"x_max":715,"o":"m 143 0 l 143 1000 l 288 1000 l 288 131 l 710 131 l 710 0 l 143 0 m 607 412 q 531 443 562 412 q 499 520 499 474 q 530 596 499 566 q 607 627 561 627 q 684 596 652 627 q 715 520 715 566 q 684 443 715 474 q 607 412 652 412 z "},"Ḷ":{"ha":781,"x_min":143,"x_max":710,"o":"m 143 0 l 143 1000 l 288 1000 l 288 131 l 710 131 l 710 0 l 143 0 m 437 -283 q 368 -255 396 -283 q 340 -185 340 -227 q 368 -116 340 -144 q 437 -87 396 -87 q 507 -116 479 -87 q 535 -185 535 -144 q 507 -255 535 -227 q 437 -283 479 -283 z "},"ǈ":{"ha":781,"x_min":82,"x_max":704,"o":"m 475 -296 q 379 -278 429 -296 q 298 -237 329 -261 l 338 -132 q 401 -168 364 -154 q 469 -182 438 -182 q 538 -153 511 -182 q 566 -74 566 -123 l 566 721 l 675 721 l 675 -81 q 649 -193 675 -145 q 578 -269 623 -241 q 475 -296 532 -296 m 82 0 l 82 1000 l 198 1000 l 198 117 l 402 117 l 402 0 l 82 0 m 402 612 l 402 721 l 675 721 l 675 612 l 402 612 m 614 833 q 549 859 574 833 q 524 925 524 886 q 550 990 524 965 q 614 1016 576 1016 q 679 990 654 1016 q 704 924 704 964 q 679 859 704 886 q 614 833 654 833 z "},"Ḻ":{"ha":781,"x_min":143,"x_max":710,"o":"m 143 0 l 143 1000 l 288 1000 l 288 131 l 710 131 l 710 0 l 143 0 m 193 -273 l 193 -184 l 682 -184 l 682 -273 l 193 -273 z "},"Ł":{"ha":781,"x_min":12,"x_max":710,"o":"m 50 366 l 12 459 l 161 540 l 266 585 l 382 648 l 420 557 l 266 474 l 161 430 l 50 366 m 143 0 l 143 1000 l 288 1000 l 288 131 l 710 131 l 710 0 l 143 0 z "},"M":{"ha":781,"x_min":56,"x_max":725,"o":"m 56 0 l 56 1000 l 156 1000 l 388 556 l 393 556 l 625 1000 l 725 1000 l 725 0 l 589 0 l 589 483 l 591 680 l 586 680 l 412 344 l 369 344 l 195 680 l 190 680 l 193 483 l 193 0 l 56 0 z "},"Ṃ":{"ha":781,"x_min":56,"x_max":725,"o":"m 56 0 l 56 1000 l 156 1000 l 388 556 l 393 556 l 625 1000 l 725 1000 l 725 0 l 589 0 l 589 483 l 591 680 l 586 680 l 412 344 l 369 344 l 195 680 l 190 680 l 193 483 l 193 0 l 56 0 m 389 -283 q 320 -255 348 -283 q 292 -185 292 -227 q 320 -116 292 -144 q 389 -87 348 -87 q 459 -116 431 -87 q 487 -185 487 -144 q 459 -255 487 -227 q 389 -283 431 -283 z "},"N":{"ha":781,"x_min":77,"x_max":704,"o":"m 77 0 l 77 1000 l 180 1000 l 503 422 l 564 312 l 569 312 l 566 506 l 566 1000 l 704 1000 l 704 0 l 602 0 l 279 579 l 218 694 l 212 694 l 216 497 l 216 0 l 77 0 z "},"Ǌ":{"ha":781,"x_min":31,"x_max":756,"o":"m 31 0 l 31 1000 l 109 1000 l 255 492 l 281 394 l 284 394 l 277 499 l 277 1000 l 386 1000 l 386 0 l 308 0 l 161 511 l 136 610 l 134 610 l 139 506 l 139 0 l 31 0 m 593 -11 q 466 63 509 -11 q 423 275 422 137 l 532 275 q 547 149 532 190 q 592 107 562 107 q 635 153 625 107 q 646 284 646 198 l 646 1000 l 756 1000 l 756 287 q 718 66 756 144 q 593 -11 680 -11 z "},"Ń":{"ha":781,"x_min":77,"x_max":704,"o":"m 77 0 l 77 1000 l 180 1000 l 503 422 l 564 312 l 569 312 l 566 506 l 566 1000 l 704 1000 l 704 0 l 602 0 l 279 579 l 218 694 l 212 694 l 216 497 l 216 0 l 77 0 m 391 1052 l 329 1117 l 537 1315 l 607 1226 l 391 1052 z "},"Ň":{"ha":781,"x_min":77,"x_max":704,"o":"m 77 0 l 77 1000 l 180 1000 l 503 422 l 564 312 l 569 312 l 566 506 l 566 1000 l 704 1000 l 704 0 l 602 0 l 279 579 l 218 694 l 212 694 l 216 497 l 216 0 l 77 0 m 225 1275 l 388 1146 l 393 1146 l 557 1275 l 623 1204 l 408 1047 l 374 1047 l 159 1204 l 225 1275 z "},"Ņ":{"ha":781,"x_min":77,"x_max":704,"o":"m 77 0 l 77 1000 l 180 1000 l 503 422 l 564 312 l 569 312 l 566 506 l 566 1000 l 704 1000 l 704 0 l 602 0 l 279 579 l 218 694 l 212 694 l 216 497 l 216 0 l 77 0 m 345 -384 l 310 -344 l 364 -291 q 392 -260 380 -275 q 410 -232 404 -245 q 415 -207 416 -219 l 437 -205 q 425 -230 434 -218 q 395 -242 416 -242 q 346 -221 370 -242 q 323 -168 323 -201 q 345 -114 323 -134 q 395 -94 368 -94 q 448 -116 427 -94 q 470 -179 470 -138 q 457 -241 470 -212 q 429 -290 445 -269 q 401 -322 412 -311 l 345 -384 z "},"Ṅ":{"ha":781,"x_min":77,"x_max":704,"o":"m 77 0 l 77 1000 l 180 1000 l 503 422 l 564 312 l 569 312 l 566 506 l 566 1000 l 704 1000 l 704 0 l 602 0 l 279 579 l 218 694 l 212 694 l 216 497 l 216 0 l 77 0 m 391 1067 q 321 1096 349 1067 q 293 1165 293 1124 q 321 1235 293 1206 q 391 1263 349 1263 q 460 1235 432 1263 q 488 1165 488 1206 q 460 1096 488 1124 q 391 1067 432 1067 z "},"Ṇ":{"ha":781,"x_min":77,"x_max":704,"o":"m 77 0 l 77 1000 l 180 1000 l 503 422 l 564 312 l 569 312 l 566 506 l 566 1000 l 704 1000 l 704 0 l 602 0 l 279 579 l 218 694 l 212 694 l 216 497 l 216 0 l 77 0 m 389 -283 q 320 -255 348 -283 q 292 -185 292 -227 q 320 -116 292 -144 q 389 -87 348 -87 q 459 -116 431 -87 q 487 -185 487 -144 q 459 -255 487 -227 q 389 -283 431 -283 z "},"ǋ":{"ha":781,"x_min":64,"x_max":726,"o":"m 64 0 l 64 1000 l 153 1000 l 316 482 l 353 351 l 356 351 l 350 490 l 350 1000 l 463 1000 l 463 0 l 376 0 l 212 519 l 174 652 l 172 652 l 176 513 l 176 0 l 64 0 m 492 -296 q 398 -278 447 -296 q 317 -237 349 -261 l 357 -132 q 420 -169 384 -154 q 486 -183 456 -183 q 553 -153 527 -183 q 579 -74 579 -123 l 579 720 l 689 720 l 689 -81 q 663 -193 689 -145 q 593 -269 637 -241 q 492 -296 548 -296 m 637 838 q 573 864 599 838 q 548 929 548 890 q 574 995 548 969 q 637 1021 600 1021 q 701 995 675 1021 q 726 928 726 969 q 702 864 726 890 q 637 838 677 838 z "},"Ṉ":{"ha":781,"x_min":77,"x_max":704,"o":"m 77 0 l 77 1000 l 180 1000 l 503 422 l 564 312 l 569 312 l 566 506 l 566 1000 l 704 1000 l 704 0 l 602 0 l 279 579 l 218 694 l 212 694 l 216 497 l 216 0 l 77 0 m 144 -273 l 144 -184 l 634 -184 l 634 -273 l 144 -273 z "},"Ñ":{"ha":781,"x_min":77,"x_max":704,"o":"m 77 0 l 77 1000 l 180 1000 l 503 422 l 564 312 l 569 312 l 566 506 l 566 1000 l 704 1000 l 704 0 l 602 0 l 279 579 l 218 694 l 212 694 l 216 497 l 216 0 l 77 0 m 164 1076 q 200 1198 164 1151 q 298 1246 237 1246 q 358 1233 334 1246 q 400 1205 382 1221 q 433 1177 417 1189 q 469 1164 450 1164 q 511 1188 497 1164 q 526 1246 526 1213 l 616 1246 q 581 1125 618 1174 q 479 1076 544 1076 q 422 1088 446 1076 q 380 1117 399 1101 q 345 1145 362 1133 q 307 1158 328 1158 q 268 1135 281 1158 q 255 1076 255 1112 l 164 1076 z "},"Ŋ":{"ha":781,"x_min":77,"x_max":704,"o":"m 77 0 l 77 1000 l 180 1000 l 503 422 l 564 312 l 569 312 l 566 506 l 566 1000 l 704 1000 l 704 0 l 602 0 l 279 579 l 218 694 l 212 694 l 216 497 l 216 0 l 77 0 m 510 -300 q 458 -295 486 -300 q 416 -279 430 -289 l 416 -156 q 453 -172 433 -166 q 491 -178 474 -177 q 535 -162 518 -179 q 561 -118 553 -144 q 569 -63 569 -92 l 569 95 l 704 95 l 704 -54 q 682 -183 704 -127 q 617 -269 660 -238 q 510 -300 574 -300 z "},"O":{"ha":781,"x_min":44,"x_max":737,"o":"m 389 -11 q 204 51 281 -11 q 85 227 127 113 q 44 500 44 342 q 85 773 44 659 q 204 949 127 888 q 389 1010 281 1010 q 576 949 498 1010 q 695 773 654 888 q 737 500 737 659 q 695 227 737 342 q 576 51 654 113 q 389 -11 498 -11 m 389 121 q 503 166 456 121 q 573 296 549 212 q 596 500 597 381 q 571 705 595 620 q 500 834 546 789 q 389 879 454 879 q 279 833 325 879 q 209 702 233 787 q 185 500 185 617 q 209 298 185 384 q 279 167 233 213 q 389 121 325 121 z "},"Ó":{"ha":781,"x_min":44,"x_max":737,"o":"m 389 -11 q 204 51 281 -11 q 85 227 127 113 q 44 500 44 342 q 85 773 44 659 q 204 949 127 888 q 389 1010 281 1010 q 576 949 498 1010 q 695 773 654 888 q 737 500 737 659 q 695 227 737 342 q 576 51 654 113 q 389 -11 498 -11 m 389 121 q 503 166 456 121 q 573 296 549 212 q 596 500 597 381 q 571 705 595 620 q 500 834 546 789 q 389 879 454 879 q 279 833 325 879 q 209 702 233 787 q 185 500 185 617 q 209 298 185 384 q 279 167 233 213 q 389 121 325 121 m 390 1052 l 328 1117 l 536 1315 l 606 1226 l 390 1052 z "},"Ŏ":{"ha":781,"x_min":44,"x_max":737,"o":"m 389 -11 q 204 51 281 -11 q 85 227 127 113 q 44 500 44 342 q 85 773 44 659 q 204 949 127 888 q 389 1010 281 1010 q 576 949 498 1010 q 695 773 654 888 q 737 500 737 659 q 695 227 737 342 q 576 51 654 113 q 389 -11 498 -11 m 389 121 q 503 166 456 121 q 573 296 549 212 q 596 500 597 381 q 571 705 595 620 q 500 834 546 789 q 389 879 454 879 q 279 833 325 879 q 209 702 233 787 q 185 500 185 617 q 209 298 185 384 q 279 167 233 213 q 389 121 325 121 m 390 1059 q 278 1082 330 1059 q 196 1149 227 1106 q 165 1253 165 1193 l 254 1253 q 295 1171 254 1199 q 390 1143 335 1143 q 487 1171 446 1143 q 527 1253 527 1199 l 616 1253 q 587 1149 617 1193 q 505 1082 557 1106 q 390 1059 452 1059 z "},"Ô":{"ha":781,"x_min":44,"x_max":737,"o":"m 389 -11 q 204 51 281 -11 q 85 227 127 113 q 44 500 44 342 q 85 773 44 659 q 204 949 127 888 q 389 1010 281 1010 q 576 949 498 1010 q 695 773 654 888 q 737 500 737 659 q 695 227 737 342 q 576 51 654 113 q 389 -11 498 -11 m 389 121 q 503 166 456 121 q 573 296 549 212 q 596 500 597 381 q 571 705 595 620 q 500 834 546 789 q 389 879 454 879 q 279 833 325 879 q 209 702 233 787 q 185 500 185 617 q 209 298 185 384 q 279 167 233 213 q 389 121 325 121 m 227 1052 l 160 1124 l 376 1280 l 410 1280 l 624 1124 l 558 1052 l 395 1181 l 389 1181 l 227 1052 z "},"Ố":{"ha":781,"x_min":44,"x_max":788,"o":"m 389 -11 q 204 51 281 -11 q 85 227 127 113 q 44 500 44 342 q 85 773 44 659 q 204 949 127 888 q 389 1010 281 1010 q 576 949 498 1010 q 695 773 654 888 q 737 500 737 659 q 695 227 737 342 q 576 51 654 113 q 389 -11 498 -11 m 389 121 q 503 166 456 121 q 573 296 549 212 q 596 500 597 381 q 571 705 595 620 q 500 834 546 789 q 389 879 454 879 q 279 833 325 879 q 209 702 233 787 q 185 500 185 617 q 209 298 185 384 q 279 167 233 213 q 389 121 325 121 m 587 1211 l 522 1259 l 718 1463 l 789 1373 l 587 1211 m 224 1044 l 158 1113 l 374 1271 l 408 1271 l 622 1113 l 556 1044 l 393 1171 l 387 1171 l 224 1044 z "},"Ộ":{"ha":781,"x_min":44,"x_max":737,"o":"m 389 -11 q 204 51 281 -11 q 85 227 127 113 q 44 500 44 342 q 85 773 44 659 q 204 949 127 888 q 389 1010 281 1010 q 576 949 498 1010 q 695 773 654 888 q 737 500 737 659 q 695 227 737 342 q 576 51 654 113 q 389 -11 498 -11 m 389 121 q 503 166 456 121 q 573 296 549 212 q 596 500 597 381 q 571 705 595 620 q 500 834 546 789 q 389 879 454 879 q 279 833 325 879 q 209 702 233 787 q 185 500 185 617 q 209 298 185 384 q 279 167 233 213 q 389 121 325 121 m 389 -283 q 319 -255 347 -283 q 291 -185 291 -227 q 319 -116 291 -144 q 389 -87 347 -87 q 458 -116 430 -87 q 486 -185 486 -144 q 458 -255 486 -227 q 389 -283 430 -283 m 227 1052 l 160 1124 l 376 1280 l 410 1280 l 624 1124 l 558 1052 l 395 1181 l 389 1181 l 227 1052 z "},"Ồ":{"ha":781,"x_min":-9,"x_max":737,"o":"m 389 -11 q 204 51 281 -11 q 85 227 127 113 q 44 500 44 342 q 85 773 44 659 q 204 949 127 888 q 389 1010 281 1010 q 576 949 498 1010 q 695 773 654 888 q 737 500 737 659 q 695 227 737 342 q 576 51 654 113 q 389 -11 498 -11 m 389 121 q 503 166 456 121 q 573 296 549 212 q 596 500 597 381 q 571 705 595 620 q 500 834 546 789 q 389 879 454 879 q 279 833 325 879 q 209 702 233 787 q 185 500 185 617 q 209 298 185 384 q 279 167 233 213 q 389 121 325 121 m 193 1210 l -9 1373 l 62 1463 l 258 1259 l 193 1210 m 555 1044 l 392 1171 l 387 1171 l 224 1044 l 158 1112 l 372 1271 l 406 1271 l 622 1112 l 555 1044 z "},"Ổ":{"ha":781,"x_min":44,"x_max":737,"o":"m 389 -11 q 204 51 281 -11 q 85 227 127 113 q 44 500 44 342 q 85 773 44 659 q 204 949 127 888 q 389 1010 281 1010 q 576 949 498 1010 q 695 773 654 888 q 737 500 737 659 q 695 227 737 342 q 576 51 654 113 q 389 -11 498 -11 m 389 121 q 503 166 456 121 q 573 296 549 212 q 596 500 597 381 q 571 705 595 620 q 500 834 546 789 q 389 879 454 879 q 279 833 325 879 q 209 702 233 787 q 185 500 185 617 q 209 298 185 384 q 279 167 233 213 q 389 121 325 121 m 572 1208 l 515 1251 q 551 1288 537 1268 q 565 1326 565 1308 q 548 1363 565 1350 q 498 1377 530 1377 q 463 1373 481 1377 q 427 1362 444 1370 l 427 1451 q 468 1461 441 1458 q 516 1465 494 1465 q 616 1435 577 1465 q 654 1345 654 1406 q 641 1288 654 1315 q 609 1241 628 1261 q 572 1208 589 1221 m 224 1044 l 157 1113 l 372 1271 l 406 1271 l 621 1113 l 555 1044 l 391 1171 l 387 1171 l 224 1044 z "},"Ỗ":{"ha":781,"x_min":44,"x_max":737,"o":"m 389 -11 q 204 51 281 -11 q 85 227 127 113 q 44 500 44 342 q 85 773 44 659 q 204 949 127 888 q 389 1010 281 1010 q 576 949 498 1010 q 695 773 654 888 q 737 500 737 659 q 695 227 737 342 q 576 51 654 113 q 389 -11 498 -11 m 389 121 q 503 166 456 121 q 573 296 549 212 q 596 500 597 381 q 571 705 595 620 q 500 834 546 789 q 389 879 454 879 q 279 833 325 879 q 209 702 233 787 q 185 500 185 617 q 209 298 185 384 q 279 167 233 213 q 389 121 325 121 m 161 1298 q 197 1421 160 1375 q 298 1468 235 1468 q 356 1456 332 1468 q 397 1429 379 1444 q 431 1402 414 1413 q 469 1390 448 1390 q 508 1411 494 1390 q 522 1468 522 1431 l 614 1468 q 601 1381 616 1419 q 557 1320 586 1343 q 486 1298 528 1298 q 429 1310 452 1298 q 387 1339 405 1322 q 353 1367 370 1355 q 315 1379 336 1379 q 271 1359 288 1379 q 252 1298 253 1339 l 161 1298 m 222 1044 l 155 1113 l 371 1271 l 405 1271 l 619 1113 l 553 1044 l 390 1171 l 385 1171 l 222 1044 z "},"Ȍ":{"ha":781,"x_min":44,"x_max":737,"o":"m 389 -11 q 204 51 281 -11 q 85 227 127 113 q 44 500 44 342 q 85 773 44 659 q 204 949 127 888 q 389 1010 281 1010 q 576 949 498 1010 q 695 773 654 888 q 737 500 737 659 q 695 227 737 342 q 576 51 654 113 q 389 -11 498 -11 m 389 121 q 503 166 456 121 q 573 296 549 212 q 596 500 597 381 q 571 705 595 620 q 500 834 546 789 q 389 879 454 879 q 279 833 325 879 q 209 702 233 787 q 185 500 185 617 q 209 298 185 384 q 279 167 233 213 q 389 121 325 121 m 238 1072 l 82 1289 l 181 1343 l 310 1107 l 238 1072 m 467 1072 l 318 1289 l 415 1343 l 543 1107 l 467 1072 z "},"Ö":{"ha":781,"x_min":44,"x_max":737,"o":"m 389 -11 q 204 51 281 -11 q 85 227 127 113 q 44 500 44 342 q 85 773 44 659 q 204 949 127 888 q 389 1010 281 1010 q 576 949 498 1010 q 695 773 654 888 q 737 500 737 659 q 695 227 737 342 q 576 51 654 113 q 389 -11 498 -11 m 389 121 q 503 166 456 121 q 573 296 549 212 q 596 500 597 381 q 571 705 595 620 q 500 834 546 789 q 389 879 454 879 q 279 833 325 879 q 209 702 233 787 q 185 500 185 617 q 209 298 185 384 q 279 167 233 213 q 389 121 325 121 m 541 1067 q 475 1093 502 1067 q 449 1158 448 1120 q 475 1224 448 1198 q 541 1251 502 1251 q 606 1224 580 1251 q 633 1158 632 1198 q 606 1093 632 1120 q 541 1067 580 1067 m 243 1067 q 178 1093 205 1067 q 151 1158 151 1120 q 178 1224 151 1198 q 243 1251 205 1251 q 309 1224 283 1251 q 334 1158 334 1198 q 309 1093 334 1120 q 243 1067 283 1067 z "},"Ȫ":{"ha":781,"x_min":44,"x_max":737,"o":"m 389 -11 q 204 51 281 -11 q 85 227 127 113 q 44 500 44 342 q 85 773 44 659 q 204 949 127 888 q 389 1010 281 1010 q 576 949 498 1010 q 695 773 654 888 q 737 500 737 659 q 695 227 737 342 q 576 51 654 113 q 389 -11 498 -11 m 389 121 q 503 166 456 121 q 573 296 549 212 q 596 500 597 381 q 571 705 595 620 q 500 834 546 789 q 389 879 454 879 q 279 833 325 879 q 209 702 233 787 q 185 500 185 617 q 209 298 185 384 q 279 167 233 213 q 389 121 325 121 m 541 1067 q 475 1093 502 1067 q 449 1158 448 1120 q 475 1224 448 1198 q 541 1251 502 1251 q 606 1224 580 1251 q 633 1158 632 1198 q 606 1093 632 1120 q 541 1067 580 1067 m 243 1067 q 178 1093 205 1067 q 151 1158 151 1120 q 178 1224 151 1198 q 243 1251 205 1251 q 309 1224 283 1251 q 334 1158 334 1198 q 309 1093 334 1120 q 243 1067 283 1067 m 141 1311 l 141 1410 l 637 1410 l 637 1311 l 141 1311 z "},"Ȱ":{"ha":781,"x_min":44,"x_max":737,"o":"m 389 -11 q 204 51 281 -11 q 85 227 127 113 q 44 500 44 342 q 85 773 44 659 q 204 949 127 888 q 389 1010 281 1010 q 576 949 498 1010 q 695 773 654 888 q 737 500 737 659 q 695 227 737 342 q 576 51 654 113 q 389 -11 498 -11 m 389 121 q 503 166 456 121 q 573 296 549 212 q 596 500 597 381 q 571 705 595 620 q 500 834 546 789 q 389 879 454 879 q 279 833 325 879 q 209 702 233 787 q 185 500 185 617 q 209 298 185 384 q 279 167 233 213 q 389 121 325 121 m 389 1067 q 320 1096 348 1067 q 292 1165 292 1124 q 320 1235 292 1206 q 389 1263 348 1263 q 459 1235 431 1263 q 487 1165 487 1206 q 459 1096 487 1124 q 389 1067 431 1067 m 141 1322 l 141 1421 l 637 1421 l 637 1322 l 141 1322 z "},"Ọ":{"ha":781,"x_min":44,"x_max":737,"o":"m 389 -11 q 204 51 281 -11 q 85 227 127 113 q 44 500 44 342 q 85 773 44 659 q 204 949 127 888 q 389 1010 281 1010 q 576 949 498 1010 q 695 773 654 888 q 737 500 737 659 q 695 227 737 342 q 576 51 654 113 q 389 -11 498 -11 m 389 121 q 503 166 456 121 q 573 296 549 212 q 596 500 597 381 q 571 705 595 620 q 500 834 546 789 q 389 879 454 879 q 279 833 325 879 q 209 702 233 787 q 185 500 185 617 q 209 298 185 384 q 279 167 233 213 q 389 121 325 121 m 390 -283 q 320 -255 349 -283 q 292 -185 292 -227 q 320 -116 292 -144 q 390 -87 349 -87 q 459 -116 431 -87 q 488 -185 488 -144 q 459 -255 488 -227 q 390 -283 431 -283 z "},"Ò":{"ha":781,"x_min":44,"x_max":737,"o":"m 389 -11 q 204 51 281 -11 q 85 227 127 113 q 44 500 44 342 q 85 773 44 659 q 204 949 127 888 q 389 1010 281 1010 q 576 949 498 1010 q 695 773 654 888 q 737 500 737 659 q 695 227 737 342 q 576 51 654 113 q 389 -11 498 -11 m 389 121 q 503 166 456 121 q 573 296 549 212 q 596 500 597 381 q 571 705 595 620 q 500 834 546 789 q 389 879 454 879 q 279 833 325 879 q 209 702 233 787 q 185 500 185 617 q 209 298 185 384 q 279 167 233 213 q 389 121 325 121 m 390 1052 l 174 1226 l 243 1315 l 452 1117 l 390 1052 z "},"Ỏ":{"ha":781,"x_min":44,"x_max":737,"o":"m 389 -11 q 204 51 281 -11 q 85 227 127 113 q 44 500 44 342 q 85 773 44 659 q 204 949 127 888 q 389 1010 281 1010 q 576 949 498 1010 q 695 773 654 888 q 737 500 737 659 q 695 227 737 342 q 576 51 654 113 q 389 -11 498 -11 m 389 121 q 503 166 456 121 q 573 296 549 212 q 596 500 597 381 q 571 705 595 620 q 500 834 546 789 q 389 879 454 879 q 279 833 325 879 q 209 702 233 787 q 185 500 185 617 q 209 298 185 384 q 279 167 233 213 q 389 121 325 121 m 410 1073 l 356 1128 q 396 1161 379 1142 q 412 1203 412 1181 q 395 1239 412 1226 q 347 1251 378 1251 q 311 1248 332 1251 q 274 1238 290 1244 l 274 1325 q 315 1336 289 1332 q 359 1339 341 1339 q 463 1309 425 1339 q 500 1221 500 1278 q 473 1131 500 1171 q 410 1073 446 1090 z "},"Ơ":{"ha":781,"x_min":44,"x_max":782,"o":"m 389 -11 q 204 51 281 -11 q 85 227 127 113 q 44 500 44 342 q 85 773 44 659 q 204 949 127 888 q 389 1010 281 1010 q 576 949 498 1010 q 695 773 654 888 q 737 500 737 659 q 695 227 737 342 q 576 51 654 113 q 389 -11 498 -11 m 389 121 q 503 166 456 121 q 573 296 549 212 q 596 500 597 381 q 571 705 595 620 q 500 834 546 789 q 389 879 454 879 q 279 833 325 879 q 209 702 233 787 q 185 500 185 617 q 209 298 185 384 q 279 167 233 213 q 389 121 325 121 m 534 872 l 531 964 q 637 1001 602 966 q 672 1103 672 1036 q 671 1135 672 1115 q 666 1171 669 1156 l 770 1190 q 780 1143 777 1170 q 783 1098 783 1116 q 747 974 783 1025 q 654 896 711 922 q 534 872 597 869 z "},"Ớ":{"ha":781,"x_min":44,"x_max":782,"o":"m 389 -11 q 204 51 281 -11 q 85 227 127 113 q 44 500 44 342 q 85 773 44 659 q 204 949 127 888 q 389 1010 281 1010 q 576 949 498 1010 q 695 773 654 888 q 737 500 737 659 q 695 227 737 342 q 576 51 654 113 q 389 -11 498 -11 m 389 121 q 503 166 456 121 q 573 296 549 212 q 596 500 597 381 q 571 705 595 620 q 500 834 546 789 q 389 879 454 879 q 279 833 325 879 q 209 702 233 787 q 185 500 185 617 q 209 298 185 384 q 279 167 233 213 q 389 121 325 121 m 534 872 l 531 964 q 637 1001 602 966 q 672 1103 672 1036 q 671 1135 672 1115 q 666 1171 669 1156 l 770 1190 q 780 1143 777 1170 q 783 1098 783 1116 q 747 974 783 1025 q 654 896 711 922 q 534 872 597 869 m 390 1052 l 328 1117 l 536 1315 l 606 1226 l 390 1052 z "},"Ợ":{"ha":781,"x_min":44,"x_max":782,"o":"m 389 -11 q 204 51 281 -11 q 85 227 127 113 q 44 500 44 342 q 85 773 44 659 q 204 949 127 888 q 389 1010 281 1010 q 576 949 498 1010 q 695 773 654 888 q 737 500 737 659 q 695 227 737 342 q 576 51 654 113 q 389 -11 498 -11 m 389 121 q 503 166 456 121 q 573 296 549 212 q 596 500 597 381 q 571 705 595 620 q 500 834 546 789 q 389 879 454 879 q 279 833 325 879 q 209 702 233 787 q 185 500 185 617 q 209 298 185 384 q 279 167 233 213 q 389 121 325 121 m 534 872 l 531 964 q 637 1001 602 966 q 672 1103 672 1036 q 671 1135 672 1115 q 666 1171 669 1156 l 770 1190 q 780 1143 777 1170 q 783 1098 783 1116 q 747 974 783 1025 q 654 896 711 922 q 534 872 597 869 m 389 -283 q 319 -255 347 -283 q 291 -185 291 -227 q 319 -116 291 -144 q 389 -87 347 -87 q 458 -116 430 -87 q 486 -185 486 -144 q 458 -255 486 -227 q 389 -283 430 -283 z "},"Ờ":{"ha":781,"x_min":44,"x_max":782,"o":"m 389 -11 q 204 51 281 -11 q 85 227 127 113 q 44 500 44 342 q 85 773 44 659 q 204 949 127 888 q 389 1010 281 1010 q 576 949 498 1010 q 695 773 654 888 q 737 500 737 659 q 695 227 737 342 q 576 51 654 113 q 389 -11 498 -11 m 389 121 q 503 166 456 121 q 573 296 549 212 q 596 500 597 381 q 571 705 595 620 q 500 834 546 789 q 389 879 454 879 q 279 833 325 879 q 209 702 233 787 q 185 500 185 617 q 209 298 185 384 q 279 167 233 213 q 389 121 325 121 m 534 872 l 531 964 q 637 1001 602 966 q 672 1103 672 1036 q 671 1135 672 1115 q 666 1171 669 1156 l 770 1190 q 780 1143 777 1170 q 783 1098 783 1116 q 747 974 783 1025 q 654 896 711 922 q 534 872 597 869 m 390 1052 l 174 1226 l 243 1315 l 452 1117 l 390 1052 z "},"Ở":{"ha":781,"x_min":44,"x_max":782,"o":"m 389 -11 q 204 51 281 -11 q 85 227 127 113 q 44 500 44 342 q 85 773 44 659 q 204 949 127 888 q 389 1010 281 1010 q 576 949 498 1010 q 695 773 654 888 q 737 500 737 659 q 695 227 737 342 q 576 51 654 113 q 389 -11 498 -11 m 389 121 q 503 166 456 121 q 573 296 549 212 q 596 500 597 381 q 571 705 595 620 q 500 834 546 789 q 389 879 454 879 q 279 833 325 879 q 209 702 233 787 q 185 500 185 617 q 209 298 185 384 q 279 167 233 213 q 389 121 325 121 m 534 872 l 531 964 q 637 1001 602 966 q 672 1103 672 1036 q 671 1135 672 1115 q 666 1171 669 1156 l 770 1190 q 780 1143 777 1170 q 783 1098 783 1116 q 747 974 783 1025 q 654 896 711 922 q 534 872 597 869 m 410 1073 l 356 1128 q 396 1161 379 1142 q 412 1203 412 1181 q 395 1239 412 1226 q 347 1251 378 1251 q 311 1248 332 1251 q 274 1238 290 1244 l 274 1325 q 315 1336 289 1332 q 359 1339 341 1339 q 463 1309 425 1339 q 500 1221 500 1278 q 473 1131 500 1171 q 410 1073 446 1090 z "},"Ỡ":{"ha":781,"x_min":44,"x_max":782,"o":"m 389 -11 q 204 51 281 -11 q 85 227 127 113 q 44 500 44 342 q 85 773 44 659 q 204 949 127 888 q 389 1010 281 1010 q 576 949 498 1010 q 695 773 654 888 q 737 500 737 659 q 695 227 737 342 q 576 51 654 113 q 389 -11 498 -11 m 389 121 q 503 166 456 121 q 573 296 549 212 q 596 500 597 381 q 571 705 595 620 q 500 834 546 789 q 389 879 454 879 q 279 833 325 879 q 209 702 233 787 q 185 500 185 617 q 209 298 185 384 q 279 167 233 213 q 389 121 325 121 m 534 872 l 531 964 q 637 1001 602 966 q 672 1103 672 1036 q 671 1135 672 1115 q 666 1171 669 1156 l 770 1190 q 780 1143 777 1170 q 783 1098 783 1116 q 747 974 783 1025 q 654 896 711 922 q 534 872 597 869 m 163 1076 q 200 1198 163 1151 q 298 1246 236 1246 q 358 1233 334 1246 q 399 1205 382 1221 q 433 1177 416 1189 q 469 1164 449 1164 q 511 1188 496 1164 q 525 1246 525 1213 l 616 1246 q 580 1125 617 1174 q 479 1076 543 1076 q 421 1088 445 1076 q 380 1117 398 1101 q 345 1145 361 1133 q 307 1158 328 1158 q 268 1135 281 1158 q 254 1076 254 1112 l 163 1076 z "},"Ő":{"ha":781,"x_min":44,"x_max":737,"o":"m 389 -11 q 204 51 281 -11 q 85 227 127 113 q 44 500 44 342 q 85 773 44 659 q 204 949 127 888 q 389 1010 281 1010 q 576 949 498 1010 q 695 773 654 888 q 737 500 737 659 q 695 227 737 342 q 576 51 654 113 q 389 -11 498 -11 m 389 121 q 503 166 456 121 q 573 296 549 212 q 596 500 597 381 q 571 705 595 620 q 500 834 546 789 q 389 879 454 879 q 279 833 325 879 q 209 702 233 787 q 185 500 185 617 q 209 298 185 384 q 279 167 233 213 q 389 121 325 121 m 309 1072 l 233 1107 l 368 1343 l 461 1289 l 309 1072 m 541 1072 l 469 1107 l 597 1343 l 694 1289 l 541 1072 z "},"Ȏ":{"ha":781,"x_min":44,"x_max":737,"o":"m 389 -11 q 204 51 281 -11 q 85 227 127 113 q 44 500 44 342 q 85 773 44 659 q 204 949 127 888 q 389 1010 281 1010 q 576 949 498 1010 q 695 773 654 888 q 737 500 737 659 q 695 227 737 342 q 576 51 654 113 q 389 -11 498 -11 m 389 121 q 503 166 456 121 q 573 296 549 212 q 596 500 597 381 q 571 705 595 620 q 500 834 546 789 q 389 879 454 879 q 279 833 325 879 q 209 702 233 787 q 185 500 185 617 q 209 298 185 384 q 279 167 233 213 q 389 121 325 121 m 389 1258 q 503 1235 451 1258 q 586 1167 555 1211 q 614 1063 616 1124 l 526 1063 q 485 1146 526 1118 q 389 1173 445 1173 q 293 1146 334 1173 q 252 1063 253 1118 l 164 1063 q 195 1167 164 1124 q 277 1235 226 1211 q 389 1258 328 1258 z "},"Ō":{"ha":781,"x_min":44,"x_max":737,"o":"m 389 -11 q 204 51 281 -11 q 85 227 127 113 q 44 500 44 342 q 85 773 44 659 q 204 949 127 888 q 389 1010 281 1010 q 576 949 498 1010 q 695 773 654 888 q 737 500 737 659 q 695 227 737 342 q 576 51 654 113 q 389 -11 498 -11 m 389 121 q 503 166 456 121 q 573 296 549 212 q 596 500 597 381 q 571 705 595 620 q 500 834 546 789 q 389 879 454 879 q 279 833 325 879 q 209 702 233 787 q 185 500 185 617 q 209 298 185 384 q 279 167 233 213 q 389 121 325 121 m 141 1108 l 141 1207 l 637 1207 l 637 1108 l 141 1108 z "},"Ṓ":{"ha":781,"x_min":44,"x_max":737,"o":"m 142 1108 l 142 1207 l 637 1207 l 637 1108 l 142 1108 m 390 1259 l 328 1324 l 536 1522 l 606 1434 l 390 1259 m 389 -11 q 204 51 281 -11 q 85 227 127 113 q 44 500 44 342 q 85 773 44 659 q 204 949 127 888 q 389 1010 281 1010 q 576 949 498 1010 q 695 773 654 888 q 737 500 737 659 q 695 227 737 342 q 576 51 654 113 q 389 -11 498 -11 m 389 121 q 503 166 456 121 q 573 296 549 212 q 596 500 597 381 q 571 705 595 620 q 500 834 546 789 q 389 879 454 879 q 279 833 325 879 q 209 702 233 787 q 185 500 185 617 q 209 298 185 384 q 279 167 233 213 q 389 121 325 121 z "},"Ṑ":{"ha":781,"x_min":44,"x_max":737,"o":"m 389 -11 q 204 51 281 -11 q 85 227 127 113 q 44 500 44 342 q 85 773 44 659 q 204 949 127 888 q 389 1010 281 1010 q 576 949 498 1010 q 695 773 654 888 q 737 500 737 659 q 695 227 737 342 q 576 51 654 113 q 389 -11 498 -11 m 389 121 q 503 166 456 121 q 573 296 549 212 q 596 500 597 381 q 571 705 595 620 q 500 834 546 789 q 389 879 454 879 q 279 833 325 879 q 209 702 233 787 q 185 500 185 617 q 209 298 185 384 q 279 167 233 213 q 389 121 325 121 m 141 1108 l 141 1207 l 637 1207 l 637 1108 l 141 1108 m 390 1259 l 174 1434 l 243 1522 l 452 1324 l 390 1259 z "},"Ǫ":{"ha":781,"x_min":44,"x_max":737,"o":"m 389 -11 q 204 51 281 -11 q 85 227 127 113 q 44 500 44 342 q 85 773 44 659 q 204 949 127 888 q 389 1010 281 1010 q 576 949 498 1010 q 695 773 654 888 q 737 500 737 659 q 695 227 737 342 q 576 51 654 113 q 389 -11 498 -11 m 389 121 q 503 166 456 121 q 573 296 549 212 q 596 500 597 381 q 571 705 595 620 q 500 834 546 789 q 389 879 454 879 q 279 833 325 879 q 209 702 233 787 q 185 500 185 617 q 209 298 185 384 q 279 167 233 213 q 389 121 325 121 m 374 -281 q 284 -248 319 -281 q 249 -160 249 -214 q 286 -63 249 -106 q 384 26 323 -20 l 458 0 q 402 -49 429 -26 q 357 -96 375 -72 q 340 -146 340 -119 q 356 -183 340 -170 q 398 -197 372 -197 q 440 -189 418 -197 q 473 -173 462 -181 l 473 -257 q 427 -275 456 -268 q 374 -281 397 -281 z "},"Ø":{"ha":781,"x_min":9,"x_max":772,"o":"m 389 -11 q 204 51 281 -11 q 85 227 127 113 q 44 500 44 342 q 85 773 44 659 q 204 949 127 888 q 389 1010 281 1010 q 576 949 498 1010 q 695 773 654 888 q 737 500 737 659 q 695 227 737 342 q 576 51 654 113 q 389 -11 498 -11 m 389 121 q 503 166 456 121 q 573 296 549 212 q 596 500 597 381 q 571 705 595 620 q 500 834 546 789 q 389 879 454 879 q 279 833 325 879 q 209 702 233 787 q 185 500 185 617 q 209 298 185 384 q 279 167 233 213 q 389 121 325 121 m 9 0 l 644 1000 l 772 1000 l 138 0 l 9 0 z "},"Ǿ":{"ha":781,"x_min":9,"x_max":772,"o":"m 389 -11 q 204 51 281 -11 q 85 227 127 113 q 44 500 44 342 q 85 773 44 659 q 204 949 127 888 q 389 1010 281 1010 q 576 949 498 1010 q 695 773 654 888 q 737 500 737 659 q 695 227 737 342 q 576 51 654 113 q 389 -11 498 -11 m 389 121 q 503 166 456 121 q 573 296 549 212 q 596 500 597 381 q 571 705 595 620 q 500 834 546 789 q 389 879 454 879 q 279 833 325 879 q 209 702 233 787 q 185 500 185 617 q 209 298 185 384 q 279 167 233 213 q 389 121 325 121 m 9 0 l 644 1000 l 772 1000 l 138 0 l 9 0 m 390 1052 l 328 1117 l 536 1315 l 606 1226 l 390 1052 z "},"Õ":{"ha":781,"x_min":44,"x_max":737,"o":"m 389 -11 q 204 51 281 -11 q 85 227 127 113 q 44 500 44 342 q 85 773 44 659 q 204 949 127 888 q 389 1010 281 1010 q 576 949 498 1010 q 695 773 654 888 q 737 500 737 659 q 695 227 737 342 q 576 51 654 113 q 389 -11 498 -11 m 389 121 q 503 166 456 121 q 573 296 549 212 q 596 500 597 381 q 571 705 595 620 q 500 834 546 789 q 389 879 454 879 q 279 833 325 879 q 209 702 233 787 q 185 500 185 617 q 209 298 185 384 q 279 167 233 213 q 389 121 325 121 m 163 1076 q 200 1198 163 1151 q 298 1246 236 1246 q 358 1233 334 1246 q 399 1205 382 1221 q 433 1177 416 1189 q 469 1164 449 1164 q 511 1188 496 1164 q 525 1246 525 1213 l 616 1246 q 580 1125 617 1174 q 479 1076 543 1076 q 421 1088 445 1076 q 380 1117 398 1101 q 345 1145 361 1133 q 307 1158 328 1158 q 268 1135 281 1158 q 254 1076 254 1112 l 163 1076 z "},"Ṍ":{"ha":781,"x_min":44,"x_max":737,"o":"m 389 -11 q 204 51 281 -11 q 85 227 127 113 q 44 500 44 342 q 85 773 44 659 q 204 949 127 888 q 389 1010 281 1010 q 576 949 498 1010 q 695 773 654 888 q 737 500 737 659 q 695 227 737 342 q 576 51 654 113 q 389 -11 498 -11 m 389 121 q 503 166 456 121 q 573 296 549 212 q 596 500 597 381 q 571 705 595 620 q 500 834 546 789 q 389 879 454 879 q 279 833 325 879 q 209 702 233 787 q 185 500 185 617 q 209 298 185 384 q 279 167 233 213 q 389 121 325 121 m 163 1076 q 200 1198 163 1151 q 298 1246 236 1246 q 358 1233 334 1246 q 399 1205 382 1221 q 433 1177 416 1189 q 469 1164 449 1164 q 511 1188 496 1164 q 525 1246 525 1213 l 616 1246 q 580 1125 617 1174 q 479 1076 543 1076 q 421 1088 445 1076 q 380 1117 398 1101 q 345 1145 361 1133 q 307 1158 328 1158 q 268 1135 281 1158 q 254 1076 254 1112 l 163 1076 m 390 1284 l 328 1349 l 536 1547 l 606 1458 l 390 1284 z "},"Ṏ":{"ha":781,"x_min":44,"x_max":737,"o":"m 389 -11 q 204 51 281 -11 q 85 227 127 113 q 44 500 44 342 q 85 773 44 659 q 204 949 127 888 q 389 1010 281 1010 q 576 949 498 1010 q 695 773 654 888 q 737 500 737 659 q 695 227 737 342 q 576 51 654 113 q 389 -11 498 -11 m 389 121 q 503 166 456 121 q 573 296 549 212 q 596 500 597 381 q 571 705 595 620 q 500 834 546 789 q 389 879 454 879 q 279 833 325 879 q 209 702 233 787 q 185 500 185 617 q 209 298 185 384 q 279 167 233 213 q 389 121 325 121 m 163 1076 q 200 1198 163 1151 q 298 1246 236 1246 q 358 1233 334 1246 q 399 1205 382 1221 q 433 1177 416 1189 q 469 1164 449 1164 q 511 1188 496 1164 q 525 1246 525 1213 l 616 1246 q 580 1125 617 1174 q 479 1076 543 1076 q 421 1088 445 1076 q 380 1117 398 1101 q 345 1145 361 1133 q 307 1158 328 1158 q 268 1135 281 1158 q 254 1076 254 1112 l 163 1076 m 541 1299 q 475 1325 502 1299 q 449 1390 448 1352 q 475 1456 448 1430 q 541 1482 502 1482 q 606 1456 580 1482 q 633 1390 632 1430 q 606 1325 632 1352 q 541 1299 580 1299 m 243 1299 q 178 1325 205 1299 q 151 1390 151 1352 q 178 1456 151 1430 q 243 1482 205 1482 q 309 1456 283 1482 q 334 1390 334 1430 q 309 1325 334 1352 q 243 1299 283 1299 z "},"Ȭ":{"ha":781,"x_min":44,"x_max":737,"o":"m 389 -11 q 204 51 281 -11 q 85 227 127 113 q 44 500 44 342 q 85 773 44 659 q 204 949 127 888 q 389 1010 281 1010 q 576 949 498 1010 q 695 773 654 888 q 737 500 737 659 q 695 227 737 342 q 576 51 654 113 q 389 -11 498 -11 m 389 121 q 503 166 456 121 q 573 296 549 212 q 596 500 597 381 q 571 705 595 620 q 500 834 546 789 q 389 879 454 879 q 279 833 325 879 q 209 702 233 787 q 185 500 185 617 q 209 298 185 384 q 279 167 233 213 q 389 121 325 121 m 163 1076 q 200 1198 163 1151 q 298 1246 236 1246 q 358 1233 334 1246 q 399 1205 382 1221 q 433 1177 416 1189 q 469 1164 449 1164 q 511 1188 496 1164 q 525 1246 525 1213 l 616 1246 q 580 1125 617 1174 q 479 1076 543 1076 q 421 1088 445 1076 q 380 1117 398 1101 q 345 1145 361 1133 q 307 1158 328 1158 q 268 1135 281 1158 q 254 1076 254 1112 l 163 1076 m 141 1340 l 141 1439 l 637 1439 l 637 1340 l 141 1340 z "},"Œ":{"ha":781,"x_min":32,"x_max":758,"o":"m 278 -11 q 150 50 205 -11 q 63 225 95 111 q 32 500 32 340 q 63 774 32 660 q 150 949 94 888 q 278 1010 205 1010 q 373 977 334 1010 q 433 891 411 943 q 462 784 454 840 l 437 784 l 437 1000 l 758 1000 l 758 869 l 551 869 l 551 572 l 736 572 l 736 444 l 551 444 l 551 131 l 758 131 l 758 0 l 437 0 l 437 219 l 462 219 q 432 110 454 162 q 372 23 410 57 q 278 -11 334 -11 m 292 117 q 394 218 355 117 q 433 500 433 319 q 394 781 433 680 q 294 882 356 882 q 199 781 231 882 q 167 500 167 680 q 198 220 167 323 q 292 117 230 117 z "},"P":{"ha":781,"x_min":119,"x_max":722,"o":"m 229 381 l 229 511 l 401 511 q 495 534 455 511 q 557 598 534 557 q 579 694 579 640 q 528 822 579 776 q 394 869 477 869 l 229 869 l 229 1000 l 404 1000 q 571 962 500 1000 q 682 857 643 925 q 722 698 722 789 q 683 534 722 606 q 574 422 644 463 q 410 381 504 381 l 229 381 m 119 0 l 119 1000 l 263 1000 l 263 0 l 119 0 z "},"Þ":{"ha":781,"x_min":115,"x_max":724,"o":"m 220 190 l 220 319 l 419 319 q 505 342 469 319 q 562 407 542 366 q 583 503 583 449 q 537 633 583 587 q 415 679 492 679 l 220 679 l 220 808 l 419 808 q 578 772 509 808 q 686 668 647 736 q 724 507 724 600 q 686 342 724 414 q 580 230 648 271 q 422 190 512 190 l 220 190 m 115 0 l 115 1000 l 258 1000 l 258 0 l 115 0 z "},"Q":{"ha":781,"x_min":45,"x_max":760,"o":"m 391 -11 q 205 51 283 -11 q 86 226 127 112 q 45 500 45 340 q 86 774 45 660 q 206 949 128 888 q 392 1010 283 1010 q 577 949 500 1010 q 695 774 654 888 q 735 502 735 661 q 709 275 735 374 q 633 110 684 176 l 602 83 q 510 14 564 38 q 391 -11 456 -11 m 621 0 l 550 101 l 488 142 l 330 367 l 471 367 l 585 193 l 650 150 l 760 0 l 621 0 m 391 119 q 507 164 460 119 q 576 294 553 210 q 599 499 600 379 q 575 702 598 617 q 505 833 551 787 q 391 879 459 879 q 278 834 326 879 q 206 704 231 789 q 181 499 181 618 q 206 295 181 380 q 278 165 231 210 q 391 119 326 119 z "},"R":{"ha":781,"x_min":89,"x_max":743,"o":"m 188 392 l 188 515 l 370 515 q 460 537 420 515 q 522 600 500 559 q 545 695 545 641 q 494 823 545 777 q 363 869 443 869 l 188 869 l 188 1000 l 385 1000 q 537 965 469 1000 q 646 865 606 930 q 686 709 686 800 q 646 549 686 621 q 531 434 605 477 q 356 392 457 392 l 188 392 m 89 0 l 89 1000 l 231 1000 l 231 0 l 89 0 m 582 0 l 351 414 l 456 500 l 743 0 l 582 0 z "},"Ŕ":{"ha":781,"x_min":89,"x_max":743,"o":"m 188 392 l 188 515 l 370 515 q 460 537 420 515 q 522 600 500 559 q 545 695 545 641 q 494 823 545 777 q 363 869 443 869 l 188 869 l 188 1000 l 385 1000 q 537 965 469 1000 q 646 865 606 930 q 686 709 686 800 q 646 549 686 621 q 531 434 605 477 q 356 392 457 392 l 188 392 m 89 0 l 89 1000 l 231 1000 l 231 0 l 89 0 m 582 0 l 351 414 l 456 500 l 743 0 l 582 0 m 357 1052 l 296 1117 l 504 1315 l 574 1226 l 357 1052 z "},"Ř":{"ha":781,"x_min":89,"x_max":743,"o":"m 188 392 l 188 515 l 370 515 q 460 537 420 515 q 522 600 500 559 q 545 695 545 641 q 494 823 545 777 q 363 869 443 869 l 188 869 l 188 1000 l 385 1000 q 537 965 469 1000 q 646 865 606 930 q 686 709 686 800 q 646 549 686 621 q 531 434 605 477 q 356 392 457 392 l 188 392 m 89 0 l 89 1000 l 231 1000 l 231 0 l 89 0 m 582 0 l 351 414 l 456 500 l 743 0 l 582 0 m 192 1275 l 355 1146 l 359 1146 l 523 1275 l 589 1204 l 374 1047 l 341 1047 l 125 1204 l 192 1275 z "},"Ŗ":{"ha":781,"x_min":89,"x_max":743,"o":"m 188 392 l 188 515 l 370 515 q 460 537 420 515 q 522 600 500 559 q 545 695 545 641 q 494 823 545 777 q 363 869 443 869 l 188 869 l 188 1000 l 385 1000 q 537 965 469 1000 q 646 865 606 930 q 686 709 686 800 q 646 549 686 621 q 531 434 605 477 q 356 392 457 392 l 188 392 m 89 0 l 89 1000 l 231 1000 l 231 0 l 89 0 m 582 0 l 351 414 l 456 500 l 743 0 l 582 0 m 351 -384 l 317 -344 l 371 -291 q 399 -260 387 -275 q 417 -232 411 -245 q 422 -207 422 -219 l 444 -205 q 432 -230 441 -218 q 401 -242 422 -242 q 353 -221 376 -242 q 330 -168 330 -201 q 352 -114 330 -134 q 401 -94 374 -94 q 455 -116 433 -94 q 477 -179 477 -138 q 464 -241 477 -212 q 435 -290 452 -269 q 408 -322 419 -311 l 351 -384 z "},"Ȑ":{"ha":781,"x_min":50,"x_max":743,"o":"m 188 392 l 188 515 l 370 515 q 460 537 420 515 q 522 600 500 559 q 545 695 545 641 q 494 823 545 777 q 363 869 443 869 l 188 869 l 188 1000 l 385 1000 q 537 965 469 1000 q 646 865 606 930 q 686 709 686 800 q 646 549 686 621 q 531 434 605 477 q 356 392 457 392 l 188 392 m 89 0 l 89 1000 l 231 1000 l 231 0 l 89 0 m 582 0 l 351 414 l 456 500 l 743 0 l 582 0 m 205 1072 l 50 1289 l 149 1343 l 277 1107 l 205 1072 m 435 1072 l 286 1289 l 382 1343 l 511 1107 l 435 1072 z "},"Ṛ":{"ha":781,"x_min":89,"x_max":743,"o":"m 188 392 l 188 515 l 370 515 q 460 537 420 515 q 522 600 500 559 q 545 695 545 641 q 494 823 545 777 q 363 869 443 869 l 188 869 l 188 1000 l 385 1000 q 537 965 469 1000 q 646 865 606 930 q 686 709 686 800 q 646 549 686 621 q 531 434 605 477 q 356 392 457 392 l 188 392 m 89 0 l 89 1000 l 231 1000 l 231 0 l 89 0 m 582 0 l 351 414 l 456 500 l 743 0 l 582 0 m 396 -283 q 327 -255 355 -283 q 298 -185 298 -227 q 327 -116 298 -144 q 396 -87 355 -87 q 466 -116 437 -87 q 494 -185 494 -144 q 466 -255 494 -227 q 396 -283 437 -283 z "},"Ȓ":{"ha":781,"x_min":89,"x_max":743,"o":"m 188 392 l 188 515 l 370 515 q 460 537 420 515 q 522 600 500 559 q 545 695 545 641 q 494 823 545 777 q 363 869 443 869 l 188 869 l 188 1000 l 385 1000 q 537 965 469 1000 q 646 865 606 930 q 686 709 686 800 q 646 549 686 621 q 531 434 605 477 q 356 392 457 392 l 188 392 m 89 0 l 89 1000 l 231 1000 l 231 0 l 89 0 m 582 0 l 351 414 l 456 500 l 743 0 l 582 0 m 356 1258 q 471 1235 418 1258 q 553 1167 523 1211 q 581 1063 583 1124 l 492 1063 q 453 1146 493 1118 q 356 1173 412 1173 q 260 1146 301 1173 q 220 1063 220 1118 l 132 1063 q 162 1167 132 1124 q 244 1235 193 1211 q 356 1258 295 1258 z "},"Ṟ":{"ha":781,"x_min":89,"x_max":743,"o":"m 188 392 l 188 515 l 370 515 q 460 537 420 515 q 522 600 500 559 q 545 695 545 641 q 494 823 545 777 q 363 869 443 869 l 188 869 l 188 1000 l 385 1000 q 537 965 469 1000 q 646 865 606 930 q 686 709 686 800 q 646 549 686 621 q 531 434 605 477 q 356 392 457 392 l 188 392 m 89 0 l 89 1000 l 231 1000 l 231 0 l 89 0 m 582 0 l 351 414 l 456 500 l 743 0 l 582 0 m 151 -273 l 151 -184 l 641 -184 l 641 -273 l 151 -273 z "},"S":{"ha":781,"x_min":64,"x_max":704,"o":"m 399 -11 q 255 19 323 -11 q 137 101 187 49 q 64 221 87 153 l 201 278 q 248 196 217 231 q 318 140 278 160 q 401 121 357 121 q 481 140 445 121 q 538 195 517 160 q 559 274 559 229 q 534 358 559 325 q 468 413 509 391 q 376 455 426 436 q 277 496 327 474 q 186 549 227 518 q 119 627 144 580 q 94 744 94 673 q 131 887 94 827 q 234 979 169 947 q 381 1010 299 1010 q 511 987 453 1010 q 612 921 570 963 q 675 827 654 880 l 544 773 q 502 831 527 807 q 445 868 477 855 q 379 880 414 880 q 281 847 324 880 q 238 748 238 814 q 263 666 238 698 q 330 612 288 633 q 421 572 372 590 q 520 532 471 553 q 612 480 570 511 q 679 402 653 450 q 704 284 704 355 q 664 131 704 197 q 555 27 624 64 q 399 -11 486 -11 z "},"Ś":{"ha":781,"x_min":64,"x_max":704,"o":"m 399 -11 q 255 19 323 -11 q 137 101 187 49 q 64 221 87 153 l 201 278 q 248 196 217 231 q 318 140 278 160 q 401 121 357 121 q 481 140 445 121 q 538 195 517 160 q 559 274 559 229 q 534 358 559 325 q 468 413 509 391 q 376 455 426 436 q 277 496 327 474 q 186 549 227 518 q 119 627 144 580 q 94 744 94 673 q 131 887 94 827 q 234 979 169 947 q 381 1010 299 1010 q 511 987 453 1010 q 612 921 570 963 q 675 827 654 880 l 544 773 q 502 831 527 807 q 445 868 477 855 q 379 880 414 880 q 281 847 324 880 q 238 748 238 814 q 263 666 238 698 q 330 612 288 633 q 421 572 372 590 q 520 532 471 553 q 612 480 570 511 q 679 402 653 450 q 704 284 704 355 q 664 131 704 197 q 555 27 624 64 q 399 -11 486 -11 m 389 1052 l 327 1117 l 535 1315 l 605 1226 l 389 1052 z "},"Ṥ":{"ha":781,"x_min":64,"x_max":704,"o":"m 399 -11 q 255 19 323 -11 q 137 101 187 49 q 64 221 87 153 l 201 278 q 248 196 217 231 q 318 140 278 160 q 401 121 357 121 q 481 140 445 121 q 538 195 517 160 q 559 274 559 229 q 534 358 559 325 q 468 413 509 391 q 376 455 426 436 q 277 496 327 474 q 186 549 227 518 q 119 627 144 580 q 94 744 94 673 q 131 887 94 827 q 234 979 169 947 q 381 1010 299 1010 q 511 987 453 1010 q 612 921 570 963 q 675 827 654 880 l 544 773 q 502 831 527 807 q 445 868 477 855 q 379 880 414 880 q 281 847 324 880 q 238 748 238 814 q 263 666 238 698 q 330 612 288 633 q 421 572 372 590 q 520 532 471 553 q 612 480 570 511 q 679 402 653 450 q 704 284 704 355 q 664 131 704 197 q 555 27 624 64 q 399 -11 486 -11 m 477 1073 l 414 1129 l 585 1370 l 680 1283 l 477 1073 m 264 1108 q 195 1136 223 1108 q 167 1206 167 1164 q 195 1275 167 1247 q 264 1303 223 1303 q 334 1275 306 1303 q 362 1206 362 1247 q 334 1136 362 1164 q 264 1108 306 1108 z "},"Š":{"ha":781,"x_min":64,"x_max":704,"o":"m 399 -11 q 255 19 323 -11 q 137 101 187 49 q 64 221 87 153 l 201 278 q 248 196 217 231 q 318 140 278 160 q 401 121 357 121 q 481 140 445 121 q 538 195 517 160 q 559 274 559 229 q 534 358 559 325 q 468 413 509 391 q 376 455 426 436 q 277 496 327 474 q 186 549 227 518 q 119 627 144 580 q 94 744 94 673 q 131 887 94 827 q 234 979 169 947 q 381 1010 299 1010 q 511 987 453 1010 q 612 921 570 963 q 675 827 654 880 l 544 773 q 502 831 527 807 q 445 868 477 855 q 379 880 414 880 q 281 847 324 880 q 238 748 238 814 q 263 666 238 698 q 330 612 288 633 q 421 572 372 590 q 520 532 471 553 q 612 480 570 511 q 679 402 653 450 q 704 284 704 355 q 664 131 704 197 q 555 27 624 64 q 399 -11 486 -11 m 223 1275 l 386 1146 l 391 1146 l 555 1275 l 621 1204 l 406 1047 l 372 1047 l 157 1204 l 223 1275 z "},"Ṧ":{"ha":781,"x_min":64,"x_max":704,"o":"m 399 -11 q 255 19 323 -11 q 137 101 187 49 q 64 221 87 153 l 201 278 q 248 196 217 231 q 318 140 278 160 q 401 121 357 121 q 481 140 445 121 q 538 195 517 160 q 559 274 559 229 q 534 358 559 325 q 468 413 509 391 q 376 455 426 436 q 277 496 327 474 q 186 549 227 518 q 119 627 144 580 q 94 744 94 673 q 131 887 94 827 q 234 979 169 947 q 381 1010 299 1010 q 511 987 453 1010 q 612 921 570 963 q 675 827 654 880 l 544 773 q 502 831 527 807 q 445 868 477 855 q 379 880 414 880 q 281 847 324 880 q 238 748 238 814 q 263 666 238 698 q 330 612 288 633 q 421 572 372 590 q 520 532 471 553 q 612 480 570 511 q 679 402 653 450 q 704 284 704 355 q 664 131 704 197 q 555 27 624 64 q 399 -11 486 -11 m 223 1275 l 386 1146 l 391 1146 l 555 1275 l 621 1204 l 406 1047 l 372 1047 l 157 1204 l 223 1275 m 389 1263 q 319 1291 347 1263 q 291 1360 291 1319 q 319 1430 291 1402 q 389 1458 347 1458 q 458 1430 430 1458 q 486 1360 486 1402 q 458 1291 486 1319 q 389 1263 430 1263 z "},"Ş":{"ha":781,"x_min":64,"x_max":704,"o":"m 399 -11 q 255 19 323 -11 q 137 101 187 49 q 64 221 87 153 l 201 278 q 248 196 217 231 q 318 140 278 160 q 401 121 357 121 q 481 140 445 121 q 538 195 517 160 q 559 274 559 229 q 534 358 559 325 q 468 413 509 391 q 376 455 426 436 q 277 496 327 474 q 186 549 227 518 q 119 627 144 580 q 94 744 94 673 q 131 887 94 827 q 234 979 169 947 q 381 1010 299 1010 q 511 987 453 1010 q 612 921 570 963 q 675 827 654 880 l 544 773 q 502 831 527 807 q 445 868 477 855 q 379 880 414 880 q 281 847 324 880 q 238 748 238 814 q 263 666 238 698 q 330 612 288 633 q 421 572 372 590 q 520 532 471 553 q 612 480 570 511 q 679 402 653 450 q 704 284 704 355 q 664 131 704 197 q 555 27 624 64 q 399 -11 486 -11 m 289 -323 l 289 -246 q 393 -233 358 -248 q 427 -184 427 -217 q 400 -144 427 -161 q 326 -127 374 -128 l 366 0 l 434 0 l 399 -111 l 389 -73 q 483 -114 450 -83 q 515 -193 515 -144 q 460 -289 515 -254 q 289 -323 404 -323 z "},"Ŝ":{"ha":781,"x_min":64,"x_max":704,"o":"m 399 -11 q 255 19 323 -11 q 137 101 187 49 q 64 221 87 153 l 201 278 q 248 196 217 231 q 318 140 278 160 q 401 121 357 121 q 481 140 445 121 q 538 195 517 160 q 559 274 559 229 q 534 358 559 325 q 468 413 509 391 q 376 455 426 436 q 277 496 327 474 q 186 549 227 518 q 119 627 144 580 q 94 744 94 673 q 131 887 94 827 q 234 979 169 947 q 381 1010 299 1010 q 511 987 453 1010 q 612 921 570 963 q 675 827 654 880 l 544 773 q 502 831 527 807 q 445 868 477 855 q 379 880 414 880 q 281 847 324 880 q 238 748 238 814 q 263 666 238 698 q 330 612 288 633 q 421 572 372 590 q 520 532 471 553 q 612 480 570 511 q 679 402 653 450 q 704 284 704 355 q 664 131 704 197 q 555 27 624 64 q 399 -11 486 -11 m 225 1052 l 159 1124 l 374 1280 l 408 1280 l 623 1124 l 557 1052 l 393 1181 l 388 1181 l 225 1052 z "},"Ș":{"ha":781,"x_min":64,"x_max":704,"o":"m 399 -11 q 255 19 323 -11 q 137 101 187 49 q 64 221 87 153 l 201 278 q 248 196 217 231 q 318 140 278 160 q 401 121 357 121 q 481 140 445 121 q 538 195 517 160 q 559 274 559 229 q 534 358 559 325 q 468 413 509 391 q 376 455 426 436 q 277 496 327 474 q 186 549 227 518 q 119 627 144 580 q 94 744 94 673 q 131 887 94 827 q 234 979 169 947 q 381 1010 299 1010 q 511 987 453 1010 q 612 921 570 963 q 675 827 654 880 l 544 773 q 502 831 527 807 q 445 868 477 855 q 379 880 414 880 q 281 847 324 880 q 238 748 238 814 q 263 666 238 698 q 330 612 288 633 q 421 572 372 590 q 520 532 471 553 q 612 480 570 511 q 679 402 653 450 q 704 284 704 355 q 664 131 704 197 q 555 27 624 64 q 399 -11 486 -11 m 352 -384 l 317 -344 l 372 -291 q 399 -260 387 -275 q 417 -232 412 -245 q 422 -207 423 -219 l 444 -205 q 432 -230 441 -218 q 402 -242 423 -242 q 354 -221 377 -242 q 330 -168 330 -201 q 353 -114 330 -134 q 402 -94 375 -94 q 456 -116 434 -94 q 477 -179 477 -138 q 465 -241 477 -212 q 436 -290 452 -269 q 408 -322 420 -311 l 352 -384 z "},"Ṡ":{"ha":781,"x_min":64,"x_max":704,"o":"m 399 -11 q 255 19 323 -11 q 137 101 187 49 q 64 221 87 153 l 201 278 q 248 196 217 231 q 318 140 278 160 q 401 121 357 121 q 481 140 445 121 q 538 195 517 160 q 559 274 559 229 q 534 358 559 325 q 468 413 509 391 q 376 455 426 436 q 277 496 327 474 q 186 549 227 518 q 119 627 144 580 q 94 744 94 673 q 131 887 94 827 q 234 979 169 947 q 381 1010 299 1010 q 511 987 453 1010 q 612 921 570 963 q 675 827 654 880 l 544 773 q 502 831 527 807 q 445 868 477 855 q 379 880 414 880 q 281 847 324 880 q 238 748 238 814 q 263 666 238 698 q 330 612 288 633 q 421 572 372 590 q 520 532 471 553 q 612 480 570 511 q 679 402 653 450 q 704 284 704 355 q 664 131 704 197 q 555 27 624 64 q 399 -11 486 -11 m 389 1067 q 319 1096 347 1067 q 291 1165 291 1124 q 319 1235 291 1206 q 389 1263 347 1263 q 458 1235 430 1263 q 486 1165 486 1206 q 458 1096 486 1124 q 389 1067 430 1067 z "},"Ṣ":{"ha":781,"x_min":64,"x_max":704,"o":"m 399 -11 q 255 19 323 -11 q 137 101 187 49 q 64 221 87 153 l 201 278 q 248 196 217 231 q 318 140 278 160 q 401 121 357 121 q 481 140 445 121 q 538 195 517 160 q 559 274 559 229 q 534 358 559 325 q 468 413 509 391 q 376 455 426 436 q 277 496 327 474 q 186 549 227 518 q 119 627 144 580 q 94 744 94 673 q 131 887 94 827 q 234 979 169 947 q 381 1010 299 1010 q 511 987 453 1010 q 612 921 570 963 q 675 827 654 880 l 544 773 q 502 831 527 807 q 445 868 477 855 q 379 880 414 880 q 281 847 324 880 q 238 748 238 814 q 263 666 238 698 q 330 612 288 633 q 421 572 372 590 q 520 532 471 553 q 612 480 570 511 q 679 402 653 450 q 704 284 704 355 q 664 131 704 197 q 555 27 624 64 q 399 -11 486 -11 m 397 -283 q 327 -255 355 -283 q 299 -185 299 -227 q 327 -116 299 -144 q 397 -87 355 -87 q 466 -116 438 -87 q 494 -185 494 -144 q 466 -255 494 -227 q 397 -283 438 -283 z "},"Ṩ":{"ha":781,"x_min":64,"x_max":704,"o":"m 399 -11 q 255 19 323 -11 q 137 101 187 49 q 64 221 87 153 l 201 278 q 248 196 217 231 q 318 140 278 160 q 401 121 357 121 q 481 140 445 121 q 538 195 517 160 q 559 274 559 229 q 534 358 559 325 q 468 413 509 391 q 376 455 426 436 q 277 496 327 474 q 186 549 227 518 q 119 627 144 580 q 94 744 94 673 q 131 887 94 827 q 234 979 169 947 q 381 1010 299 1010 q 511 987 453 1010 q 612 921 570 963 q 675 827 654 880 l 544 773 q 502 831 527 807 q 445 868 477 855 q 379 880 414 880 q 281 847 324 880 q 238 748 238 814 q 263 666 238 698 q 330 612 288 633 q 421 572 372 590 q 520 532 471 553 q 612 480 570 511 q 679 402 653 450 q 704 284 704 355 q 664 131 704 197 q 555 27 624 64 q 399 -11 486 -11 m 395 -283 q 326 -255 354 -283 q 298 -185 298 -227 q 326 -116 298 -144 q 395 -87 354 -87 q 465 -116 437 -87 q 493 -185 493 -144 q 465 -255 493 -227 q 395 -283 437 -283 m 396 1067 q 327 1096 355 1067 q 298 1165 298 1124 q 327 1235 298 1206 q 396 1263 355 1263 q 466 1235 437 1263 q 494 1165 494 1206 q 466 1096 494 1124 q 396 1067 437 1067 z "},"ẞ":{"ha":781,"x_min":81,"x_max":738,"o":"m 437 -11 q 391 -7 413 -11 q 349 3 368 -3 l 349 137 q 400 123 382 126 q 432 120 418 120 q 520 146 482 120 q 578 217 557 172 q 599 321 599 262 q 557 460 600 408 q 431 513 514 513 l 385 513 l 385 547 l 499 897 l 507 851 q 459 872 494 863 q 386 881 424 881 q 305 869 337 881 q 254 835 273 857 q 229 784 236 814 q 221 717 221 753 l 221 0 l 81 0 l 81 729 q 94 829 81 784 q 132 908 106 873 q 193 965 157 942 q 277 999 229 987 q 381 1010 324 1010 q 475 1004 426 1010 q 570 984 524 997 q 649 952 616 970 l 649 933 l 513 554 l 499 620 q 629 575 576 616 q 710 467 682 534 q 738 317 738 400 q 699 145 738 219 q 593 30 661 71 q 437 -11 525 -11 z "},"T":{"ha":781,"x_min":55,"x_max":726,"o":"m 319 0 l 319 894 l 463 894 l 463 0 l 319 0 m 55 869 l 55 1000 l 726 1000 l 726 869 l 55 869 z "},"Ŧ":{"ha":781,"x_min":55,"x_max":726,"o":"m 319 0 l 319 894 l 463 894 l 463 0 l 319 0 m 55 869 l 55 1000 l 726 1000 l 726 869 l 55 869 m 199 429 l 199 528 l 585 528 l 585 429 l 199 429 z "},"Ť":{"ha":781,"x_min":55,"x_max":726,"o":"m 319 0 l 319 894 l 463 894 l 463 0 l 319 0 m 55 869 l 55 1000 l 726 1000 l 726 869 l 55 869 m 225 1275 l 388 1146 l 393 1146 l 557 1275 l 623 1204 l 408 1047 l 374 1047 l 159 1204 l 225 1275 z "},"Ţ":{"ha":781,"x_min":55,"x_max":726,"o":"m 319 0 l 319 894 l 463 894 l 463 0 l 319 0 m 55 869 l 55 1000 l 726 1000 l 726 869 l 55 869 m 279 -323 l 279 -246 q 383 -233 349 -248 q 418 -184 418 -217 q 391 -144 418 -161 q 317 -127 364 -128 l 356 0 l 425 0 l 390 -111 l 380 -73 q 473 -114 440 -83 q 506 -193 506 -144 q 450 -289 506 -254 q 279 -323 395 -323 z "},"Ț":{"ha":781,"x_min":55,"x_max":726,"o":"m 319 0 l 319 894 l 463 894 l 463 0 l 319 0 m 55 869 l 55 1000 l 726 1000 l 726 869 l 55 869 m 346 -384 l 311 -344 l 366 -291 q 393 -260 381 -275 q 411 -232 406 -245 q 416 -207 417 -219 l 438 -205 q 426 -230 435 -218 q 396 -242 417 -242 q 348 -221 371 -242 q 324 -168 324 -201 q 347 -114 324 -134 q 396 -94 369 -94 q 450 -116 428 -94 q 471 -179 471 -138 q 459 -241 471 -212 q 430 -290 446 -269 q 402 -322 414 -311 l 346 -384 z "},"Ṭ":{"ha":781,"x_min":55,"x_max":726,"o":"m 319 0 l 319 894 l 463 894 l 463 0 l 319 0 m 55 869 l 55 1000 l 726 1000 l 726 869 l 55 869 m 391 -283 q 321 -255 349 -283 q 293 -185 293 -227 q 321 -116 293 -144 q 391 -87 349 -87 q 460 -116 432 -87 q 488 -185 488 -144 q 460 -255 488 -227 q 391 -283 432 -283 z "},"Ṯ":{"ha":781,"x_min":55,"x_max":726,"o":"m 319 0 l 319 894 l 463 894 l 463 0 l 319 0 m 55 869 l 55 1000 l 726 1000 l 726 869 l 55 869 m 146 -273 l 146 -184 l 635 -184 l 635 -273 l 146 -273 z "},"U":{"ha":781,"x_min":77,"x_max":704,"o":"m 391 -11 q 223 32 294 -11 q 115 154 153 75 q 77 342 77 233 l 77 1000 l 219 1000 l 219 338 q 265 178 219 237 q 391 120 311 120 q 517 178 471 120 q 562 338 562 237 l 562 1000 l 704 1000 l 704 342 q 666 154 704 233 q 558 32 628 75 q 391 -11 488 -11 z "},"Ú":{"ha":781,"x_min":77,"x_max":704,"o":"m 391 -11 q 223 32 294 -11 q 115 154 153 75 q 77 342 77 233 l 77 1000 l 219 1000 l 219 338 q 265 178 219 237 q 391 120 311 120 q 517 178 471 120 q 562 338 562 237 l 562 1000 l 704 1000 l 704 342 q 666 154 704 233 q 558 32 628 75 q 391 -11 488 -11 m 391 1052 l 329 1117 l 537 1315 l 607 1226 l 391 1052 z "},"Ŭ":{"ha":781,"x_min":77,"x_max":704,"o":"m 391 -11 q 223 32 294 -11 q 115 154 153 75 q 77 342 77 233 l 77 1000 l 219 1000 l 219 338 q 265 178 219 237 q 391 120 311 120 q 517 178 471 120 q 562 338 562 237 l 562 1000 l 704 1000 l 704 342 q 666 154 704 233 q 558 32 628 75 q 391 -11 488 -11 m 391 1059 q 279 1082 330 1059 q 197 1149 228 1106 q 166 1253 166 1193 l 254 1253 q 295 1171 255 1199 q 391 1143 336 1143 q 487 1171 447 1143 q 528 1253 528 1199 l 616 1253 q 588 1149 618 1193 q 505 1082 557 1106 q 391 1059 453 1059 z "},"Û":{"ha":781,"x_min":77,"x_max":704,"o":"m 391 -11 q 223 32 294 -11 q 115 154 153 75 q 77 342 77 233 l 77 1000 l 219 1000 l 219 338 q 265 178 219 237 q 391 120 311 120 q 517 178 471 120 q 562 338 562 237 l 562 1000 l 704 1000 l 704 342 q 666 154 704 233 q 558 32 628 75 q 391 -11 488 -11 m 227 1052 l 161 1124 l 376 1280 l 410 1280 l 625 1124 l 559 1052 l 395 1181 l 390 1181 l 227 1052 z "},"Ȕ":{"ha":781,"x_min":77,"x_max":704,"o":"m 391 -11 q 223 32 294 -11 q 115 154 153 75 q 77 342 77 233 l 77 1000 l 219 1000 l 219 338 q 265 178 219 237 q 391 120 311 120 q 517 178 471 120 q 562 338 562 237 l 562 1000 l 704 1000 l 704 342 q 666 154 704 233 q 558 32 628 75 q 391 -11 488 -11 m 239 1072 l 83 1289 l 182 1343 l 311 1107 l 239 1072 m 468 1072 l 319 1289 l 416 1343 l 544 1107 l 468 1072 z "},"Ü":{"ha":781,"x_min":77,"x_max":704,"o":"m 391 -11 q 223 32 294 -11 q 115 154 153 75 q 77 342 77 233 l 77 1000 l 219 1000 l 219 338 q 265 178 219 237 q 391 120 311 120 q 517 178 471 120 q 562 338 562 237 l 562 1000 l 704 1000 l 704 342 q 666 154 704 233 q 558 32 628 75 q 391 -11 488 -11 m 542 1067 q 476 1093 503 1067 q 450 1158 449 1120 q 476 1224 449 1198 q 542 1251 503 1251 q 607 1224 581 1251 q 633 1158 633 1198 q 607 1093 633 1120 q 542 1067 581 1067 m 244 1067 q 178 1093 205 1067 q 151 1158 151 1120 q 178 1224 151 1198 q 244 1251 205 1251 q 309 1224 283 1251 q 335 1158 335 1198 q 309 1093 335 1120 q 244 1067 283 1067 z "},"Ụ":{"ha":781,"x_min":77,"x_max":704,"o":"m 391 -11 q 223 32 294 -11 q 115 154 153 75 q 77 342 77 233 l 77 1000 l 219 1000 l 219 338 q 265 178 219 237 q 391 120 311 120 q 517 178 471 120 q 562 338 562 237 l 562 1000 l 704 1000 l 704 342 q 666 154 704 233 q 558 32 628 75 q 391 -11 488 -11 m 391 -283 q 321 -255 349 -283 q 293 -185 293 -227 q 321 -116 293 -144 q 391 -87 349 -87 q 460 -116 432 -87 q 488 -185 488 -144 q 460 -255 488 -227 q 391 -283 432 -283 z "},"Ù":{"ha":781,"x_min":77,"x_max":704,"o":"m 391 -11 q 223 32 294 -11 q 115 154 153 75 q 77 342 77 233 l 77 1000 l 219 1000 l 219 338 q 265 178 219 237 q 391 120 311 120 q 517 178 471 120 q 562 338 562 237 l 562 1000 l 704 1000 l 704 342 q 666 154 704 233 q 558 32 628 75 q 391 -11 488 -11 m 391 1052 l 174 1226 l 244 1315 l 452 1117 l 391 1052 z "},"Ủ":{"ha":781,"x_min":77,"x_max":704,"o":"m 391 -11 q 223 32 294 -11 q 115 154 153 75 q 77 342 77 233 l 77 1000 l 219 1000 l 219 338 q 265 178 219 237 q 391 120 311 120 q 517 178 471 120 q 562 338 562 237 l 562 1000 l 704 1000 l 704 342 q 666 154 704 233 q 558 32 628 75 q 391 -11 488 -11 m 411 1073 l 357 1128 q 397 1161 380 1142 q 414 1203 414 1181 q 396 1239 414 1226 q 348 1251 379 1251 q 312 1248 334 1251 q 275 1238 291 1244 l 275 1325 q 316 1336 290 1332 q 361 1339 342 1339 q 464 1309 426 1339 q 502 1221 502 1278 q 474 1131 502 1171 q 411 1073 447 1090 z "},"Ư":{"ha":781,"x_min":77,"x_max":916,"o":"m 391 -11 q 223 32 294 -11 q 115 154 153 75 q 77 342 77 233 l 77 1000 l 219 1000 l 219 338 q 265 178 219 237 q 391 120 311 120 q 517 178 471 120 q 562 338 562 237 l 562 1000 l 704 1000 l 704 342 q 666 154 704 233 q 558 32 628 75 q 391 -11 488 -11 m 667 907 l 665 1000 q 770 1036 735 1001 q 806 1139 806 1072 q 804 1171 806 1150 q 800 1206 803 1191 l 904 1225 q 913 1178 911 1205 q 916 1133 916 1151 q 881 1009 916 1061 q 788 931 845 958 q 667 907 731 904 z "},"Ứ":{"ha":781,"x_min":77,"x_max":916,"o":"m 391 -11 q 223 32 294 -11 q 115 154 153 75 q 77 342 77 233 l 77 1000 l 219 1000 l 219 338 q 265 178 219 237 q 391 120 311 120 q 517 178 471 120 q 562 338 562 237 l 562 1000 l 704 1000 l 704 342 q 666 154 704 233 q 558 32 628 75 q 391 -11 488 -11 m 667 907 l 665 1000 q 770 1036 735 1001 q 806 1139 806 1072 q 804 1171 806 1150 q 800 1206 803 1191 l 904 1225 q 913 1178 911 1205 q 916 1133 916 1151 q 881 1009 916 1061 q 788 931 845 958 q 667 907 731 904 m 391 1052 l 329 1117 l 537 1315 l 607 1226 l 391 1052 z "},"Ự":{"ha":781,"x_min":77,"x_max":916,"o":"m 391 -11 q 223 32 294 -11 q 115 154 153 75 q 77 342 77 233 l 77 1000 l 219 1000 l 219 338 q 265 178 219 237 q 391 120 311 120 q 517 178 471 120 q 562 338 562 237 l 562 1000 l 704 1000 l 704 342 q 666 154 704 233 q 558 32 628 75 q 391 -11 488 -11 m 667 907 l 665 1000 q 770 1036 735 1001 q 806 1139 806 1072 q 804 1171 806 1150 q 800 1206 803 1191 l 904 1225 q 913 1178 911 1205 q 916 1133 916 1151 q 881 1009 916 1061 q 788 931 845 958 q 667 907 731 904 m 391 -283 q 321 -255 349 -283 q 293 -185 293 -227 q 321 -116 293 -144 q 391 -87 349 -87 q 460 -116 432 -87 q 488 -185 488 -144 q 460 -255 488 -227 q 391 -283 432 -283 z "},"Ừ":{"ha":781,"x_min":77,"x_max":916,"o":"m 391 -11 q 223 32 294 -11 q 115 154 153 75 q 77 342 77 233 l 77 1000 l 219 1000 l 219 338 q 265 178 219 237 q 391 120 311 120 q 517 178 471 120 q 562 338 562 237 l 562 1000 l 704 1000 l 704 342 q 666 154 704 233 q 558 32 628 75 q 391 -11 488 -11 m 667 907 l 665 1000 q 770 1036 735 1001 q 806 1139 806 1072 q 804 1171 806 1150 q 800 1206 803 1191 l 904 1225 q 913 1178 911 1205 q 916 1133 916 1151 q 881 1009 916 1061 q 788 931 845 958 q 667 907 731 904 m 391 1052 l 174 1226 l 244 1315 l 452 1117 l 391 1052 z "},"Ử":{"ha":781,"x_min":77,"x_max":916,"o":"m 391 -11 q 223 32 294 -11 q 115 154 153 75 q 77 342 77 233 l 77 1000 l 219 1000 l 219 338 q 265 178 219 237 q 391 120 311 120 q 517 178 471 120 q 562 338 562 237 l 562 1000 l 704 1000 l 704 342 q 666 154 704 233 q 558 32 628 75 q 391 -11 488 -11 m 667 907 l 665 1000 q 770 1036 735 1001 q 806 1139 806 1072 q 804 1171 806 1150 q 800 1206 803 1191 l 904 1225 q 913 1178 911 1205 q 916 1133 916 1151 q 881 1009 916 1061 q 788 931 845 958 q 667 907 731 904 m 411 1073 l 357 1128 q 397 1161 380 1142 q 414 1203 414 1181 q 396 1239 414 1226 q 348 1251 379 1251 q 312 1248 334 1251 q 275 1238 291 1244 l 275 1325 q 316 1336 290 1332 q 361 1339 342 1339 q 464 1309 426 1339 q 502 1221 502 1278 q 474 1131 502 1171 q 411 1073 447 1090 z "},"Ữ":{"ha":781,"x_min":77,"x_max":916,"o":"m 391 -11 q 223 32 294 -11 q 115 154 153 75 q 77 342 77 233 l 77 1000 l 219 1000 l 219 338 q 265 178 219 237 q 391 120 311 120 q 517 178 471 120 q 562 338 562 237 l 562 1000 l 704 1000 l 704 342 q 666 154 704 233 q 558 32 628 75 q 391 -11 488 -11 m 667 907 l 665 1000 q 770 1036 735 1001 q 806 1139 806 1072 q 804 1171 806 1150 q 800 1206 803 1191 l 904 1225 q 913 1178 911 1205 q 916 1133 916 1151 q 881 1009 916 1061 q 788 931 845 958 q 667 907 731 904 m 164 1076 q 200 1198 164 1151 q 298 1246 237 1246 q 358 1233 334 1246 q 400 1205 382 1221 q 433 1177 417 1189 q 469 1164 450 1164 q 511 1188 497 1164 q 526 1246 526 1213 l 616 1246 q 581 1125 618 1174 q 479 1076 544 1076 q 422 1088 446 1076 q 380 1117 399 1101 q 345 1145 362 1133 q 307 1158 328 1158 q 268 1135 281 1158 q 255 1076 255 1112 l 164 1076 z "},"Ű":{"ha":781,"x_min":77,"x_max":704,"o":"m 391 -11 q 223 32 294 -11 q 115 154 153 75 q 77 342 77 233 l 77 1000 l 219 1000 l 219 338 q 265 178 219 237 q 391 120 311 120 q 517 178 471 120 q 562 338 562 237 l 562 1000 l 704 1000 l 704 342 q 666 154 704 233 q 558 32 628 75 q 391 -11 488 -11 m 311 1072 l 235 1107 l 369 1343 l 463 1289 l 311 1072 m 543 1072 l 471 1107 l 599 1343 l 696 1289 l 543 1072 z "},"Ȗ":{"ha":781,"x_min":77,"x_max":704,"o":"m 391 -11 q 223 32 294 -11 q 115 154 153 75 q 77 342 77 233 l 77 1000 l 219 1000 l 219 338 q 265 178 219 237 q 391 120 311 120 q 517 178 471 120 q 562 338 562 237 l 562 1000 l 704 1000 l 704 342 q 666 154 704 233 q 558 32 628 75 q 391 -11 488 -11 m 389 1258 q 504 1235 452 1258 q 587 1167 556 1211 q 615 1063 617 1124 l 526 1063 q 486 1146 526 1118 q 389 1173 446 1173 q 294 1146 334 1173 q 253 1063 254 1118 l 165 1063 q 196 1167 165 1124 q 278 1235 227 1211 q 389 1258 329 1258 z "},"Ū":{"ha":781,"x_min":77,"x_max":704,"o":"m 391 -11 q 223 32 294 -11 q 115 154 153 75 q 77 342 77 233 l 77 1000 l 219 1000 l 219 338 q 265 178 219 237 q 391 120 311 120 q 517 178 471 120 q 562 338 562 237 l 562 1000 l 704 1000 l 704 342 q 666 154 704 233 q 558 32 628 75 q 391 -11 488 -11 m 142 1108 l 142 1207 l 639 1207 l 639 1108 l 142 1108 z "},"Ṻ":{"ha":781,"x_min":77,"x_max":704,"o":"m 391 -11 q 223 32 294 -11 q 115 154 153 75 q 77 342 77 233 l 77 1000 l 219 1000 l 219 338 q 265 178 219 237 q 391 120 311 120 q 517 178 471 120 q 562 338 562 237 l 562 1000 l 704 1000 l 704 342 q 666 154 704 233 q 558 32 628 75 q 391 -11 488 -11 m 142 1108 l 142 1207 l 639 1207 l 639 1108 l 142 1108 m 542 1274 q 476 1301 503 1274 q 450 1366 449 1327 q 476 1432 449 1405 q 542 1458 503 1458 q 607 1432 581 1458 q 633 1366 633 1405 q 607 1301 633 1327 q 542 1274 581 1274 m 244 1274 q 178 1301 205 1274 q 151 1366 151 1327 q 178 1432 151 1405 q 244 1458 205 1458 q 309 1432 283 1458 q 335 1366 335 1405 q 309 1301 335 1327 q 244 1274 283 1274 z "},"Ų":{"ha":781,"x_min":77,"x_max":704,"o":"m 391 -11 q 223 32 294 -11 q 115 154 153 75 q 77 342 77 233 l 77 1000 l 219 1000 l 219 338 q 265 178 219 237 q 391 120 311 120 q 517 178 471 120 q 562 338 562 237 l 562 1000 l 704 1000 l 704 342 q 666 154 704 233 q 558 32 628 75 q 391 -11 488 -11 m 385 -281 q 296 -248 331 -281 q 260 -160 260 -214 q 298 -63 260 -106 q 395 26 335 -20 l 470 0 q 414 -49 441 -26 q 369 -96 387 -72 q 351 -146 351 -119 q 368 -183 351 -170 q 410 -197 384 -197 q 451 -189 429 -197 q 484 -173 473 -181 l 484 -257 q 438 -275 468 -268 q 385 -281 409 -281 z "},"Ů":{"ha":781,"x_min":77,"x_max":704,"o":"m 391 -11 q 223 32 294 -11 q 115 154 153 75 q 77 342 77 233 l 77 1000 l 219 1000 l 219 338 q 265 178 219 237 q 391 120 311 120 q 517 178 471 120 q 562 338 562 237 l 562 1000 l 704 1000 l 704 342 q 666 154 704 233 q 558 32 628 75 q 391 -11 488 -11 m 391 1044 q 309 1066 345 1044 q 250 1123 272 1087 q 229 1204 229 1159 q 250 1287 229 1251 q 309 1345 272 1324 q 391 1366 345 1366 q 471 1345 435 1366 q 528 1287 507 1324 q 549 1204 549 1251 q 528 1123 549 1159 q 471 1066 507 1087 q 391 1044 435 1044 m 391 1128 q 444 1150 423 1128 q 465 1204 464 1172 q 444 1261 465 1240 q 391 1282 423 1282 q 337 1261 359 1282 q 315 1204 315 1240 q 336 1150 315 1172 q 391 1128 358 1128 z "},"Ũ":{"ha":781,"x_min":77,"x_max":704,"o":"m 391 -11 q 223 32 294 -11 q 115 154 153 75 q 77 342 77 233 l 77 1000 l 219 1000 l 219 338 q 265 178 219 237 q 391 120 311 120 q 517 178 471 120 q 562 338 562 237 l 562 1000 l 704 1000 l 704 342 q 666 154 704 233 q 558 32 628 75 q 391 -11 488 -11 m 164 1076 q 200 1198 164 1151 q 298 1246 237 1246 q 358 1233 334 1246 q 400 1205 382 1221 q 433 1177 417 1189 q 469 1164 450 1164 q 511 1188 497 1164 q 526 1246 526 1213 l 616 1246 q 581 1125 618 1174 q 479 1076 544 1076 q 422 1088 446 1076 q 380 1117 399 1101 q 345 1145 362 1133 q 307 1158 328 1158 q 268 1135 281 1158 q 255 1076 255 1112 l 164 1076 z "},"Ṹ":{"ha":781,"x_min":77,"x_max":704,"o":"m 391 -11 q 223 32 294 -11 q 115 154 153 75 q 77 342 77 233 l 77 1000 l 219 1000 l 219 338 q 265 178 219 237 q 391 120 311 120 q 517 178 471 120 q 562 338 562 237 l 562 1000 l 704 1000 l 704 342 q 666 154 704 233 q 558 32 628 75 q 391 -11 488 -11 m 164 1076 q 200 1198 164 1151 q 298 1246 237 1246 q 358 1233 334 1246 q 400 1205 382 1221 q 433 1177 417 1189 q 469 1164 450 1164 q 511 1188 497 1164 q 526 1246 526 1213 l 616 1246 q 581 1125 618 1174 q 479 1076 544 1076 q 422 1088 446 1076 q 380 1117 399 1101 q 345 1145 362 1133 q 307 1158 328 1158 q 268 1135 281 1158 q 255 1076 255 1112 l 164 1076 m 391 1284 l 329 1349 l 537 1547 l 607 1458 l 391 1284 z "},"V":{"ha":781,"x_min":6,"x_max":775,"o":"m 320 0 l 6 1000 l 157 1000 l 300 500 l 388 203 l 393 203 l 482 500 l 624 1000 l 775 1000 l 463 0 l 320 0 z "},"W":{"ha":781,"x_min":37,"x_max":745,"o":"m 137 0 q 85 223 108 114 q 50 439 63 332 q 37 654 37 547 l 37 1000 l 172 1000 l 172 654 q 178 494 172 574 q 193 341 183 415 q 216 200 202 267 l 222 200 l 356 634 l 425 634 l 559 200 l 565 200 q 589 341 579 267 q 605 494 599 415 q 610 654 610 574 l 610 1000 l 745 1000 l 745 654 q 732 440 745 547 q 696 223 719 332 q 645 0 674 114 l 509 0 l 393 386 l 388 386 l 271 0 l 137 0 z "},"Ẃ":{"ha":781,"x_min":37,"x_max":745,"o":"m 137 0 q 85 223 108 114 q 50 439 63 332 q 37 654 37 547 l 37 1000 l 172 1000 l 172 654 q 178 494 172 574 q 193 341 183 415 q 216 200 202 267 l 222 200 l 356 634 l 425 634 l 559 200 l 565 200 q 589 341 579 267 q 605 494 599 415 q 610 654 610 574 l 610 1000 l 745 1000 l 745 654 q 732 440 745 547 q 696 223 719 332 q 645 0 674 114 l 509 0 l 393 386 l 388 386 l 271 0 l 137 0 m 391 1052 l 329 1117 l 537 1315 l 607 1226 l 391 1052 z "},"Ŵ":{"ha":781,"x_min":37,"x_max":745,"o":"m 137 0 q 85 223 108 114 q 50 439 63 332 q 37 654 37 547 l 37 1000 l 172 1000 l 172 654 q 178 494 172 574 q 193 341 183 415 q 216 200 202 267 l 222 200 l 356 634 l 425 634 l 559 200 l 565 200 q 589 341 579 267 q 605 494 599 415 q 610 654 610 574 l 610 1000 l 745 1000 l 745 654 q 732 440 745 547 q 696 223 719 332 q 645 0 674 114 l 509 0 l 393 386 l 388 386 l 271 0 l 137 0 m 227 1052 l 161 1124 l 376 1280 l 410 1280 l 625 1124 l 559 1052 l 395 1181 l 390 1181 l 227 1052 z "},"Ẅ":{"ha":781,"x_min":37,"x_max":745,"o":"m 137 0 q 85 223 108 114 q 50 439 63 332 q 37 654 37 547 l 37 1000 l 172 1000 l 172 654 q 178 494 172 574 q 193 341 183 415 q 216 200 202 267 l 222 200 l 356 634 l 425 634 l 559 200 l 565 200 q 589 341 579 267 q 605 494 599 415 q 610 654 610 574 l 610 1000 l 745 1000 l 745 654 q 732 440 745 547 q 696 223 719 332 q 645 0 674 114 l 509 0 l 393 386 l 388 386 l 271 0 l 137 0 m 542 1067 q 476 1093 503 1067 q 450 1158 449 1120 q 476 1224 449 1198 q 542 1251 503 1251 q 607 1224 581 1251 q 633 1158 633 1198 q 607 1093 633 1120 q 542 1067 581 1067 m 244 1067 q 178 1093 205 1067 q 151 1158 151 1120 q 178 1224 151 1198 q 244 1251 205 1251 q 309 1224 283 1251 q 335 1158 335 1198 q 309 1093 335 1120 q 244 1067 283 1067 z "},"Ẁ":{"ha":781,"x_min":37,"x_max":745,"o":"m 137 0 q 85 223 108 114 q 50 439 63 332 q 37 654 37 547 l 37 1000 l 172 1000 l 172 654 q 178 494 172 574 q 193 341 183 415 q 216 200 202 267 l 222 200 l 356 634 l 425 634 l 559 200 l 565 200 q 589 341 579 267 q 605 494 599 415 q 610 654 610 574 l 610 1000 l 745 1000 l 745 654 q 732 440 745 547 q 696 223 719 332 q 645 0 674 114 l 509 0 l 393 386 l 388 386 l 271 0 l 137 0 m 391 1052 l 174 1226 l 244 1315 l 452 1117 l 391 1052 z "},"X":{"ha":781,"x_min":17,"x_max":764,"o":"m 596 0 l 393 392 l 385 392 l 295 498 l 295 503 l 22 1000 l 182 1000 l 388 597 l 395 597 l 486 503 l 486 498 l 764 0 l 596 0 m 17 0 l 295 498 l 295 503 l 385 597 l 393 597 l 598 1000 l 759 1000 l 486 503 l 486 498 l 395 392 l 388 392 l 184 0 l 17 0 z "},"Y":{"ha":781,"x_min":9,"x_max":772,"o":"m 319 0 l 319 420 l 9 1000 l 171 1000 l 290 762 l 388 562 l 393 562 l 492 762 l 610 1000 l 772 1000 l 462 420 l 462 0 l 319 0 z "},"Ý":{"ha":781,"x_min":9,"x_max":772,"o":"m 319 0 l 319 420 l 9 1000 l 171 1000 l 290 762 l 388 562 l 393 562 l 492 762 l 610 1000 l 772 1000 l 462 420 l 462 0 l 319 0 m 391 1052 l 329 1117 l 537 1315 l 607 1226 l 391 1052 z "},"Ŷ":{"ha":781,"x_min":9,"x_max":772,"o":"m 319 0 l 319 420 l 9 1000 l 171 1000 l 290 762 l 388 562 l 393 562 l 492 762 l 610 1000 l 772 1000 l 462 420 l 462 0 l 319 0 m 227 1052 l 161 1124 l 376 1280 l 410 1280 l 625 1124 l 559 1052 l 395 1181 l 390 1181 l 227 1052 z "},"Ÿ":{"ha":781,"x_min":9,"x_max":772,"o":"m 319 0 l 319 420 l 9 1000 l 171 1000 l 290 762 l 388 562 l 393 562 l 492 762 l 610 1000 l 772 1000 l 462 420 l 462 0 l 319 0 m 542 1067 q 476 1093 503 1067 q 450 1158 449 1120 q 476 1224 449 1198 q 542 1251 503 1251 q 607 1224 581 1251 q 633 1158 633 1198 q 607 1093 633 1120 q 542 1067 581 1067 m 244 1067 q 178 1093 205 1067 q 151 1158 151 1120 q 178 1224 151 1198 q 244 1251 205 1251 q 309 1224 283 1251 q 335 1158 335 1198 q 309 1093 335 1120 q 244 1067 283 1067 z "},"Ẏ":{"ha":781,"x_min":9,"x_max":772,"o":"m 319 0 l 319 420 l 9 1000 l 171 1000 l 290 762 l 388 562 l 393 562 l 492 762 l 610 1000 l 772 1000 l 462 420 l 462 0 l 319 0 m 391 1067 q 321 1096 349 1067 q 293 1165 293 1124 q 321 1235 293 1206 q 391 1263 349 1263 q 460 1235 432 1263 q 488 1165 488 1206 q 460 1096 488 1124 q 391 1067 432 1067 z "},"Ỵ":{"ha":781,"x_min":9,"x_max":772,"o":"m 319 0 l 319 420 l 9 1000 l 171 1000 l 290 762 l 388 562 l 393 562 l 492 762 l 610 1000 l 772 1000 l 462 420 l 462 0 l 319 0 m 389 -283 q 320 -255 348 -283 q 292 -185 292 -227 q 320 -116 292 -144 q 389 -87 348 -87 q 459 -116 431 -87 q 487 -185 487 -144 q 459 -255 487 -227 q 389 -283 431 -283 z "},"Ỳ":{"ha":781,"x_min":9,"x_max":772,"o":"m 319 0 l 319 420 l 9 1000 l 171 1000 l 290 762 l 388 562 l 393 562 l 492 762 l 610 1000 l 772 1000 l 462 420 l 462 0 l 319 0 m 391 1052 l 174 1226 l 244 1315 l 452 1117 l 391 1052 z "},"Ỷ":{"ha":781,"x_min":9,"x_max":772,"o":"m 319 0 l 319 420 l 9 1000 l 171 1000 l 290 762 l 388 562 l 393 562 l 492 762 l 610 1000 l 772 1000 l 462 420 l 462 0 l 319 0 m 411 1073 l 357 1128 q 397 1161 380 1142 q 414 1203 414 1181 q 396 1239 414 1226 q 348 1251 379 1251 q 312 1248 334 1251 q 275 1238 291 1244 l 275 1325 q 316 1336 290 1332 q 361 1339 342 1339 q 464 1309 426 1339 q 502 1221 502 1278 q 474 1131 502 1171 q 411 1073 447 1090 z "},"Ȳ":{"ha":781,"x_min":9,"x_max":772,"o":"m 319 0 l 319 420 l 9 1000 l 171 1000 l 290 762 l 388 562 l 393 562 l 492 762 l 610 1000 l 772 1000 l 462 420 l 462 0 l 319 0 m 142 1108 l 142 1207 l 639 1207 l 639 1108 l 142 1108 z "},"Ỹ":{"ha":781,"x_min":9,"x_max":772,"o":"m 319 0 l 319 420 l 9 1000 l 171 1000 l 290 762 l 388 562 l 393 562 l 492 762 l 610 1000 l 772 1000 l 462 420 l 462 0 l 319 0 m 164 1076 q 200 1198 164 1151 q 298 1246 237 1246 q 358 1233 334 1246 q 400 1205 382 1221 q 433 1177 417 1189 q 469 1164 450 1164 q 511 1188 497 1164 q 526 1246 526 1213 l 616 1246 q 581 1125 618 1174 q 479 1076 544 1076 q 422 1088 446 1076 q 380 1117 399 1101 q 345 1145 362 1133 q 307 1158 328 1158 q 268 1135 281 1158 q 255 1076 255 1112 l 164 1076 z "},"Z":{"ha":781,"x_min":63,"x_max":718,"o":"m 63 0 l 63 28 l 495 867 l 495 869 l 88 869 l 88 1000 l 709 1000 l 709 971 l 279 133 l 279 130 l 718 130 l 718 0 l 63 0 z "},"Ź":{"ha":781,"x_min":63,"x_max":718,"o":"m 63 0 l 63 28 l 495 867 l 495 869 l 88 869 l 88 1000 l 709 1000 l 709 971 l 279 133 l 279 130 l 718 130 l 718 0 l 63 0 m 396 1052 l 334 1117 l 543 1315 l 612 1226 l 396 1052 z "},"Ž":{"ha":781,"x_min":63,"x_max":718,"o":"m 63 0 l 63 28 l 495 867 l 495 869 l 88 869 l 88 1000 l 709 1000 l 709 971 l 279 133 l 279 130 l 718 130 l 718 0 l 63 0 m 231 1275 l 393 1146 l 398 1146 l 562 1275 l 628 1204 l 413 1047 l 380 1047 l 164 1204 l 231 1275 z "},"Ż":{"ha":781,"x_min":63,"x_max":718,"o":"m 63 0 l 63 28 l 495 867 l 495 869 l 88 869 l 88 1000 l 709 1000 l 709 971 l 279 133 l 279 130 l 718 130 l 718 0 l 63 0 m 396 1067 q 327 1096 355 1067 q 298 1165 298 1124 q 327 1235 298 1206 q 396 1263 355 1263 q 466 1235 437 1263 q 494 1165 494 1206 q 466 1096 494 1124 q 396 1067 437 1067 z "},"Ẓ":{"ha":781,"x_min":63,"x_max":718,"o":"m 63 0 l 63 28 l 495 867 l 495 869 l 88 869 l 88 1000 l 709 1000 l 709 971 l 279 133 l 279 130 l 718 130 l 718 0 l 63 0 m 398 -283 q 329 -255 357 -283 q 300 -185 300 -227 q 329 -116 300 -144 q 398 -87 357 -87 q 468 -116 439 -87 q 496 -185 496 -144 q 468 -255 496 -227 q 398 -283 439 -283 z "},"a":{"ha":781,"x_min":82,"x_max":715,"o":"m 318 -11 q 197 16 250 -11 q 113 91 144 43 q 82 205 82 140 q 117 324 82 271 q 222 407 152 376 q 399 438 292 438 l 553 438 l 553 336 l 414 336 q 321 324 366 336 q 246 284 275 312 q 216 209 216 256 q 233 152 216 176 q 278 115 250 128 q 342 102 307 102 q 428 121 384 102 q 502 174 472 139 q 532 260 532 210 l 532 338 l 527 378 l 527 463 q 524 506 527 481 q 507 555 520 531 q 465 594 494 578 q 386 610 436 610 q 315 602 353 610 q 241 579 277 594 q 177 545 205 565 l 128 663 q 209 700 164 684 q 302 725 254 716 q 397 733 351 733 q 552 696 494 733 q 634 598 609 659 q 659 465 659 538 l 659 220 q 668 151 659 176 q 701 117 677 126 l 715 111 l 665 -11 l 644 -3 q 573 46 602 14 q 543 111 545 78 l 572 97 l 517 97 l 554 115 q 466 26 529 64 q 318 -11 402 -11 z "},"á":{"ha":781,"x_min":82,"x_max":715,"o":"m 318 -11 q 197 16 250 -11 q 113 91 144 43 q 82 205 82 140 q 117 324 82 271 q 222 407 152 376 q 399 438 292 438 l 553 438 l 553 336 l 414 336 q 321 324 366 336 q 246 284 275 312 q 216 209 216 256 q 233 152 216 176 q 278 115 250 128 q 342 102 307 102 q 428 121 384 102 q 502 174 472 139 q 532 260 532 210 l 532 338 l 527 378 l 527 463 q 524 506 527 481 q 507 555 520 531 q 465 594 494 578 q 386 610 436 610 q 315 602 353 610 q 241 579 277 594 q 177 545 205 565 l 128 663 q 209 700 164 684 q 302 725 254 716 q 397 733 351 733 q 552 696 494 733 q 634 598 609 659 q 659 465 659 538 l 659 220 q 668 151 659 176 q 701 117 677 126 l 715 111 l 665 -11 l 644 -3 q 573 46 602 14 q 543 111 545 78 l 572 97 l 517 97 l 554 115 q 466 26 529 64 q 318 -11 402 -11 m 395 794 l 332 850 l 503 1091 l 598 1004 l 395 794 z "},"ă":{"ha":781,"x_min":82,"x_max":715,"o":"m 318 -11 q 197 16 250 -11 q 113 91 144 43 q 82 205 82 140 q 117 324 82 271 q 222 407 152 376 q 399 438 292 438 l 553 438 l 553 336 l 414 336 q 321 324 366 336 q 246 284 275 312 q 216 209 216 256 q 233 152 216 176 q 278 115 250 128 q 342 102 307 102 q 428 121 384 102 q 502 174 472 139 q 532 260 532 210 l 532 338 l 527 378 l 527 463 q 524 506 527 481 q 507 555 520 531 q 465 594 494 578 q 386 610 436 610 q 315 602 353 610 q 241 579 277 594 q 177 545 205 565 l 128 663 q 209 700 164 684 q 302 725 254 716 q 397 733 351 733 q 552 696 494 733 q 634 598 609 659 q 659 465 659 538 l 659 220 q 668 151 659 176 q 701 117 677 126 l 715 111 l 665 -11 l 644 -3 q 573 46 602 14 q 543 111 545 78 l 572 97 l 517 97 l 554 115 q 466 26 529 64 q 318 -11 402 -11 m 395 819 q 281 847 332 819 q 199 924 229 876 q 170 1033 170 972 l 262 1033 q 300 940 261 977 q 395 902 338 902 q 492 940 454 902 q 530 1033 530 977 l 623 1033 q 593 924 623 972 q 512 847 563 876 q 395 819 460 819 z "},"ắ":{"ha":781,"x_min":82,"x_max":715,"o":"m 318 -11 q 197 16 250 -11 q 113 91 144 43 q 82 205 82 140 q 117 324 82 271 q 222 407 152 376 q 399 438 292 438 l 553 438 l 553 336 l 414 336 q 321 324 366 336 q 246 284 275 312 q 216 209 216 256 q 233 152 216 176 q 278 115 250 128 q 342 102 307 102 q 428 121 384 102 q 502 174 472 139 q 532 260 532 210 l 532 338 l 527 378 l 527 463 q 524 506 527 481 q 507 555 520 531 q 465 594 494 578 q 386 610 436 610 q 315 602 353 610 q 241 579 277 594 q 177 545 205 565 l 128 663 q 209 700 164 684 q 302 725 254 716 q 397 733 351 733 q 552 696 494 733 q 634 598 609 659 q 659 465 659 538 l 659 220 q 668 151 659 176 q 701 117 677 126 l 715 111 l 665 -11 l 644 -3 q 573 46 602 14 q 543 111 545 78 l 572 97 l 517 97 l 554 115 q 466 26 529 64 q 318 -11 402 -11 m 378 965 l 323 1034 l 532 1226 l 596 1139 l 378 965 m 397 819 q 280 844 331 819 q 200 913 229 869 q 172 1014 172 958 l 258 1014 q 297 931 258 963 q 397 899 336 899 q 496 931 457 899 q 535 1014 535 963 l 623 1014 q 593 913 623 958 q 514 844 564 869 q 397 819 463 819 z "},"ặ":{"ha":781,"x_min":82,"x_max":715,"o":"m 318 -11 q 197 16 250 -11 q 113 91 144 43 q 82 205 82 140 q 117 324 82 271 q 222 407 152 376 q 399 438 292 438 l 553 438 l 553 336 l 414 336 q 321 324 366 336 q 246 284 275 312 q 216 209 216 256 q 233 152 216 176 q 278 115 250 128 q 342 102 307 102 q 428 121 384 102 q 502 174 472 139 q 532 260 532 210 l 532 338 l 527 378 l 527 463 q 524 506 527 481 q 507 555 520 531 q 465 594 494 578 q 386 610 436 610 q 315 602 353 610 q 241 579 277 594 q 177 545 205 565 l 128 663 q 209 700 164 684 q 302 725 254 716 q 397 733 351 733 q 552 696 494 733 q 634 598 609 659 q 659 465 659 538 l 659 220 q 668 151 659 176 q 701 117 677 126 l 715 111 l 665 -11 l 644 -3 q 573 46 602 14 q 543 111 545 78 l 572 97 l 517 97 l 554 115 q 466 26 529 64 q 318 -11 402 -11 m 389 -283 q 320 -255 348 -283 q 292 -185 292 -227 q 320 -116 292 -144 q 389 -87 348 -87 q 459 -116 431 -87 q 487 -185 487 -144 q 459 -255 487 -227 q 389 -283 431 -283 m 395 819 q 281 847 332 819 q 199 924 229 876 q 170 1033 170 972 l 262 1033 q 300 940 261 977 q 395 902 338 902 q 492 940 454 902 q 530 1033 530 977 l 623 1033 q 593 924 623 972 q 512 847 563 876 q 395 819 460 819 z "},"ằ":{"ha":781,"x_min":82,"x_max":715,"o":"m 318 -11 q 197 16 250 -11 q 113 91 144 43 q 82 205 82 140 q 117 324 82 271 q 222 407 152 376 q 399 438 292 438 l 553 438 l 553 336 l 414 336 q 321 324 366 336 q 246 284 275 312 q 216 209 216 256 q 233 152 216 176 q 278 115 250 128 q 342 102 307 102 q 428 121 384 102 q 502 174 472 139 q 532 260 532 210 l 532 338 l 527 378 l 527 463 q 524 506 527 481 q 507 555 520 531 q 465 594 494 578 q 386 610 436 610 q 315 602 353 610 q 241 579 277 594 q 177 545 205 565 l 128 663 q 209 700 164 684 q 302 725 254 716 q 397 733 351 733 q 552 696 494 733 q 634 598 609 659 q 659 465 659 538 l 659 220 q 668 151 659 176 q 701 117 677 126 l 715 111 l 665 -11 l 644 -3 q 573 46 602 14 q 543 111 545 78 l 572 97 l 517 97 l 554 115 q 466 26 529 64 q 318 -11 402 -11 m 416 965 l 197 1139 l 261 1226 l 470 1034 l 416 965 m 397 819 q 280 844 331 819 q 200 913 229 869 q 171 1014 171 958 l 258 1014 q 297 931 258 963 q 397 899 336 899 q 496 931 458 899 q 535 1014 535 963 l 623 1014 q 593 913 623 958 q 514 844 564 869 q 397 819 463 819 z "},"ẳ":{"ha":781,"x_min":82,"x_max":715,"o":"m 318 -11 q 197 16 250 -11 q 113 91 144 43 q 82 205 82 140 q 117 324 82 271 q 222 407 152 376 q 399 438 292 438 l 553 438 l 553 336 l 414 336 q 321 324 366 336 q 246 284 275 312 q 216 209 216 256 q 233 152 216 176 q 278 115 250 128 q 342 102 307 102 q 428 121 384 102 q 502 174 472 139 q 532 260 532 210 l 532 338 l 527 378 l 527 463 q 524 506 527 481 q 507 555 520 531 q 465 594 494 578 q 386 610 436 610 q 315 602 353 610 q 241 579 277 594 q 177 545 205 565 l 128 663 q 209 700 164 684 q 302 725 254 716 q 397 733 351 733 q 552 696 494 733 q 634 598 609 659 q 659 465 659 538 l 659 220 q 668 151 659 176 q 701 117 677 126 l 715 111 l 665 -11 l 644 -3 q 573 46 602 14 q 543 111 545 78 l 572 97 l 517 97 l 554 115 q 466 26 529 64 q 318 -11 402 -11 m 397 819 q 280 844 331 819 q 200 913 229 869 q 171 1014 171 958 l 258 1014 q 297 931 258 963 q 397 899 336 899 q 496 931 458 899 q 535 1014 535 963 l 623 1014 q 593 913 623 958 q 514 844 564 869 q 397 819 463 819 m 414 960 l 359 1015 q 400 1048 383 1029 q 416 1090 416 1068 q 399 1126 416 1113 q 350 1139 382 1139 q 315 1135 336 1139 q 278 1125 294 1131 l 278 1213 q 319 1223 293 1219 q 363 1227 345 1227 q 467 1196 429 1227 q 505 1107 505 1165 q 477 1018 505 1059 q 414 960 450 977 z "},"ẵ":{"ha":781,"x_min":82,"x_max":715,"o":"m 318 -11 q 197 16 250 -11 q 113 91 144 43 q 82 205 82 140 q 117 324 82 271 q 222 407 152 376 q 399 438 292 438 l 553 438 l 553 336 l 414 336 q 321 324 366 336 q 246 284 275 312 q 216 209 216 256 q 233 152 216 176 q 278 115 250 128 q 342 102 307 102 q 428 121 384 102 q 502 174 472 139 q 532 260 532 210 l 532 338 l 527 378 l 527 463 q 524 506 527 481 q 507 555 520 531 q 465 594 494 578 q 386 610 436 610 q 315 602 353 610 q 241 579 277 594 q 177 545 205 565 l 128 663 q 209 700 164 684 q 302 725 254 716 q 397 733 351 733 q 552 696 494 733 q 634 598 609 659 q 659 465 659 538 l 659 220 q 668 151 659 176 q 701 117 677 126 l 715 111 l 665 -11 l 644 -3 q 573 46 602 14 q 543 111 545 78 l 572 97 l 517 97 l 554 115 q 466 26 529 64 q 318 -11 402 -11 m 170 1059 q 207 1182 170 1135 q 307 1228 244 1228 q 366 1217 342 1228 q 407 1190 389 1205 q 441 1162 425 1174 q 477 1151 458 1151 q 518 1171 505 1151 q 532 1228 532 1192 l 623 1228 q 608 1142 625 1180 q 560 1081 591 1103 q 486 1059 529 1059 q 430 1071 453 1059 q 388 1099 406 1083 q 353 1127 370 1116 q 315 1139 336 1139 q 275 1119 290 1139 q 260 1059 261 1099 l 170 1059 m 397 819 q 280 844 331 819 q 200 913 229 869 q 171 1014 171 958 l 258 1014 q 297 931 258 963 q 397 899 336 899 q 496 931 458 899 q 535 1014 535 963 l 623 1014 q 593 913 623 958 q 514 844 564 869 q 397 819 463 819 z "},"ǎ":{"ha":781,"x_min":82,"x_max":715,"o":"m 318 -11 q 197 16 250 -11 q 113 91 144 43 q 82 205 82 140 q 117 324 82 271 q 222 407 152 376 q 399 438 292 438 l 553 438 l 553 336 l 414 336 q 321 324 366 336 q 246 284 275 312 q 216 209 216 256 q 233 152 216 176 q 278 115 250 128 q 342 102 307 102 q 428 121 384 102 q 502 174 472 139 q 532 260 532 210 l 532 338 l 527 378 l 527 463 q 524 506 527 481 q 507 555 520 531 q 465 594 494 578 q 386 610 436 610 q 315 602 353 610 q 241 579 277 594 q 177 545 205 565 l 128 663 q 209 700 164 684 q 302 725 254 716 q 397 733 351 733 q 552 696 494 733 q 634 598 609 659 q 659 465 659 538 l 659 220 q 668 151 659 176 q 701 117 677 126 l 715 111 l 665 -11 l 644 -3 q 573 46 602 14 q 543 111 545 78 l 572 97 l 517 97 l 554 115 q 466 26 529 64 q 318 -11 402 -11 m 229 1063 l 395 904 l 400 904 l 563 1063 l 622 995 l 412 800 l 379 800 l 170 995 l 229 1063 z "},"â":{"ha":781,"x_min":82,"x_max":715,"o":"m 318 -11 q 197 16 250 -11 q 113 91 144 43 q 82 205 82 140 q 117 324 82 271 q 222 407 152 376 q 399 438 292 438 l 553 438 l 553 336 l 414 336 q 321 324 366 336 q 246 284 275 312 q 216 209 216 256 q 233 152 216 176 q 278 115 250 128 q 342 102 307 102 q 428 121 384 102 q 502 174 472 139 q 532 260 532 210 l 532 338 l 527 378 l 527 463 q 524 506 527 481 q 507 555 520 531 q 465 594 494 578 q 386 610 436 610 q 315 602 353 610 q 241 579 277 594 q 177 545 205 565 l 128 663 q 209 700 164 684 q 302 725 254 716 q 397 733 351 733 q 552 696 494 733 q 634 598 609 659 q 659 465 659 538 l 659 220 q 668 151 659 176 q 701 117 677 126 l 715 111 l 665 -11 l 644 -3 q 573 46 602 14 q 543 111 545 78 l 572 97 l 517 97 l 554 115 q 466 26 529 64 q 318 -11 402 -11 m 229 797 l 170 865 l 378 1059 l 412 1059 l 621 865 l 562 797 l 399 956 l 394 956 l 229 797 z "},"ấ":{"ha":781,"x_min":82,"x_max":795,"o":"m 318 -11 q 197 16 250 -11 q 113 91 144 43 q 82 205 82 140 q 117 324 82 271 q 222 407 152 376 q 399 438 292 438 l 553 438 l 553 336 l 414 336 q 321 324 366 336 q 246 284 275 312 q 216 209 216 256 q 233 152 216 176 q 278 115 250 128 q 342 102 307 102 q 428 121 384 102 q 502 174 472 139 q 532 260 532 210 l 532 338 l 527 378 l 527 463 q 524 506 527 481 q 507 555 520 531 q 465 594 494 578 q 386 610 436 610 q 315 602 353 610 q 241 579 277 594 q 177 545 205 565 l 128 663 q 209 700 164 684 q 302 725 254 716 q 397 733 351 733 q 552 696 494 733 q 634 598 609 659 q 659 465 659 538 l 659 220 q 668 151 659 176 q 701 117 677 126 l 715 111 l 665 -11 l 644 -3 q 573 46 602 14 q 543 111 545 78 l 572 97 l 517 97 l 554 115 q 466 26 529 64 q 318 -11 402 -11 m 593 971 l 528 1019 l 724 1223 l 795 1133 l 593 971 m 231 804 l 164 873 l 380 1031 l 414 1031 l 628 873 l 562 804 l 399 931 l 393 931 l 231 804 z "},"ậ":{"ha":781,"x_min":82,"x_max":715,"o":"m 318 -11 q 197 16 250 -11 q 113 91 144 43 q 82 205 82 140 q 117 324 82 271 q 222 407 152 376 q 399 438 292 438 l 553 438 l 553 336 l 414 336 q 321 324 366 336 q 246 284 275 312 q 216 209 216 256 q 233 152 216 176 q 278 115 250 128 q 342 102 307 102 q 428 121 384 102 q 502 174 472 139 q 532 260 532 210 l 532 338 l 527 378 l 527 463 q 524 506 527 481 q 507 555 520 531 q 465 594 494 578 q 386 610 436 610 q 315 602 353 610 q 241 579 277 594 q 177 545 205 565 l 128 663 q 209 700 164 684 q 302 725 254 716 q 397 733 351 733 q 552 696 494 733 q 634 598 609 659 q 659 465 659 538 l 659 220 q 668 151 659 176 q 701 117 677 126 l 715 111 l 665 -11 l 644 -3 q 573 46 602 14 q 543 111 545 78 l 572 97 l 517 97 l 554 115 q 466 26 529 64 q 318 -11 402 -11 m 389 -283 q 320 -255 348 -283 q 292 -185 292 -227 q 320 -116 292 -144 q 389 -87 348 -87 q 459 -116 431 -87 q 487 -185 487 -144 q 459 -255 487 -227 q 389 -283 431 -283 m 229 797 l 170 865 l 378 1059 l 412 1059 l 621 865 l 562 797 l 399 956 l 394 956 l 229 797 z "},"ầ":{"ha":781,"x_min":-1,"x_max":715,"o":"m 318 -11 q 197 16 250 -11 q 113 91 144 43 q 82 205 82 140 q 117 324 82 271 q 222 407 152 376 q 399 438 292 438 l 553 438 l 553 336 l 414 336 q 321 324 366 336 q 246 284 275 312 q 216 209 216 256 q 233 152 216 176 q 278 115 250 128 q 342 102 307 102 q 428 121 384 102 q 502 174 472 139 q 532 260 532 210 l 532 338 l 527 378 l 527 463 q 524 506 527 481 q 507 555 520 531 q 465 594 494 578 q 386 610 436 610 q 315 602 353 610 q 241 579 277 594 q 177 545 205 565 l 128 663 q 209 700 164 684 q 302 725 254 716 q 397 733 351 733 q 552 696 494 733 q 634 598 609 659 q 659 465 659 538 l 659 220 q 668 151 659 176 q 701 117 677 126 l 715 111 l 665 -11 l 644 -3 q 573 46 602 14 q 543 111 545 78 l 572 97 l 517 97 l 554 115 q 466 26 529 64 q 318 -11 402 -11 m 200 971 l -1 1133 l 69 1223 l 265 1019 l 200 971 m 562 804 l 399 931 l 395 931 l 231 804 l 165 873 l 380 1031 l 413 1031 l 629 873 l 562 804 z "},"ẩ":{"ha":781,"x_min":82,"x_max":715,"o":"m 318 -11 q 197 16 250 -11 q 113 91 144 43 q 82 205 82 140 q 117 324 82 271 q 222 407 152 376 q 399 438 292 438 l 553 438 l 553 336 l 414 336 q 321 324 366 336 q 246 284 275 312 q 216 209 216 256 q 233 152 216 176 q 278 115 250 128 q 342 102 307 102 q 428 121 384 102 q 502 174 472 139 q 532 260 532 210 l 532 338 l 527 378 l 527 463 q 524 506 527 481 q 507 555 520 531 q 465 594 494 578 q 386 610 436 610 q 315 602 353 610 q 241 579 277 594 q 177 545 205 565 l 128 663 q 209 700 164 684 q 302 725 254 716 q 397 733 351 733 q 552 696 494 733 q 634 598 609 659 q 659 465 659 538 l 659 220 q 668 151 659 176 q 701 117 677 126 l 715 111 l 665 -11 l 644 -3 q 573 46 602 14 q 543 111 545 78 l 572 97 l 517 97 l 554 115 q 466 26 529 64 q 318 -11 402 -11 m 581 969 l 524 1011 q 559 1049 545 1029 q 573 1086 573 1069 q 556 1124 573 1110 q 507 1137 538 1137 q 471 1134 490 1137 q 435 1123 452 1131 l 435 1212 q 476 1222 450 1219 q 524 1225 503 1225 q 624 1196 585 1225 q 663 1106 663 1166 q 649 1049 663 1076 q 617 1002 636 1022 q 581 969 597 981 m 232 804 l 165 873 l 380 1031 l 414 1031 l 629 873 l 563 804 l 399 931 l 395 931 l 232 804 z "},"ẫ":{"ha":781,"x_min":82,"x_max":715,"o":"m 318 -11 q 197 16 250 -11 q 113 91 144 43 q 82 205 82 140 q 117 324 82 271 q 222 407 152 376 q 399 438 292 438 l 553 438 l 553 336 l 414 336 q 321 324 366 336 q 246 284 275 312 q 216 209 216 256 q 233 152 216 176 q 278 115 250 128 q 342 102 307 102 q 428 121 384 102 q 502 174 472 139 q 532 260 532 210 l 532 338 l 527 378 l 527 463 q 524 506 527 481 q 507 555 520 531 q 465 594 494 578 q 386 610 436 610 q 315 602 353 610 q 241 579 277 594 q 177 545 205 565 l 128 663 q 209 700 164 684 q 302 725 254 716 q 397 733 351 733 q 552 696 494 733 q 634 598 609 659 q 659 465 659 538 l 659 220 q 668 151 659 176 q 701 117 677 126 l 715 111 l 665 -11 l 644 -3 q 573 46 602 14 q 543 111 545 78 l 572 97 l 517 97 l 554 115 q 466 26 529 64 q 318 -11 402 -11 m 170 1059 q 207 1182 170 1135 q 307 1228 244 1228 q 365 1217 342 1228 q 406 1190 389 1205 q 440 1162 424 1174 q 478 1151 457 1151 q 517 1171 503 1151 q 532 1228 532 1192 l 624 1228 q 610 1142 625 1180 q 566 1081 595 1103 q 496 1059 537 1059 q 438 1071 462 1059 q 397 1099 414 1083 q 362 1127 379 1116 q 324 1139 345 1139 q 280 1120 298 1139 q 261 1059 262 1100 l 170 1059 m 231 804 l 165 873 l 380 1031 l 414 1031 l 629 873 l 563 804 l 399 931 l 394 931 l 231 804 z "},"ȁ":{"ha":781,"x_min":82,"x_max":715,"o":"m 318 -11 q 197 16 250 -11 q 113 91 144 43 q 82 205 82 140 q 117 324 82 271 q 222 407 152 376 q 399 438 292 438 l 553 438 l 553 336 l 414 336 q 321 324 366 336 q 246 284 275 312 q 216 209 216 256 q 233 152 216 176 q 278 115 250 128 q 342 102 307 102 q 428 121 384 102 q 502 174 472 139 q 532 260 532 210 l 532 338 l 527 378 l 527 463 q 524 506 527 481 q 507 555 520 531 q 465 594 494 578 q 386 610 436 610 q 315 602 353 610 q 241 579 277 594 q 177 545 205 565 l 128 663 q 209 700 164 684 q 302 725 254 716 q 397 733 351 733 q 552 696 494 733 q 634 598 609 659 q 659 465 659 538 l 659 220 q 668 151 659 176 q 701 117 677 126 l 715 111 l 665 -11 l 644 -3 q 573 46 602 14 q 543 111 545 78 l 572 97 l 517 97 l 554 115 q 466 26 529 64 q 318 -11 402 -11 m 500 801 l 348 1039 l 446 1088 l 576 821 l 500 801 m 284 801 l 130 1039 l 227 1088 l 359 821 l 284 801 z "},"ä":{"ha":781,"x_min":82,"x_max":715,"o":"m 318 -11 q 197 16 250 -11 q 113 91 144 43 q 82 205 82 140 q 117 324 82 271 q 222 407 152 376 q 399 438 292 438 l 553 438 l 553 336 l 414 336 q 321 324 366 336 q 246 284 275 312 q 216 209 216 256 q 233 152 216 176 q 278 115 250 128 q 342 102 307 102 q 428 121 384 102 q 502 174 472 139 q 532 260 532 210 l 532 338 l 527 378 l 527 463 q 524 506 527 481 q 507 555 520 531 q 465 594 494 578 q 386 610 436 610 q 315 602 353 610 q 241 579 277 594 q 177 545 205 565 l 128 663 q 209 700 164 684 q 302 725 254 716 q 397 733 351 733 q 552 696 494 733 q 634 598 609 659 q 659 465 659 538 l 659 220 q 668 151 659 176 q 701 117 677 126 l 715 111 l 665 -11 l 644 -3 q 573 46 602 14 q 543 111 545 78 l 572 97 l 517 97 l 554 115 q 466 26 529 64 q 318 -11 402 -11 m 538 838 q 473 865 500 838 q 446 931 446 892 q 473 997 446 970 q 538 1024 500 1024 q 605 997 578 1024 q 631 931 631 970 q 605 865 631 892 q 538 838 578 838 m 255 838 q 189 865 216 838 q 162 931 162 892 q 189 997 162 970 q 255 1024 216 1024 q 321 997 294 1024 q 347 931 347 970 q 321 865 347 892 q 255 838 294 838 z "},"ȧ":{"ha":781,"x_min":82,"x_max":715,"o":"m 318 -11 q 197 16 250 -11 q 113 91 144 43 q 82 205 82 140 q 117 324 82 271 q 222 407 152 376 q 399 438 292 438 l 553 438 l 553 336 l 414 336 q 321 324 366 336 q 246 284 275 312 q 216 209 216 256 q 233 152 216 176 q 278 115 250 128 q 342 102 307 102 q 428 121 384 102 q 502 174 472 139 q 532 260 532 210 l 532 338 l 527 378 l 527 463 q 524 506 527 481 q 507 555 520 531 q 465 594 494 578 q 386 610 436 610 q 315 602 353 610 q 241 579 277 594 q 177 545 205 565 l 128 663 q 209 700 164 684 q 302 725 254 716 q 397 733 351 733 q 552 696 494 733 q 634 598 609 659 q 659 465 659 538 l 659 220 q 668 151 659 176 q 701 117 677 126 l 715 111 l 665 -11 l 644 -3 q 573 46 602 14 q 543 111 545 78 l 572 97 l 517 97 l 554 115 q 466 26 529 64 q 318 -11 402 -11 m 397 829 q 327 858 355 829 q 299 927 299 886 q 327 997 299 968 q 397 1025 355 1025 q 466 997 438 1025 q 494 927 494 968 q 466 858 494 886 q 397 829 438 829 z "},"ạ":{"ha":781,"x_min":82,"x_max":715,"o":"m 318 -11 q 197 16 250 -11 q 113 91 144 43 q 82 205 82 140 q 117 324 82 271 q 222 407 152 376 q 399 438 292 438 l 553 438 l 553 336 l 414 336 q 321 324 366 336 q 246 284 275 312 q 216 209 216 256 q 233 152 216 176 q 278 115 250 128 q 342 102 307 102 q 428 121 384 102 q 502 174 472 139 q 532 260 532 210 l 532 338 l 527 378 l 527 463 q 524 506 527 481 q 507 555 520 531 q 465 594 494 578 q 386 610 436 610 q 315 602 353 610 q 241 579 277 594 q 177 545 205 565 l 128 663 q 209 700 164 684 q 302 725 254 716 q 397 733 351 733 q 552 696 494 733 q 634 598 609 659 q 659 465 659 538 l 659 220 q 668 151 659 176 q 701 117 677 126 l 715 111 l 665 -11 l 644 -3 q 573 46 602 14 q 543 111 545 78 l 572 97 l 517 97 l 554 115 q 466 26 529 64 q 318 -11 402 -11 m 389 -283 q 320 -255 348 -283 q 292 -185 292 -227 q 320 -116 292 -144 q 389 -87 348 -87 q 459 -116 431 -87 q 487 -185 487 -144 q 459 -255 487 -227 q 389 -283 431 -283 z "},"à":{"ha":781,"x_min":82,"x_max":715,"o":"m 318 -11 q 197 16 250 -11 q 113 91 144 43 q 82 205 82 140 q 117 324 82 271 q 222 407 152 376 q 399 438 292 438 l 553 438 l 553 336 l 414 336 q 321 324 366 336 q 246 284 275 312 q 216 209 216 256 q 233 152 216 176 q 278 115 250 128 q 342 102 307 102 q 428 121 384 102 q 502 174 472 139 q 532 260 532 210 l 532 338 l 527 378 l 527 463 q 524 506 527 481 q 507 555 520 531 q 465 594 494 578 q 386 610 436 610 q 315 602 353 610 q 241 579 277 594 q 177 545 205 565 l 128 663 q 209 700 164 684 q 302 725 254 716 q 397 733 351 733 q 552 696 494 733 q 634 598 609 659 q 659 465 659 538 l 659 220 q 668 151 659 176 q 701 117 677 126 l 715 111 l 665 -11 l 644 -3 q 573 46 602 14 q 543 111 545 78 l 572 97 l 517 97 l 554 115 q 466 26 529 64 q 318 -11 402 -11 m 398 794 l 195 1004 l 290 1091 l 461 850 l 398 794 z "},"ả":{"ha":781,"x_min":82,"x_max":715,"o":"m 318 -11 q 197 16 250 -11 q 113 91 144 43 q 82 205 82 140 q 117 324 82 271 q 222 407 152 376 q 399 438 292 438 l 553 438 l 553 336 l 414 336 q 321 324 366 336 q 246 284 275 312 q 216 209 216 256 q 233 152 216 176 q 278 115 250 128 q 342 102 307 102 q 428 121 384 102 q 502 174 472 139 q 532 260 532 210 l 532 338 l 527 378 l 527 463 q 524 506 527 481 q 507 555 520 531 q 465 594 494 578 q 386 610 436 610 q 315 602 353 610 q 241 579 277 594 q 177 545 205 565 l 128 663 q 209 700 164 684 q 302 725 254 716 q 397 733 351 733 q 552 696 494 733 q 634 598 609 659 q 659 465 659 538 l 659 220 q 668 151 659 176 q 701 117 677 126 l 715 111 l 665 -11 l 644 -3 q 573 46 602 14 q 543 111 545 78 l 572 97 l 517 97 l 554 115 q 466 26 529 64 q 318 -11 402 -11 m 417 794 l 363 850 q 403 883 387 863 q 420 924 420 902 q 402 960 420 947 q 354 972 385 972 q 318 969 340 972 q 281 959 297 966 l 281 1046 q 322 1057 296 1053 q 367 1061 349 1061 q 470 1030 432 1061 q 508 942 508 1000 q 480 852 508 892 q 417 794 453 811 z "},"ȃ":{"ha":781,"x_min":82,"x_max":715,"o":"m 318 -11 q 197 16 250 -11 q 113 91 144 43 q 82 205 82 140 q 117 324 82 271 q 222 407 152 376 q 399 438 292 438 l 553 438 l 553 336 l 414 336 q 321 324 366 336 q 246 284 275 312 q 216 209 216 256 q 233 152 216 176 q 278 115 250 128 q 342 102 307 102 q 428 121 384 102 q 502 174 472 139 q 532 260 532 210 l 532 338 l 527 378 l 527 463 q 524 506 527 481 q 507 555 520 531 q 465 594 494 578 q 386 610 436 610 q 315 602 353 610 q 241 579 277 594 q 177 545 205 565 l 128 663 q 209 700 164 684 q 302 725 254 716 q 397 733 351 733 q 552 696 494 733 q 634 598 609 659 q 659 465 659 538 l 659 220 q 668 151 659 176 q 701 117 677 126 l 715 111 l 665 -11 l 644 -3 q 573 46 602 14 q 543 111 545 78 l 572 97 l 517 97 l 554 115 q 466 26 529 64 q 318 -11 402 -11 m 395 1036 q 512 1008 460 1036 q 593 931 563 980 q 623 823 623 883 l 530 823 q 492 916 530 879 q 395 954 454 954 q 300 916 338 954 q 262 823 262 879 l 170 823 q 199 931 170 883 q 281 1008 229 980 q 395 1036 332 1036 z "},"ā":{"ha":781,"x_min":82,"x_max":715,"o":"m 318 -11 q 197 16 250 -11 q 113 91 144 43 q 82 205 82 140 q 117 324 82 271 q 222 407 152 376 q 399 438 292 438 l 553 438 l 553 336 l 414 336 q 321 324 366 336 q 246 284 275 312 q 216 209 216 256 q 233 152 216 176 q 278 115 250 128 q 342 102 307 102 q 428 121 384 102 q 502 174 472 139 q 532 260 532 210 l 532 338 l 527 378 l 527 463 q 524 506 527 481 q 507 555 520 531 q 465 594 494 578 q 386 610 436 610 q 315 602 353 610 q 241 579 277 594 q 177 545 205 565 l 128 663 q 209 700 164 684 q 302 725 254 716 q 397 733 351 733 q 552 696 494 733 q 634 598 609 659 q 659 465 659 538 l 659 220 q 668 151 659 176 q 701 117 677 126 l 715 111 l 665 -11 l 644 -3 q 573 46 602 14 q 543 111 545 78 l 572 97 l 517 97 l 554 115 q 466 26 529 64 q 318 -11 402 -11 m 151 869 l 151 958 l 640 958 l 640 869 l 151 869 z "},"ą":{"ha":781,"x_min":82,"x_max":715,"o":"m 627 -286 q 534 -251 568 -286 q 500 -168 500 -216 q 518 -94 500 -129 q 561 -29 536 -59 q 604 26 585 1 l 665 -11 q 613 -81 634 -47 q 592 -147 592 -115 q 609 -184 592 -172 q 647 -197 625 -197 q 677 -193 661 -197 q 712 -178 694 -189 l 712 -266 q 670 -281 695 -276 q 627 -286 644 -286 m 318 -11 q 197 16 250 -11 q 113 91 144 43 q 82 205 82 140 q 117 324 82 271 q 222 407 152 376 q 399 438 292 438 l 553 438 l 553 336 l 414 336 q 321 324 366 336 q 246 284 275 312 q 216 209 216 256 q 233 152 216 176 q 278 115 250 128 q 342 102 307 102 q 428 121 384 102 q 502 174 472 139 q 532 260 532 210 l 532 338 l 527 378 l 527 463 q 524 506 527 481 q 507 555 520 531 q 465 594 494 578 q 386 610 436 610 q 315 602 353 610 q 241 579 277 594 q 177 545 205 565 l 128 663 q 209 700 164 684 q 302 725 254 716 q 397 733 351 733 q 552 696 494 733 q 634 598 609 659 q 659 465 659 538 l 659 220 q 668 151 659 176 q 701 117 677 126 l 715 111 l 665 -11 l 644 -3 q 573 46 602 14 q 543 111 545 78 l 572 97 l 517 97 l 554 115 q 466 26 529 64 q 318 -11 402 -11 z "},"å":{"ha":781,"x_min":82,"x_max":715,"o":"m 318 -11 q 197 16 250 -11 q 113 91 144 43 q 82 205 82 140 q 117 324 82 271 q 222 407 152 376 q 399 438 292 438 l 553 438 l 553 336 l 414 336 q 321 324 366 336 q 246 284 275 312 q 216 209 216 256 q 233 152 216 176 q 278 115 250 128 q 342 102 307 102 q 428 121 384 102 q 502 174 472 139 q 532 260 532 210 l 532 338 l 527 378 l 527 463 q 524 506 527 481 q 507 555 520 531 q 465 594 494 578 q 386 610 436 610 q 315 602 353 610 q 241 579 277 594 q 177 545 205 565 l 128 663 q 209 700 164 684 q 302 725 254 716 q 397 733 351 733 q 552 696 494 733 q 634 598 609 659 q 659 465 659 538 l 659 220 q 668 151 659 176 q 701 117 677 126 l 715 111 l 665 -11 l 644 -3 q 573 46 602 14 q 543 111 545 78 l 572 97 l 517 97 l 554 115 q 466 26 529 64 q 318 -11 402 -11 m 397 814 q 291 856 333 814 q 248 958 248 898 q 291 1061 248 1021 q 397 1102 333 1102 q 503 1061 460 1102 q 545 958 545 1021 q 503 856 545 898 q 397 814 460 814 m 397 885 q 449 907 429 885 q 469 958 469 928 q 449 1010 469 991 q 397 1030 429 1030 q 346 1010 367 1030 q 324 958 324 991 q 346 907 324 928 q 397 885 367 885 z "},"ǻ":{"ha":781,"x_min":82,"x_max":715,"o":"m 397 814 q 291 856 333 814 q 248 958 248 898 q 291 1061 248 1021 q 397 1102 333 1102 q 503 1061 460 1102 q 545 958 545 1021 q 503 856 545 898 q 397 814 460 814 m 397 885 q 449 907 429 885 q 469 958 469 928 q 449 1010 469 991 q 397 1030 429 1030 q 346 1010 367 1030 q 325 958 325 991 q 346 907 325 928 q 397 885 367 885 m 444 1133 l 382 1198 l 591 1396 l 661 1308 l 444 1133 m 318 -11 q 197 16 250 -11 q 113 91 144 43 q 82 205 82 140 q 117 324 82 271 q 222 407 152 376 q 399 438 292 438 l 553 438 l 553 336 l 414 336 q 321 324 366 336 q 246 284 275 312 q 216 209 216 256 q 233 152 216 176 q 278 115 250 128 q 342 102 307 102 q 428 121 384 102 q 502 174 472 139 q 532 260 532 210 l 532 338 l 527 378 l 527 463 q 524 506 527 481 q 507 555 520 531 q 465 594 494 578 q 386 610 436 610 q 315 602 353 610 q 241 579 277 594 q 177 545 205 565 l 128 663 q 209 700 164 684 q 302 725 254 716 q 397 733 351 733 q 552 696 494 733 q 634 598 609 659 q 659 465 659 538 l 659 220 q 668 151 659 176 q 701 117 677 126 l 715 111 l 665 -11 l 644 -3 q 573 46 602 14 q 543 111 545 78 l 572 97 l 517 97 l 554 115 q 466 26 529 64 q 318 -11 402 -11 z "},"ã":{"ha":781,"x_min":82,"x_max":715,"o":"m 318 -11 q 197 16 250 -11 q 113 91 144 43 q 82 205 82 140 q 117 324 82 271 q 222 407 152 376 q 399 438 292 438 l 553 438 l 553 336 l 414 336 q 321 324 366 336 q 246 284 275 312 q 216 209 216 256 q 233 152 216 176 q 278 115 250 128 q 342 102 307 102 q 428 121 384 102 q 502 174 472 139 q 532 260 532 210 l 532 338 l 527 378 l 527 463 q 524 506 527 481 q 507 555 520 531 q 465 594 494 578 q 386 610 436 610 q 315 602 353 610 q 241 579 277 594 q 177 545 205 565 l 128 663 q 209 700 164 684 q 302 725 254 716 q 397 733 351 733 q 552 696 494 733 q 634 598 609 659 q 659 465 659 538 l 659 220 q 668 151 659 176 q 701 117 677 126 l 715 111 l 665 -11 l 644 -3 q 573 46 602 14 q 543 111 545 78 l 572 97 l 517 97 l 554 115 q 466 26 529 64 q 318 -11 402 -11 m 163 825 q 203 960 163 916 q 303 1005 243 1005 q 365 992 340 1005 q 408 961 390 979 q 443 929 426 943 q 480 916 460 916 q 522 942 508 916 q 535 1005 536 967 l 629 1005 q 589 871 629 917 q 489 825 550 825 q 430 839 454 825 q 387 871 406 852 q 350 903 368 889 q 311 917 332 917 q 271 892 285 917 q 256 825 257 867 l 163 825 z "},"æ":{"ha":781,"x_min":22,"x_max":758,"o":"m 203 -11 q 108 17 149 -11 q 45 93 68 44 q 22 204 22 141 q 86 364 22 309 q 256 419 150 419 l 342 419 l 342 314 l 281 314 q 187 287 224 314 q 150 206 150 260 q 172 137 150 164 q 224 111 193 111 q 294 154 264 111 q 323 268 323 198 l 323 429 q 319 524 323 483 q 295 587 314 565 q 233 610 275 610 q 157 594 196 610 q 96 561 119 579 l 53 677 q 134 715 84 698 q 239 733 184 733 q 358 695 317 733 q 415 593 400 657 l 376 593 q 443 694 393 654 q 558 733 494 733 q 667 692 622 733 q 735 575 711 651 q 758 396 758 500 q 757 350 758 372 q 752 314 755 328 l 419 314 l 414 419 l 640 419 q 621 557 642 505 q 551 610 600 610 q 487 581 515 610 q 445 498 460 552 q 429 370 429 444 q 446 233 429 290 q 496 144 463 175 q 578 113 530 113 q 633 127 602 113 q 693 168 665 142 l 741 48 q 693 17 721 31 q 636 -3 666 4 q 577 -11 606 -11 q 444 36 496 -11 q 362 163 391 83 l 397 163 q 364 79 390 119 q 297 14 338 39 q 203 -11 256 -11 z "},"ǽ":{"ha":781,"x_min":22,"x_max":758,"o":"m 203 -11 q 108 17 149 -11 q 45 93 68 44 q 22 204 22 141 q 86 364 22 309 q 256 419 150 419 l 342 419 l 342 314 l 281 314 q 187 287 224 314 q 150 206 150 260 q 172 137 150 164 q 224 111 193 111 q 294 154 264 111 q 323 268 323 198 l 323 429 q 319 524 323 483 q 295 587 314 565 q 233 610 275 610 q 157 594 196 610 q 96 561 119 579 l 53 677 q 134 715 84 698 q 239 733 184 733 q 358 695 317 733 q 415 593 400 657 l 376 593 q 443 694 393 654 q 558 733 494 733 q 667 692 622 733 q 735 575 711 651 q 758 396 758 500 q 757 350 758 372 q 752 314 755 328 l 419 314 l 414 419 l 640 419 q 621 557 642 505 q 551 610 600 610 q 487 581 515 610 q 445 498 460 552 q 429 370 429 444 q 446 233 429 290 q 496 144 463 175 q 578 113 530 113 q 633 127 602 113 q 693 168 665 142 l 741 48 q 693 17 721 31 q 636 -3 666 4 q 577 -11 606 -11 q 444 36 496 -11 q 362 163 391 83 l 397 163 q 364 79 390 119 q 297 14 338 39 q 203 -11 256 -11 m 389 794 l 326 850 l 496 1091 l 591 1004 l 389 794 z "},"b":{"ha":781,"x_min":99,"x_max":718,"o":"m 99 0 l 99 1044 l 237 1044 l 237 637 l 250 637 l 222 553 l 222 165 l 254 94 l 233 94 l 233 0 l 99 0 m 435 -11 q 288 36 351 -11 q 190 166 225 82 q 155 361 155 250 q 190 557 155 473 q 288 687 225 641 q 433 733 350 733 q 584 687 519 733 q 683 558 648 642 q 718 361 718 474 q 683 164 718 248 q 584 35 648 81 q 435 -11 520 -11 m 405 111 q 498 142 458 111 q 559 230 538 174 q 581 361 581 286 q 559 493 581 437 q 497 580 537 549 q 403 611 457 611 q 311 580 350 611 q 249 493 271 549 q 227 361 227 437 q 249 230 227 286 q 311 142 271 174 q 405 111 351 111 z "},"c":{"ha":781,"x_min":92,"x_max":682,"o":"m 451 -8 q 263 39 345 -8 q 137 170 182 86 q 92 364 92 254 q 136 556 92 473 q 261 686 181 640 q 446 733 341 733 q 569 712 505 733 q 680 654 634 690 l 627 538 q 549 588 598 568 q 451 608 500 608 q 336 577 385 608 q 258 491 286 547 q 230 363 230 436 q 258 235 230 290 q 337 148 286 180 q 454 117 387 117 q 555 138 507 117 q 629 187 604 159 l 682 71 q 575 14 639 36 q 451 -8 512 -8 z "},"ć":{"ha":781,"x_min":92,"x_max":682,"o":"m 451 -8 q 263 39 345 -8 q 137 170 182 86 q 92 364 92 254 q 136 556 92 473 q 261 686 181 640 q 446 733 341 733 q 569 712 505 733 q 680 654 634 690 l 627 538 q 549 588 598 568 q 451 608 500 608 q 336 577 385 608 q 258 491 286 547 q 230 363 230 436 q 258 235 230 290 q 337 148 286 180 q 454 117 387 117 q 555 138 507 117 q 629 187 604 159 l 682 71 q 575 14 639 36 q 451 -8 512 -8 m 447 794 l 384 850 l 555 1091 l 650 1004 l 447 794 z "},"č":{"ha":781,"x_min":92,"x_max":682,"o":"m 451 -8 q 263 39 345 -8 q 137 170 182 86 q 92 364 92 254 q 136 556 92 473 q 261 686 181 640 q 446 733 341 733 q 569 712 505 733 q 680 654 634 690 l 627 538 q 549 588 598 568 q 451 608 500 608 q 336 577 385 608 q 258 491 286 547 q 230 363 230 436 q 258 235 230 290 q 337 148 286 180 q 454 117 387 117 q 555 138 507 117 q 629 187 604 159 l 682 71 q 575 14 639 36 q 451 -8 512 -8 m 281 1063 l 446 904 l 452 904 l 614 1063 l 673 995 l 464 800 l 431 800 l 222 995 l 281 1063 z "},"ç":{"ha":781,"x_min":92,"x_max":682,"o":"m 451 -8 q 263 39 345 -8 q 137 170 182 86 q 92 364 92 254 q 136 556 92 473 q 261 686 181 640 q 446 733 341 733 q 569 712 505 733 q 680 654 634 690 l 627 538 q 549 588 598 568 q 451 608 500 608 q 336 577 385 608 q 258 491 286 547 q 230 363 230 436 q 258 235 230 290 q 337 148 286 180 q 454 117 387 117 q 555 138 507 117 q 629 187 604 159 l 682 71 q 575 14 639 36 q 451 -8 512 -8 m 344 -323 l 344 -246 q 448 -233 413 -248 q 482 -184 482 -217 q 455 -144 482 -161 q 381 -127 429 -128 l 420 0 l 489 0 l 454 -111 l 444 -73 q 537 -114 505 -83 q 570 -193 570 -144 q 515 -289 570 -254 q 344 -323 459 -323 z "},"ḉ":{"ha":781,"x_min":92,"x_max":682,"o":"m 451 -8 q 263 39 345 -8 q 137 170 182 86 q 92 364 92 254 q 136 556 92 473 q 261 686 181 640 q 446 733 341 733 q 569 712 505 733 q 680 654 634 690 l 627 538 q 549 588 598 568 q 451 608 500 608 q 336 577 385 608 q 258 491 286 547 q 230 363 230 436 q 258 235 230 290 q 337 148 286 180 q 454 117 387 117 q 555 138 507 117 q 629 187 604 159 l 682 71 q 575 14 639 36 q 451 -8 512 -8 m 344 -323 l 344 -246 q 448 -233 413 -248 q 482 -184 482 -217 q 455 -144 482 -161 q 381 -127 429 -128 l 420 0 l 489 0 l 454 -111 l 444 -73 q 537 -114 505 -83 q 570 -193 570 -144 q 515 -289 570 -254 q 344 -323 459 -323 m 447 794 l 384 850 l 555 1091 l 650 1004 l 447 794 z "},"ĉ":{"ha":781,"x_min":92,"x_max":682,"o":"m 451 -8 q 263 39 345 -8 q 137 170 182 86 q 92 364 92 254 q 136 556 92 473 q 261 686 181 640 q 446 733 341 733 q 569 712 505 733 q 680 654 634 690 l 627 538 q 549 588 598 568 q 451 608 500 608 q 336 577 385 608 q 258 491 286 547 q 230 363 230 436 q 258 235 230 290 q 337 148 286 180 q 454 117 387 117 q 555 138 507 117 q 629 187 604 159 l 682 71 q 575 14 639 36 q 451 -8 512 -8 m 279 797 l 220 865 l 429 1059 l 463 1059 l 672 865 l 613 797 l 450 956 l 445 956 l 279 797 z "},"ċ":{"ha":781,"x_min":92,"x_max":682,"o":"m 451 -8 q 263 39 345 -8 q 137 170 182 86 q 92 364 92 254 q 136 556 92 473 q 261 686 181 640 q 446 733 341 733 q 569 712 505 733 q 680 654 634 690 l 627 538 q 549 588 598 568 q 451 608 500 608 q 336 577 385 608 q 258 491 286 547 q 230 363 230 436 q 258 235 230 290 q 337 148 286 180 q 454 117 387 117 q 555 138 507 117 q 629 187 604 159 l 682 71 q 575 14 639 36 q 451 -8 512 -8 m 448 829 q 379 858 407 829 q 351 927 351 886 q 379 997 351 968 q 448 1025 407 1025 q 518 997 490 1025 q 546 927 546 968 q 518 858 546 886 q 448 829 490 829 z "},"d":{"ha":781,"x_min":63,"x_max":734,"o":"m 684 -11 q 599 54 630 16 q 564 129 568 92 l 584 113 l 530 113 l 559 195 l 559 567 l 530 640 l 545 640 l 545 1044 l 682 1044 l 682 211 q 696 150 682 178 q 734 111 711 123 l 684 -11 m 347 -11 q 197 35 261 -11 q 98 164 133 81 q 63 361 63 248 q 98 558 63 474 q 198 687 134 642 q 348 733 262 733 q 494 687 432 733 q 591 557 556 641 q 626 361 626 473 q 591 166 626 250 q 493 36 556 82 q 347 -11 431 -11 m 376 111 q 470 142 430 111 q 532 230 510 174 q 554 361 554 286 q 532 493 554 437 q 471 580 510 549 q 378 611 431 611 q 284 580 324 611 q 222 493 244 549 q 200 361 200 437 q 222 230 200 286 q 283 142 243 174 q 376 111 323 111 z "},"ď":{"ha":781,"x_min":46,"x_max":774,"o":"m 300 -11 q 164 35 221 -11 q 77 164 107 80 q 46 361 46 248 q 77 559 46 476 q 164 688 108 642 q 298 733 221 733 q 428 688 373 733 q 512 559 482 642 q 543 361 543 476 q 513 164 543 248 q 429 35 484 80 q 300 -11 375 -11 m 328 111 q 406 142 373 111 q 457 229 439 173 q 475 361 475 285 q 457 494 475 438 q 407 581 439 550 q 330 611 374 611 q 252 581 285 611 q 200 494 218 550 q 182 361 182 438 q 200 229 182 285 q 251 142 218 173 q 328 111 283 111 m 626 -11 q 531 53 568 16 q 490 129 494 91 l 505 113 l 457 113 l 479 195 l 479 567 l 452 640 l 467 640 l 467 1044 l 604 1044 l 604 211 q 625 150 604 177 q 675 111 646 123 l 626 -11 m 661 730 l 663 1044 l 774 1044 l 758 730 l 661 730 z "},"đ":{"ha":781,"x_min":63,"x_max":807,"o":"m 684 -11 q 599 54 630 16 q 564 129 568 92 l 584 113 l 530 113 l 559 195 l 559 567 l 530 640 l 545 640 l 545 1044 l 682 1044 l 682 211 q 696 150 682 178 q 734 111 711 123 l 684 -11 m 347 -11 q 197 35 261 -11 q 98 164 133 81 q 63 361 63 248 q 98 558 63 474 q 198 687 134 642 q 348 733 262 733 q 494 687 432 733 q 591 557 556 641 q 626 361 626 473 q 591 166 626 250 q 493 36 556 82 q 347 -11 431 -11 m 376 111 q 470 142 430 111 q 532 230 510 174 q 554 361 554 286 q 532 493 554 437 q 471 580 510 549 q 378 611 431 611 q 284 580 324 611 q 222 493 244 549 q 200 361 200 437 q 222 230 200 286 q 283 142 243 174 q 376 111 323 111 m 422 818 l 422 916 l 807 916 l 807 818 l 422 818 z "},"ḍ":{"ha":781,"x_min":63,"x_max":734,"o":"m 684 -11 q 599 54 630 16 q 564 129 568 92 l 584 113 l 530 113 l 559 195 l 559 567 l 530 640 l 545 640 l 545 1044 l 682 1044 l 682 211 q 696 150 682 178 q 734 111 711 123 l 684 -11 m 347 -11 q 197 35 261 -11 q 98 164 133 81 q 63 361 63 248 q 98 558 63 474 q 198 687 134 642 q 348 733 262 733 q 494 687 432 733 q 591 557 556 641 q 626 361 626 473 q 591 166 626 250 q 493 36 556 82 q 347 -11 431 -11 m 376 111 q 470 142 430 111 q 532 230 510 174 q 554 361 554 286 q 532 493 554 437 q 471 580 510 549 q 378 611 431 611 q 284 580 324 611 q 222 493 244 549 q 200 361 200 437 q 222 230 200 286 q 283 142 243 174 q 376 111 323 111 m 386 -283 q 316 -255 345 -283 q 288 -185 288 -227 q 316 -116 288 -144 q 386 -87 345 -87 q 455 -116 427 -87 q 484 -185 484 -144 q 455 -255 484 -227 q 386 -283 427 -283 z "},"ḏ":{"ha":781,"x_min":63,"x_max":734,"o":"m 684 -11 q 599 54 630 16 q 564 129 568 92 l 584 113 l 530 113 l 559 195 l 559 567 l 530 640 l 545 640 l 545 1044 l 682 1044 l 682 211 q 696 150 682 178 q 734 111 711 123 l 684 -11 m 347 -11 q 197 35 261 -11 q 98 164 133 81 q 63 361 63 248 q 98 558 63 474 q 198 687 134 642 q 348 733 262 733 q 494 687 432 733 q 591 557 556 641 q 626 361 626 473 q 591 166 626 250 q 493 36 556 82 q 347 -11 431 -11 m 376 111 q 470 142 430 111 q 532 230 510 174 q 554 361 554 286 q 532 493 554 437 q 471 580 510 549 q 378 611 431 611 q 284 580 324 611 q 222 493 244 549 q 200 361 200 437 q 222 230 200 286 q 283 142 243 174 q 376 111 323 111 m 141 -273 l 141 -184 l 631 -184 l 631 -273 l 141 -273 z "},"ǆ":{"ha":781,"x_min":20,"x_max":760,"o":"m 173 -11 q 59 85 98 -11 q 20 362 20 180 q 59 638 20 543 q 172 733 98 733 q 275 638 245 733 q 305 361 305 543 q 275 85 305 180 q 173 -11 245 -11 m 198 110 q 253 175 236 110 q 270 362 270 239 q 254 548 270 484 q 200 612 237 612 q 145 548 163 612 q 127 362 127 484 q 144 175 127 239 q 198 110 162 110 m 366 -11 q 300 47 324 13 q 272 111 277 81 l 284 87 l 249 87 l 277 188 l 277 564 l 241 661 l 269 661 l 269 1044 l 376 1044 l 376 180 q 385 139 376 157 q 412 111 394 121 l 366 -11 m 419 0 l 419 30 l 621 609 l 621 612 l 451 612 l 451 720 l 753 720 l 753 686 l 552 111 l 552 108 l 745 108 l 745 0 l 419 0 m 577 831 l 423 991 l 475 1052 l 590 927 l 593 927 l 708 1052 l 760 991 l 606 831 l 577 831 z "},"ð":{"ha":781,"x_min":58,"x_max":726,"o":"m 391 -11 q 224 35 300 -11 q 103 162 149 81 q 58 347 58 243 q 101 530 58 450 q 216 654 144 609 q 377 699 288 699 q 467 685 422 699 q 545 646 512 671 q 592 587 578 621 l 567 617 l 604 617 l 585 595 q 521 728 562 667 q 427 839 481 789 q 310 928 373 889 q 176 994 246 966 l 229 1105 q 425 995 335 1059 q 583 847 515 930 q 688 658 650 763 q 726 425 726 553 q 683 192 726 290 q 565 42 640 94 q 391 -11 489 -11 m 395 115 q 495 149 450 117 q 566 235 540 180 q 591 359 591 290 q 565 476 591 427 q 493 551 538 526 q 393 577 448 577 q 292 549 337 577 q 220 470 246 521 q 193 352 193 420 q 221 228 193 281 q 294 144 248 174 q 395 115 340 114 m 218 765 l 174 836 l 593 1106 l 643 1030 l 218 765 z "},"e":{"ha":781,"x_min":73,"x_max":708,"o":"m 416 -11 q 237 36 315 -11 q 117 167 160 83 q 73 361 73 251 q 115 555 73 471 q 230 685 156 638 q 401 732 304 732 q 561 690 492 732 q 669 573 630 648 q 708 399 708 498 q 706 352 708 378 q 699 309 703 327 l 181 309 l 181 412 l 574 412 q 552 516 574 471 q 490 585 530 560 q 399 610 450 610 q 297 579 341 610 q 227 492 252 548 q 201 363 201 437 q 229 232 201 288 q 306 143 257 175 q 418 112 355 112 q 514 130 465 112 q 598 178 562 148 l 646 62 q 541 10 604 31 q 416 -11 478 -11 z "},"é":{"ha":781,"x_min":73,"x_max":708,"o":"m 416 -11 q 237 36 315 -11 q 117 167 160 83 q 73 361 73 251 q 115 555 73 471 q 230 685 156 638 q 401 732 304 732 q 561 690 492 732 q 669 573 630 648 q 708 399 708 498 q 706 352 708 378 q 699 309 703 327 l 181 309 l 181 412 l 574 412 q 552 516 574 471 q 490 585 530 560 q 399 610 450 610 q 297 579 341 610 q 227 492 252 548 q 201 363 201 437 q 229 232 201 288 q 306 143 257 175 q 418 112 355 112 q 514 130 465 112 q 598 178 562 148 l 646 62 q 541 10 604 31 q 416 -11 478 -11 m 399 794 l 336 850 l 507 1091 l 602 1004 l 399 794 z "},"ĕ":{"ha":781,"x_min":73,"x_max":708,"o":"m 416 -11 q 237 36 315 -11 q 117 167 160 83 q 73 361 73 251 q 115 555 73 471 q 230 685 156 638 q 401 732 304 732 q 561 690 492 732 q 669 573 630 648 q 708 399 708 498 q 706 352 708 378 q 699 309 703 327 l 181 309 l 181 412 l 574 412 q 552 516 574 471 q 490 585 530 560 q 399 610 450 610 q 297 579 341 610 q 227 492 252 548 q 201 363 201 437 q 229 232 201 288 q 306 143 257 175 q 418 112 355 112 q 514 130 465 112 q 598 178 562 148 l 646 62 q 541 10 604 31 q 416 -11 478 -11 m 399 819 q 284 847 336 819 q 203 924 233 876 q 173 1033 173 972 l 265 1033 q 303 940 264 977 q 399 902 342 902 q 495 940 458 902 q 534 1033 533 977 l 626 1033 q 596 924 627 972 q 515 847 566 876 q 399 819 464 819 z "},"ě":{"ha":781,"x_min":73,"x_max":708,"o":"m 416 -11 q 237 36 315 -11 q 117 167 160 83 q 73 361 73 251 q 115 555 73 471 q 230 685 156 638 q 401 732 304 732 q 561 690 492 732 q 669 573 630 648 q 708 399 708 498 q 706 352 708 378 q 699 309 703 327 l 181 309 l 181 412 l 574 412 q 552 516 574 471 q 490 585 530 560 q 399 610 450 610 q 297 579 341 610 q 227 492 252 548 q 201 363 201 437 q 229 232 201 288 q 306 143 257 175 q 418 112 355 112 q 514 130 465 112 q 598 178 562 148 l 646 62 q 541 10 604 31 q 416 -11 478 -11 m 233 1063 l 399 904 l 404 904 l 566 1063 l 626 995 l 416 800 l 382 800 l 174 995 l 233 1063 z "},"ḝ":{"ha":781,"x_min":73,"x_max":708,"o":"m 416 -11 q 237 36 315 -11 q 117 167 160 83 q 73 361 73 251 q 115 555 73 471 q 230 685 156 638 q 401 732 304 732 q 561 690 492 732 q 669 573 630 648 q 708 399 708 498 q 706 352 708 378 q 699 309 703 327 l 181 309 l 181 412 l 574 412 q 552 516 574 471 q 490 585 530 560 q 399 610 450 610 q 297 579 341 610 q 227 492 252 548 q 201 363 201 437 q 229 232 201 288 q 306 143 257 175 q 418 112 355 112 q 514 130 465 112 q 598 178 562 148 l 646 62 q 541 10 604 31 q 416 -11 478 -11 m 300 -323 l 300 -246 q 404 -233 369 -248 q 438 -184 438 -217 q 411 -144 438 -161 q 337 -127 385 -128 l 376 0 l 445 0 l 410 -111 l 400 -73 q 493 -114 460 -83 q 526 -193 526 -144 q 471 -289 526 -254 q 300 -323 415 -323 m 399 819 q 284 847 336 819 q 203 924 233 876 q 173 1033 173 972 l 265 1033 q 303 940 264 977 q 399 902 342 902 q 495 940 458 902 q 534 1033 533 977 l 626 1033 q 596 924 627 972 q 515 847 566 876 q 399 819 464 819 z "},"ê":{"ha":781,"x_min":73,"x_max":708,"o":"m 416 -11 q 237 36 315 -11 q 117 167 160 83 q 73 361 73 251 q 115 555 73 471 q 230 685 156 638 q 401 732 304 732 q 561 690 492 732 q 669 573 630 648 q 708 399 708 498 q 706 352 708 378 q 699 309 703 327 l 181 309 l 181 412 l 574 412 q 552 516 574 471 q 490 585 530 560 q 399 610 450 610 q 297 579 341 610 q 227 492 252 548 q 201 363 201 437 q 229 232 201 288 q 306 143 257 175 q 418 112 355 112 q 514 130 465 112 q 598 178 562 148 l 646 62 q 541 10 604 31 q 416 -11 478 -11 m 232 797 l 173 865 l 382 1059 l 415 1059 l 625 865 l 566 797 l 403 956 l 397 956 l 232 797 z "},"ế":{"ha":781,"x_min":73,"x_max":798,"o":"m 416 -11 q 237 36 315 -11 q 117 167 160 83 q 73 361 73 251 q 115 555 73 471 q 230 685 156 638 q 401 732 304 732 q 561 690 492 732 q 669 573 630 648 q 708 399 708 498 q 706 352 708 378 q 699 309 703 327 l 181 309 l 181 412 l 574 412 q 552 516 574 471 q 490 585 530 560 q 399 610 450 610 q 297 579 341 610 q 227 492 252 548 q 201 363 201 437 q 229 232 201 288 q 306 143 257 175 q 418 112 355 112 q 514 130 465 112 q 598 178 562 148 l 646 62 q 541 10 604 31 q 416 -11 478 -11 m 597 971 l 532 1019 l 728 1223 l 799 1133 l 597 971 m 235 804 l 168 873 l 384 1031 l 418 1031 l 632 873 l 566 804 l 403 931 l 397 931 l 235 804 z "},"ệ":{"ha":781,"x_min":73,"x_max":708,"o":"m 416 -11 q 237 36 315 -11 q 117 167 160 83 q 73 361 73 251 q 115 555 73 471 q 230 685 156 638 q 401 732 304 732 q 561 690 492 732 q 669 573 630 648 q 708 399 708 498 q 706 352 708 378 q 699 309 703 327 l 181 309 l 181 412 l 574 412 q 552 516 574 471 q 490 585 530 560 q 399 610 450 610 q 297 579 341 610 q 227 492 252 548 q 201 363 201 437 q 229 232 201 288 q 306 143 257 175 q 418 112 355 112 q 514 130 465 112 q 598 178 562 148 l 646 62 q 541 10 604 31 q 416 -11 478 -11 m 401 -283 q 332 -255 360 -283 q 304 -185 304 -227 q 332 -116 304 -144 q 401 -87 360 -87 q 471 -116 443 -87 q 499 -185 499 -144 q 471 -255 499 -227 q 401 -283 443 -283 m 232 797 l 173 865 l 382 1059 l 415 1059 l 625 865 l 566 797 l 403 956 l 397 956 l 232 797 z "},"ề":{"ha":781,"x_min":2,"x_max":708,"o":"m 416 -11 q 237 36 315 -11 q 117 167 160 83 q 73 361 73 251 q 115 555 73 471 q 230 685 156 638 q 401 732 304 732 q 561 690 492 732 q 669 573 630 648 q 708 399 708 498 q 706 352 708 378 q 699 309 703 327 l 181 309 l 181 412 l 574 412 q 552 516 574 471 q 490 585 530 560 q 399 610 450 610 q 297 579 341 610 q 227 492 252 548 q 201 363 201 437 q 229 232 201 288 q 306 143 257 175 q 418 112 355 112 q 514 130 465 112 q 598 178 562 148 l 646 62 q 541 10 604 31 q 416 -11 478 -11 m 204 971 l 2 1133 l 73 1223 l 269 1019 l 204 971 m 566 804 l 404 931 l 398 931 l 235 804 l 169 873 l 383 1031 l 417 1031 l 633 873 l 566 804 z "},"ể":{"ha":781,"x_min":73,"x_max":708,"o":"m 416 -11 q 237 36 315 -11 q 117 167 160 83 q 73 361 73 251 q 115 555 73 471 q 230 685 156 638 q 401 732 304 732 q 561 690 492 732 q 669 573 630 648 q 708 399 708 498 q 706 352 708 378 q 699 309 703 327 l 181 309 l 181 412 l 574 412 q 552 516 574 471 q 490 585 530 560 q 399 610 450 610 q 297 579 341 610 q 227 492 252 548 q 201 363 201 437 q 229 232 201 288 q 306 143 257 175 q 418 112 355 112 q 514 130 465 112 q 598 178 562 148 l 646 62 q 541 10 604 31 q 416 -11 478 -11 m 584 969 l 527 1011 q 563 1049 549 1029 q 576 1086 576 1069 q 559 1124 576 1110 q 510 1137 542 1137 q 474 1134 493 1137 q 439 1123 456 1131 l 439 1212 q 479 1222 453 1219 q 528 1225 506 1225 q 627 1196 589 1225 q 666 1106 666 1166 q 653 1049 666 1076 q 620 1002 640 1022 q 584 969 601 981 m 235 804 l 168 873 l 384 1031 l 418 1031 l 632 873 l 566 804 l 403 931 l 398 931 l 235 804 z "},"ễ":{"ha":781,"x_min":73,"x_max":708,"o":"m 416 -11 q 237 36 315 -11 q 117 167 160 83 q 73 361 73 251 q 115 555 73 471 q 230 685 156 638 q 401 732 304 732 q 561 690 492 732 q 669 573 630 648 q 708 399 708 498 q 706 352 708 378 q 699 309 703 327 l 181 309 l 181 412 l 574 412 q 552 516 574 471 q 490 585 530 560 q 399 610 450 610 q 297 579 341 610 q 227 492 252 548 q 201 363 201 437 q 229 232 201 288 q 306 143 257 175 q 418 112 355 112 q 514 130 465 112 q 598 178 562 148 l 646 62 q 541 10 604 31 q 416 -11 478 -11 m 174 1059 q 210 1182 173 1135 q 311 1228 248 1228 q 369 1217 345 1228 q 410 1190 392 1205 q 444 1162 427 1174 q 481 1151 460 1151 q 521 1171 507 1151 q 535 1228 535 1192 l 627 1228 q 614 1142 629 1180 q 570 1081 599 1103 q 499 1059 541 1059 q 441 1071 465 1059 q 400 1099 418 1083 q 366 1127 382 1116 q 328 1139 349 1139 q 283 1120 301 1139 q 264 1059 266 1100 l 174 1059 m 235 804 l 168 873 l 384 1031 l 418 1031 l 632 873 l 566 804 l 403 931 l 397 931 l 235 804 z "},"ȅ":{"ha":781,"x_min":73,"x_max":708,"o":"m 416 -11 q 237 36 315 -11 q 117 167 160 83 q 73 361 73 251 q 115 555 73 471 q 230 685 156 638 q 401 732 304 732 q 561 690 492 732 q 669 573 630 648 q 708 399 708 498 q 706 352 708 378 q 699 309 703 327 l 181 309 l 181 412 l 574 412 q 552 516 574 471 q 490 585 530 560 q 399 610 450 610 q 297 579 341 610 q 227 492 252 548 q 201 363 201 437 q 229 232 201 288 q 306 143 257 175 q 418 112 355 112 q 514 130 465 112 q 598 178 562 148 l 646 62 q 541 10 604 31 q 416 -11 478 -11 m 503 801 l 351 1039 l 449 1088 l 580 821 l 503 801 m 288 801 l 134 1039 l 230 1088 l 362 821 l 288 801 z "},"ë":{"ha":781,"x_min":73,"x_max":708,"o":"m 416 -11 q 237 36 315 -11 q 117 167 160 83 q 73 361 73 251 q 115 555 73 471 q 230 685 156 638 q 401 732 304 732 q 561 690 492 732 q 669 573 630 648 q 708 399 708 498 q 706 352 708 378 q 699 309 703 327 l 181 309 l 181 412 l 574 412 q 552 516 574 471 q 490 585 530 560 q 399 610 450 610 q 297 579 341 610 q 227 492 252 548 q 201 363 201 437 q 229 232 201 288 q 306 143 257 175 q 418 112 355 112 q 514 130 465 112 q 598 178 562 148 l 646 62 q 541 10 604 31 q 416 -11 478 -11 m 542 838 q 477 865 504 838 q 450 931 450 892 q 477 997 450 970 q 542 1024 504 1024 q 608 997 582 1024 q 635 931 635 970 q 608 865 635 892 q 542 838 582 838 m 258 838 q 193 865 220 838 q 165 931 165 892 q 193 997 165 970 q 258 1024 220 1024 q 324 997 298 1024 q 351 931 351 970 q 324 865 351 892 q 258 838 298 838 z "},"ė":{"ha":781,"x_min":73,"x_max":708,"o":"m 416 -11 q 237 36 315 -11 q 117 167 160 83 q 73 361 73 251 q 115 555 73 471 q 230 685 156 638 q 401 732 304 732 q 561 690 492 732 q 669 573 630 648 q 708 399 708 498 q 706 352 708 378 q 699 309 703 327 l 181 309 l 181 412 l 574 412 q 552 516 574 471 q 490 585 530 560 q 399 610 450 610 q 297 579 341 610 q 227 492 252 548 q 201 363 201 437 q 229 232 201 288 q 306 143 257 175 q 418 112 355 112 q 514 130 465 112 q 598 178 562 148 l 646 62 q 541 10 604 31 q 416 -11 478 -11 m 400 829 q 331 858 359 829 q 302 927 302 886 q 331 997 302 968 q 400 1025 359 1025 q 470 997 441 1025 q 498 927 498 968 q 470 858 498 886 q 400 829 441 829 z "},"ẹ":{"ha":781,"x_min":73,"x_max":708,"o":"m 416 -11 q 237 36 315 -11 q 117 167 160 83 q 73 361 73 251 q 115 555 73 471 q 230 685 156 638 q 401 732 304 732 q 561 690 492 732 q 669 573 630 648 q 708 399 708 498 q 706 352 708 378 q 699 309 703 327 l 181 309 l 181 412 l 574 412 q 552 516 574 471 q 490 585 530 560 q 399 610 450 610 q 297 579 341 610 q 227 492 252 548 q 201 363 201 437 q 229 232 201 288 q 306 143 257 175 q 418 112 355 112 q 514 130 465 112 q 598 178 562 148 l 646 62 q 541 10 604 31 q 416 -11 478 -11 m 401 -283 q 332 -255 360 -283 q 304 -185 304 -227 q 332 -116 304 -144 q 401 -87 360 -87 q 471 -116 443 -87 q 499 -185 499 -144 q 471 -255 499 -227 q 401 -283 443 -283 z "},"è":{"ha":781,"x_min":73,"x_max":708,"o":"m 416 -11 q 237 36 315 -11 q 117 167 160 83 q 73 361 73 251 q 115 555 73 471 q 230 685 156 638 q 401 732 304 732 q 561 690 492 732 q 669 573 630 648 q 708 399 708 498 q 706 352 708 378 q 699 309 703 327 l 181 309 l 181 412 l 574 412 q 552 516 574 471 q 490 585 530 560 q 399 610 450 610 q 297 579 341 610 q 227 492 252 548 q 201 363 201 437 q 229 232 201 288 q 306 143 257 175 q 418 112 355 112 q 514 130 465 112 q 598 178 562 148 l 646 62 q 541 10 604 31 q 416 -11 478 -11 m 401 794 l 199 1004 l 294 1091 l 465 850 l 401 794 z "},"ẻ":{"ha":781,"x_min":73,"x_max":708,"o":"m 416 -11 q 237 36 315 -11 q 117 167 160 83 q 73 361 73 251 q 115 555 73 471 q 230 685 156 638 q 401 732 304 732 q 561 690 492 732 q 669 573 630 648 q 708 399 708 498 q 706 352 708 378 q 699 309 703 327 l 181 309 l 181 412 l 574 412 q 552 516 574 471 q 490 585 530 560 q 399 610 450 610 q 297 579 341 610 q 227 492 252 548 q 201 363 201 437 q 229 232 201 288 q 306 143 257 175 q 418 112 355 112 q 514 130 465 112 q 598 178 562 148 l 646 62 q 541 10 604 31 q 416 -11 478 -11 m 420 794 l 367 850 q 407 883 390 863 q 423 924 423 902 q 406 960 423 947 q 357 972 389 972 q 322 969 343 972 q 285 959 300 966 l 285 1046 q 326 1057 300 1053 q 370 1061 352 1061 q 473 1030 435 1061 q 511 942 511 1000 q 484 852 511 892 q 420 794 456 811 z "},"ȇ":{"ha":781,"x_min":73,"x_max":708,"o":"m 416 -11 q 237 36 315 -11 q 117 167 160 83 q 73 361 73 251 q 115 555 73 471 q 230 685 156 638 q 401 732 304 732 q 561 690 492 732 q 669 573 630 648 q 708 399 708 498 q 706 352 708 378 q 699 309 703 327 l 181 309 l 181 412 l 574 412 q 552 516 574 471 q 490 585 530 560 q 399 610 450 610 q 297 579 341 610 q 227 492 252 548 q 201 363 201 437 q 229 232 201 288 q 306 143 257 175 q 418 112 355 112 q 514 130 465 112 q 598 178 562 148 l 646 62 q 541 10 604 31 q 416 -11 478 -11 m 399 1036 q 516 1008 465 1036 q 597 931 567 980 q 626 823 627 883 l 534 823 q 495 916 533 879 q 399 954 458 954 q 303 916 342 954 q 265 823 265 879 l 173 823 q 203 931 173 883 q 285 1008 233 980 q 399 1036 336 1036 z "},"ē":{"ha":781,"x_min":73,"x_max":708,"o":"m 416 -11 q 237 36 315 -11 q 117 167 160 83 q 73 361 73 251 q 115 555 73 471 q 230 685 156 638 q 401 732 304 732 q 561 690 492 732 q 669 573 630 648 q 708 399 708 498 q 706 352 708 378 q 699 309 703 327 l 181 309 l 181 412 l 574 412 q 552 516 574 471 q 490 585 530 560 q 399 610 450 610 q 297 579 341 610 q 227 492 252 548 q 201 363 201 437 q 229 232 201 288 q 306 143 257 175 q 418 112 355 112 q 514 130 465 112 q 598 178 562 148 l 646 62 q 541 10 604 31 q 416 -11 478 -11 m 155 869 l 155 958 l 644 958 l 644 869 l 155 869 z "},"ḗ":{"ha":781,"x_min":73,"x_max":708,"o":"m 416 -11 q 237 36 315 -11 q 117 167 160 83 q 73 361 73 251 q 115 555 73 471 q 230 685 156 638 q 401 732 304 732 q 561 690 492 732 q 669 573 630 648 q 708 399 708 498 q 706 352 708 378 q 699 309 703 327 l 181 309 l 181 412 l 574 412 q 552 516 574 471 q 490 585 530 560 q 399 610 450 610 q 297 579 341 610 q 227 492 252 548 q 201 363 201 437 q 229 232 201 288 q 306 143 257 175 q 418 112 355 112 q 514 130 465 112 q 598 178 562 148 l 646 62 q 541 10 604 31 q 416 -11 478 -11 m 155 869 l 155 958 l 644 958 l 644 869 l 155 869 m 399 1031 l 336 1087 l 507 1328 l 602 1241 l 399 1031 z "},"ḕ":{"ha":781,"x_min":73,"x_max":708,"o":"m 416 -11 q 237 36 315 -11 q 117 167 160 83 q 73 361 73 251 q 115 555 73 471 q 230 685 156 638 q 401 732 304 732 q 561 690 492 732 q 669 573 630 648 q 708 399 708 498 q 706 352 708 378 q 699 309 703 327 l 181 309 l 181 412 l 574 412 q 552 516 574 471 q 490 585 530 560 q 399 610 450 610 q 297 579 341 610 q 227 492 252 548 q 201 363 201 437 q 229 232 201 288 q 306 143 257 175 q 418 112 355 112 q 514 130 465 112 q 598 178 562 148 l 646 62 q 541 10 604 31 q 416 -11 478 -11 m 155 869 l 155 958 l 644 958 l 644 869 l 155 869 m 401 1031 l 199 1241 l 294 1328 l 465 1087 l 401 1031 z "},"ę":{"ha":781,"x_min":73,"x_max":708,"o":"m 416 -11 q 237 36 315 -11 q 117 167 160 83 q 73 361 73 251 q 115 555 73 471 q 230 685 156 638 q 401 732 304 732 q 561 690 492 732 q 669 573 630 648 q 708 399 708 498 q 706 352 708 378 q 699 309 703 327 l 181 309 l 181 412 l 574 412 q 552 516 574 471 q 490 585 530 560 q 399 610 450 610 q 297 579 341 610 q 227 492 252 548 q 201 363 201 437 q 229 232 201 288 q 306 143 257 175 q 418 112 355 112 q 514 130 465 112 q 598 178 562 148 l 646 62 q 541 10 604 31 q 416 -11 478 -11 m 562 -220 q 472 -186 507 -220 q 437 -98 437 -153 q 474 -2 437 -45 q 572 88 511 41 l 646 62 q 590 13 617 36 q 545 -34 563 -10 q 528 -84 528 -58 q 544 -121 528 -108 q 586 -135 560 -135 q 628 -127 606 -135 q 661 -111 650 -119 l 661 -195 q 615 -213 644 -206 q 562 -220 585 -220 z "},"ẽ":{"ha":781,"x_min":73,"x_max":708,"o":"m 416 -11 q 237 36 315 -11 q 117 167 160 83 q 73 361 73 251 q 115 555 73 471 q 230 685 156 638 q 401 732 304 732 q 561 690 492 732 q 669 573 630 648 q 708 399 708 498 q 706 352 708 378 q 699 309 703 327 l 181 309 l 181 412 l 574 412 q 552 516 574 471 q 490 585 530 560 q 399 610 450 610 q 297 579 341 610 q 227 492 252 548 q 201 363 201 437 q 229 232 201 288 q 306 143 257 175 q 418 112 355 112 q 514 130 465 112 q 598 178 562 148 l 646 62 q 541 10 604 31 q 416 -11 478 -11 m 167 825 q 207 960 167 916 q 307 1005 246 1005 q 368 992 343 1005 q 411 961 393 979 q 446 929 429 943 q 484 916 463 916 q 526 942 511 916 q 538 1005 540 967 l 632 1005 q 593 871 632 917 q 492 825 553 825 q 433 839 457 825 q 390 871 409 852 q 353 903 371 889 q 314 917 336 917 q 274 892 288 917 q 259 825 260 867 l 167 825 z "},"ə":{"ha":781,"x_min":67,"x_max":718,"o":"m 382 -11 q 220 32 291 -11 q 108 150 149 75 q 67 321 67 225 q 70 374 67 351 q 76 412 73 398 l 611 412 l 611 309 l 201 309 q 224 208 201 253 q 288 137 247 163 q 385 111 330 111 q 491 142 445 111 q 564 230 538 174 q 590 359 590 286 q 562 490 590 433 q 483 578 534 547 q 363 610 431 610 q 289 599 323 610 q 226 573 254 589 q 180 543 198 558 l 132 661 q 233 711 172 690 q 366 732 294 732 q 549 686 469 732 q 673 556 629 640 q 718 360 718 473 q 673 164 718 247 q 553 35 629 81 q 382 -11 477 -11 z "},"f":{"ha":781,"x_min":92,"x_max":729,"o":"m 271 0 l 271 787 q 304 936 271 874 q 396 1030 338 998 q 530 1062 455 1062 q 631 1047 577 1062 q 729 1006 684 1033 l 678 893 q 610 926 646 915 q 545 938 574 938 q 447 901 485 938 q 409 790 409 863 l 409 0 l 271 0 m 92 598 l 92 721 l 683 721 l 683 598 l 92 598 z "},"g":{"ha":781,"x_min":64,"x_max":684,"o":"m 365 -296 q 228 -275 294 -296 q 123 -227 162 -254 l 172 -109 q 253 -154 203 -135 q 351 -174 302 -174 q 440 -154 393 -174 q 518 -93 486 -135 q 551 20 551 -50 l 551 109 l 531 109 l 556 174 l 556 566 l 520 635 l 550 635 l 550 721 l 684 721 l 684 26 q 658 -118 684 -58 q 587 -218 632 -179 q 485 -277 543 -258 q 365 -296 427 -296 m 353 1 q 245 26 297 1 q 153 98 194 51 q 87 214 111 146 q 64 368 64 282 q 106 566 64 485 q 215 689 148 647 q 359 732 283 732 q 500 686 438 732 q 597 559 562 640 q 633 373 633 478 q 596 182 633 267 q 496 50 559 98 q 353 1 432 1 m 380 124 q 470 156 430 124 q 532 243 509 187 q 555 372 555 299 q 532 497 555 444 q 470 580 509 551 q 381 609 431 609 q 289 579 329 609 q 226 495 249 549 q 203 370 203 441 q 226 243 203 298 q 289 156 249 188 q 380 124 328 124 z "},"ǵ":{"ha":781,"x_min":64,"x_max":684,"o":"m 365 -296 q 228 -275 294 -296 q 123 -227 162 -254 l 172 -109 q 253 -154 203 -135 q 351 -174 302 -174 q 440 -154 393 -174 q 518 -93 486 -135 q 551 20 551 -50 l 551 109 l 531 109 l 556 174 l 556 566 l 520 635 l 550 635 l 550 721 l 684 721 l 684 26 q 658 -118 684 -58 q 587 -218 632 -179 q 485 -277 543 -258 q 365 -296 427 -296 m 353 1 q 245 26 297 1 q 153 98 194 51 q 87 214 111 146 q 64 368 64 282 q 106 566 64 485 q 215 689 148 647 q 359 732 283 732 q 500 686 438 732 q 597 559 562 640 q 633 373 633 478 q 596 182 633 267 q 496 50 559 98 q 353 1 432 1 m 380 124 q 470 156 430 124 q 532 243 509 187 q 555 372 555 299 q 532 497 555 444 q 470 580 509 551 q 381 609 431 609 q 289 579 329 609 q 226 495 249 549 q 203 370 203 441 q 226 243 203 298 q 289 156 249 188 q 380 124 328 124 m 377 794 l 314 850 l 485 1091 l 580 1004 l 377 794 z "},"ğ":{"ha":781,"x_min":64,"x_max":684,"o":"m 365 -296 q 228 -275 294 -296 q 123 -227 162 -254 l 172 -109 q 253 -154 203 -135 q 351 -174 302 -174 q 440 -154 393 -174 q 518 -93 486 -135 q 551 20 551 -50 l 551 109 l 531 109 l 556 174 l 556 566 l 520 635 l 550 635 l 550 721 l 684 721 l 684 26 q 658 -118 684 -58 q 587 -218 632 -179 q 485 -277 543 -258 q 365 -296 427 -296 m 353 1 q 245 26 297 1 q 153 98 194 51 q 87 214 111 146 q 64 368 64 282 q 106 566 64 485 q 215 689 148 647 q 359 732 283 732 q 500 686 438 732 q 597 559 562 640 q 633 373 633 478 q 596 182 633 267 q 496 50 559 98 q 353 1 432 1 m 380 124 q 470 156 430 124 q 532 243 509 187 q 555 372 555 299 q 532 497 555 444 q 470 580 509 551 q 381 609 431 609 q 289 579 329 609 q 226 495 249 549 q 203 370 203 441 q 226 243 203 298 q 289 156 249 188 q 380 124 328 124 m 377 819 q 262 847 314 819 q 181 924 211 876 q 151 1033 151 972 l 243 1033 q 281 940 243 977 q 377 902 320 902 q 474 940 436 902 q 512 1033 511 977 l 604 1033 q 575 924 605 972 q 493 847 545 876 q 377 819 442 819 z "},"ǧ":{"ha":781,"x_min":64,"x_max":684,"o":"m 365 -296 q 228 -275 294 -296 q 123 -227 162 -254 l 172 -109 q 253 -154 203 -135 q 351 -174 302 -174 q 440 -154 393 -174 q 518 -93 486 -135 q 551 20 551 -50 l 551 109 l 531 109 l 556 174 l 556 566 l 520 635 l 550 635 l 550 721 l 684 721 l 684 26 q 658 -118 684 -58 q 587 -218 632 -179 q 485 -277 543 -258 q 365 -296 427 -296 m 353 1 q 245 26 297 1 q 153 98 194 51 q 87 214 111 146 q 64 368 64 282 q 106 566 64 485 q 215 689 148 647 q 359 732 283 732 q 500 686 438 732 q 597 559 562 640 q 633 373 633 478 q 596 182 633 267 q 496 50 559 98 q 353 1 432 1 m 380 124 q 470 156 430 124 q 532 243 509 187 q 555 372 555 299 q 532 497 555 444 q 470 580 509 551 q 381 609 431 609 q 289 579 329 609 q 226 495 249 549 q 203 370 203 441 q 226 243 203 298 q 289 156 249 188 q 380 124 328 124 m 211 1063 l 376 904 l 382 904 l 544 1063 l 604 995 l 394 800 l 361 800 l 152 995 l 211 1063 z "},"ĝ":{"ha":781,"x_min":64,"x_max":684,"o":"m 365 -296 q 228 -275 294 -296 q 123 -227 162 -254 l 172 -109 q 253 -154 203 -135 q 351 -174 302 -174 q 440 -154 393 -174 q 518 -93 486 -135 q 551 20 551 -50 l 551 109 l 531 109 l 556 174 l 556 566 l 520 635 l 550 635 l 550 721 l 684 721 l 684 26 q 658 -118 684 -58 q 587 -218 632 -179 q 485 -277 543 -258 q 365 -296 427 -296 m 353 1 q 245 26 297 1 q 153 98 194 51 q 87 214 111 146 q 64 368 64 282 q 106 566 64 485 q 215 689 148 647 q 359 732 283 732 q 500 686 438 732 q 597 559 562 640 q 633 373 633 478 q 596 182 633 267 q 496 50 559 98 q 353 1 432 1 m 380 124 q 470 156 430 124 q 532 243 509 187 q 555 372 555 299 q 532 497 555 444 q 470 580 509 551 q 381 609 431 609 q 289 579 329 609 q 226 495 249 549 q 203 370 203 441 q 226 243 203 298 q 289 156 249 188 q 380 124 328 124 m 210 797 l 151 865 l 360 1059 l 393 1059 l 603 865 l 544 797 l 381 956 l 376 956 l 210 797 z "},"ģ":{"ha":781,"x_min":64,"x_max":684,"o":"m 365 -296 q 228 -275 294 -296 q 123 -227 162 -254 l 172 -109 q 253 -154 203 -135 q 351 -174 302 -174 q 440 -154 393 -174 q 518 -93 486 -135 q 551 20 551 -50 l 551 109 l 531 109 l 556 174 l 556 566 l 520 635 l 550 635 l 550 721 l 684 721 l 684 26 q 658 -118 684 -58 q 587 -218 632 -179 q 485 -277 543 -258 q 365 -296 427 -296 m 353 1 q 245 26 297 1 q 153 98 194 51 q 87 214 111 146 q 64 368 64 282 q 106 566 64 485 q 215 689 148 647 q 359 732 283 732 q 500 686 438 732 q 597 559 562 640 q 633 373 633 478 q 596 182 633 267 q 496 50 559 98 q 353 1 432 1 m 380 124 q 470 156 430 124 q 532 243 509 187 q 555 372 555 299 q 532 497 555 444 q 470 580 509 551 q 381 609 431 609 q 289 579 329 609 q 226 495 249 549 q 203 370 203 441 q 226 243 203 298 q 289 156 249 188 q 380 124 328 124 m 425 1110 l 459 1069 l 405 1017 q 377 986 389 1001 q 359 958 366 972 q 353 933 353 945 l 332 930 q 344 957 335 945 q 374 968 353 968 q 423 947 399 968 q 446 893 446 926 q 424 840 446 860 q 374 820 401 820 q 321 842 343 820 q 299 905 299 864 q 312 967 299 939 q 341 1016 325 995 q 368 1048 357 1037 l 425 1110 z "},"ġ":{"ha":781,"x_min":64,"x_max":684,"o":"m 365 -296 q 228 -275 294 -296 q 123 -227 162 -254 l 172 -109 q 253 -154 203 -135 q 351 -174 302 -174 q 440 -154 393 -174 q 518 -93 486 -135 q 551 20 551 -50 l 551 109 l 531 109 l 556 174 l 556 566 l 520 635 l 550 635 l 550 721 l 684 721 l 684 26 q 658 -118 684 -58 q 587 -218 632 -179 q 485 -277 543 -258 q 365 -296 427 -296 m 353 1 q 245 26 297 1 q 153 98 194 51 q 87 214 111 146 q 64 368 64 282 q 106 566 64 485 q 215 689 148 647 q 359 732 283 732 q 500 686 438 732 q 597 559 562 640 q 633 373 633 478 q 596 182 633 267 q 496 50 559 98 q 353 1 432 1 m 380 124 q 470 156 430 124 q 532 243 509 187 q 555 372 555 299 q 532 497 555 444 q 470 580 509 551 q 381 609 431 609 q 289 579 329 609 q 226 495 249 549 q 203 370 203 441 q 226 243 203 298 q 289 156 249 188 q 380 124 328 124 m 378 829 q 309 858 337 829 q 281 927 281 886 q 309 997 281 968 q 378 1025 337 1025 q 448 997 420 1025 q 476 927 476 968 q 448 858 476 886 q 378 829 420 829 z "},"ḡ":{"ha":781,"x_min":64,"x_max":684,"o":"m 365 -296 q 228 -275 294 -296 q 123 -227 162 -254 l 172 -109 q 253 -154 203 -135 q 351 -174 302 -174 q 440 -154 393 -174 q 518 -93 486 -135 q 551 20 551 -50 l 551 109 l 531 109 l 556 174 l 556 566 l 520 635 l 550 635 l 550 721 l 684 721 l 684 26 q 658 -118 684 -58 q 587 -218 632 -179 q 485 -277 543 -258 q 365 -296 427 -296 m 353 1 q 245 26 297 1 q 153 98 194 51 q 87 214 111 146 q 64 368 64 282 q 106 566 64 485 q 215 689 148 647 q 359 732 283 732 q 500 686 438 732 q 597 559 562 640 q 633 373 633 478 q 596 182 633 267 q 496 50 559 98 q 353 1 432 1 m 380 124 q 470 156 430 124 q 532 243 509 187 q 555 372 555 299 q 532 497 555 444 q 470 580 509 551 q 381 609 431 609 q 289 579 329 609 q 226 495 249 549 q 203 370 203 441 q 226 243 203 298 q 289 156 249 188 q 380 124 328 124 m 132 869 l 132 958 l 622 958 l 622 869 l 132 869 z "},"h":{"ha":781,"x_min":99,"x_max":686,"o":"m 99 0 l 99 1044 l 237 1044 l 237 642 l 267 642 l 212 584 q 260 664 226 631 q 343 714 295 697 q 446 732 391 732 q 580 692 527 732 q 660 592 633 653 q 686 465 686 530 l 686 0 l 547 0 l 547 435 q 506 565 547 522 q 399 608 465 608 q 318 589 355 608 q 259 531 281 570 q 237 435 237 492 l 237 0 l 99 0 z "},"ħ":{"ha":781,"x_min":-22,"x_max":686,"o":"m 99 0 l 99 1044 l 237 1044 l 237 642 l 267 642 l 212 584 q 260 664 226 631 q 343 714 295 697 q 446 732 391 732 q 580 692 527 732 q 660 592 633 653 q 686 465 686 530 l 686 0 l 547 0 l 547 435 q 506 565 547 522 q 399 608 465 608 q 318 589 355 608 q 259 531 281 570 q 237 435 237 492 l 237 0 l 99 0 m -22 818 l -22 916 l 363 916 l 363 818 l -22 818 z "},"ḫ":{"ha":781,"x_min":99,"x_max":686,"o":"m 99 0 l 99 1044 l 237 1044 l 237 642 l 267 642 l 212 584 q 260 664 226 631 q 343 714 295 697 q 446 732 391 732 q 580 692 527 732 q 660 592 633 653 q 686 465 686 530 l 686 0 l 547 0 l 547 435 q 506 565 547 522 q 399 608 465 608 q 318 589 355 608 q 259 531 281 570 q 237 435 237 492 l 237 0 l 99 0 m 390 -294 q 275 -266 327 -294 q 194 -189 224 -237 q 164 -80 164 -140 l 256 -80 q 294 -173 256 -136 q 390 -211 333 -211 q 487 -173 449 -211 q 525 -80 524 -136 l 617 -80 q 588 -189 618 -140 q 506 -266 557 -237 q 390 -294 455 -294 z "},"ĥ":{"ha":781,"x_min":-62,"x_max":686,"o":"m 99 0 l 99 1044 l 237 1044 l 237 642 l 267 642 l 212 584 q 260 664 226 631 q 343 714 295 697 q 446 732 391 732 q 580 692 527 732 q 660 592 633 653 q 686 465 686 530 l 686 0 l 547 0 l 547 435 q 506 565 547 522 q 399 608 465 608 q 318 589 355 608 q 259 531 281 570 q 237 435 237 492 l 237 0 l 99 0 m 4 1083 l -62 1155 l 153 1312 l 187 1312 l 401 1155 l 336 1083 l 172 1213 l 167 1213 l 4 1083 z "},"ḥ":{"ha":781,"x_min":99,"x_max":686,"o":"m 99 0 l 99 1044 l 237 1044 l 237 642 l 267 642 l 212 584 q 260 664 226 631 q 343 714 295 697 q 446 732 391 732 q 580 692 527 732 q 660 592 633 653 q 686 465 686 530 l 686 0 l 547 0 l 547 435 q 506 565 547 522 q 399 608 465 608 q 318 589 355 608 q 259 531 281 570 q 237 435 237 492 l 237 0 l 99 0 m 391 -283 q 322 -255 350 -283 q 294 -185 294 -227 q 322 -116 294 -144 q 391 -87 350 -87 q 461 -116 433 -87 q 489 -185 489 -144 q 461 -255 489 -227 q 391 -283 433 -283 z "},"i":{"ha":781,"x_min":139,"x_max":528,"o":"m 359 0 l 359 721 l 498 721 l 498 0 l 359 0 m 139 598 l 139 721 l 498 721 l 498 598 l 139 598 m 431 829 q 361 858 389 829 q 333 927 333 886 q 361 997 333 968 q 431 1025 389 1025 q 500 997 472 1025 q 528 927 528 968 q 500 858 528 886 q 431 829 472 829 z "},"ı":{"ha":781,"x_min":139,"x_max":498,"o":"m 359 0 l 359 721 l 498 721 l 498 0 l 359 0 m 139 598 l 139 721 l 498 721 l 498 598 l 139 598 z "},"í":{"ha":781,"x_min":139,"x_max":632,"o":"m 359 0 l 359 721 l 498 721 l 498 0 l 359 0 m 139 598 l 139 721 l 498 721 l 498 598 l 139 598 m 429 794 l 366 850 l 537 1091 l 632 1004 l 429 794 z "},"ĭ":{"ha":781,"x_min":139,"x_max":657,"o":"m 359 0 l 359 721 l 498 721 l 498 0 l 359 0 m 139 598 l 139 721 l 498 721 l 498 598 l 139 598 m 429 819 q 315 847 366 819 q 233 924 263 876 q 203 1033 203 972 l 296 1033 q 334 940 295 977 q 429 902 372 902 q 526 940 488 902 q 564 1033 564 977 l 656 1033 q 627 924 657 972 q 546 847 597 876 q 429 819 494 819 z "},"ǐ":{"ha":781,"x_min":139,"x_max":656,"o":"m 359 0 l 359 721 l 498 721 l 498 0 l 359 0 m 139 598 l 139 721 l 498 721 l 498 598 l 139 598 m 263 1063 l 429 904 l 434 904 l 597 1063 l 656 995 l 446 800 l 413 800 l 204 995 l 263 1063 z "},"î":{"ha":781,"x_min":139,"x_max":655,"o":"m 359 0 l 359 721 l 498 721 l 498 0 l 359 0 m 139 598 l 139 721 l 498 721 l 498 598 l 139 598 m 262 797 l 203 865 l 412 1059 l 446 1059 l 655 865 l 596 797 l 433 956 l 428 956 l 262 797 z "},"ȉ":{"ha":781,"x_min":139,"x_max":610,"o":"m 359 0 l 359 721 l 498 721 l 498 0 l 359 0 m 139 598 l 139 721 l 498 721 l 498 598 l 139 598 m 534 801 l 382 1039 l 479 1088 l 610 821 l 534 801 m 318 801 l 164 1039 l 260 1088 l 393 821 l 318 801 z "},"ï":{"ha":781,"x_min":139,"x_max":665,"o":"m 359 0 l 359 721 l 498 721 l 498 0 l 359 0 m 139 598 l 139 721 l 498 721 l 498 598 l 139 598 m 572 838 q 507 865 534 838 q 480 931 480 892 q 507 997 480 970 q 572 1024 534 1024 q 639 997 612 1024 q 665 931 665 970 q 639 865 665 892 q 572 838 612 838 m 289 838 q 223 865 250 838 q 196 931 196 892 q 223 997 196 970 q 289 1024 250 1024 q 355 997 328 1024 q 381 931 381 970 q 355 865 381 892 q 289 838 328 838 z "},"ḯ":{"ha":781,"x_min":139,"x_max":665,"o":"m 359 0 l 359 721 l 498 721 l 498 0 l 359 0 m 139 598 l 139 721 l 498 721 l 498 598 l 139 598 m 572 838 q 507 865 534 838 q 480 931 480 892 q 507 997 480 970 q 572 1024 534 1024 q 639 997 612 1024 q 665 931 665 970 q 639 865 665 892 q 572 838 612 838 m 289 838 q 223 865 250 838 q 196 931 196 892 q 223 997 196 970 q 289 1024 250 1024 q 355 997 328 1024 q 381 931 381 970 q 355 865 381 892 q 289 838 328 838 m 429 1048 l 366 1104 l 537 1345 l 632 1258 l 429 1048 z "},"ị":{"ha":781,"x_min":139,"x_max":530,"o":"m 359 0 l 359 721 l 498 721 l 498 0 l 359 0 m 139 598 l 139 721 l 498 721 l 498 598 l 139 598 m 431 829 q 361 858 389 829 q 333 927 333 886 q 361 997 333 968 q 431 1025 389 1025 q 500 997 472 1025 q 528 927 528 968 q 500 858 528 886 q 431 829 472 829 m 432 -283 q 362 -255 391 -283 q 334 -185 334 -227 q 362 -116 334 -144 q 432 -87 391 -87 q 502 -116 473 -87 q 530 -185 530 -144 q 502 -255 530 -227 q 432 -283 473 -283 z "},"ì":{"ha":781,"x_min":139,"x_max":498,"o":"m 359 0 l 359 721 l 498 721 l 498 0 l 359 0 m 139 598 l 139 721 l 498 721 l 498 598 l 139 598 m 432 794 l 229 1004 l 324 1091 l 495 850 l 432 794 z "},"ỉ":{"ha":781,"x_min":139,"x_max":542,"o":"m 359 0 l 359 721 l 498 721 l 498 0 l 359 0 m 139 598 l 139 721 l 498 721 l 498 598 l 139 598 m 451 794 l 397 850 q 437 883 420 863 q 454 924 454 902 q 436 960 454 947 q 388 972 419 972 q 352 969 374 972 q 315 959 331 966 l 315 1046 q 356 1057 330 1053 q 401 1061 382 1061 q 504 1030 466 1061 q 542 942 542 1000 q 514 852 542 892 q 451 794 487 811 z "},"ȋ":{"ha":781,"x_min":139,"x_max":657,"o":"m 359 0 l 359 721 l 498 721 l 498 0 l 359 0 m 139 598 l 139 721 l 498 721 l 498 598 l 139 598 m 429 1036 q 546 1008 494 1036 q 627 931 597 980 q 656 823 657 883 l 564 823 q 526 916 564 879 q 429 954 488 954 q 334 916 372 954 q 296 823 296 879 l 203 823 q 233 931 203 883 q 315 1008 263 980 q 429 1036 366 1036 z "},"ī":{"ha":781,"x_min":139,"x_max":675,"o":"m 359 0 l 359 721 l 498 721 l 498 0 l 359 0 m 139 598 l 139 721 l 498 721 l 498 598 l 139 598 m 184 869 l 184 958 l 674 958 l 674 869 l 184 869 z "},"į":{"ha":781,"x_min":139,"x_max":528,"o":"m 359 0 l 359 721 l 498 721 l 498 0 l 359 0 m 139 598 l 139 721 l 498 721 l 498 598 l 139 598 m 431 829 q 361 858 389 829 q 333 927 333 886 q 361 997 333 968 q 431 1025 389 1025 q 500 997 472 1025 q 528 927 528 968 q 500 858 528 886 q 431 829 472 829 m 413 -281 q 323 -248 359 -281 q 288 -160 288 -214 q 326 -63 288 -106 q 423 26 363 -20 l 498 0 q 441 -49 469 -26 q 397 -96 414 -72 q 379 -146 379 -119 q 395 -183 379 -170 q 437 -197 412 -197 q 479 -189 457 -197 q 512 -173 501 -181 l 512 -257 q 466 -275 496 -268 q 413 -281 437 -281 z "},"ĩ":{"ha":781,"x_min":139,"x_max":663,"o":"m 359 0 l 359 721 l 498 721 l 498 0 l 359 0 m 139 598 l 139 721 l 498 721 l 498 598 l 139 598 m 197 825 q 237 960 197 916 q 337 1005 277 1005 q 399 992 374 1005 q 442 961 424 979 q 477 929 460 943 q 514 916 494 916 q 556 942 542 916 q 569 1005 570 967 l 663 1005 q 623 871 663 917 q 523 825 584 825 q 464 839 488 825 q 420 871 439 852 q 384 903 401 889 q 345 917 366 917 q 305 892 319 917 q 290 825 291 867 l 197 825 z "},"j":{"ha":781,"x_min":62,"x_max":602,"o":"m 288 -296 q 170 -280 226 -296 q 62 -235 113 -264 l 112 -115 q 195 -156 149 -141 q 283 -170 240 -170 q 360 -155 326 -170 q 415 -110 395 -139 q 435 -37 435 -80 l 435 721 l 574 721 l 574 -47 q 561 -132 574 -93 q 522 -201 547 -171 q 462 -252 497 -231 q 383 -284 427 -273 q 288 -296 339 -296 m 191 596 l 191 721 l 574 721 l 574 596 l 191 596 m 505 829 q 435 858 463 829 q 407 927 407 886 q 435 997 407 968 q 505 1025 463 1025 q 574 997 546 1025 q 602 927 602 968 q 574 858 602 886 q 505 829 546 829 z "},"ȷ":{"ha":781,"x_min":62,"x_max":574,"o":"m 288 -296 q 170 -280 226 -296 q 62 -235 113 -264 l 112 -115 q 195 -156 149 -141 q 283 -170 240 -170 q 360 -155 326 -170 q 415 -110 395 -139 q 435 -37 435 -80 l 435 721 l 574 721 l 574 -47 q 561 -132 574 -93 q 522 -201 547 -171 q 462 -252 497 -231 q 383 -284 427 -273 q 288 -296 339 -296 m 191 596 l 191 721 l 574 721 l 574 596 l 191 596 z "},"ĵ":{"ha":781,"x_min":62,"x_max":729,"o":"m 288 -296 q 170 -280 226 -296 q 62 -235 113 -264 l 112 -115 q 195 -156 149 -141 q 283 -170 240 -170 q 360 -155 326 -170 q 415 -110 395 -139 q 435 -37 435 -80 l 435 721 l 574 721 l 574 -47 q 561 -132 574 -93 q 522 -201 547 -171 q 462 -252 497 -231 q 383 -284 427 -273 q 288 -296 339 -296 m 191 596 l 191 721 l 574 721 l 574 596 l 191 596 m 336 797 l 277 865 l 486 1059 l 519 1059 l 729 865 l 670 797 l 507 956 l 502 956 l 336 797 z "},"k":{"ha":781,"x_min":117,"x_max":747,"o":"m 117 0 l 117 1044 l 255 1044 l 255 429 l 313 429 l 259 397 l 555 721 l 728 721 l 372 339 l 372 416 l 747 0 l 574 0 l 258 356 l 313 322 l 255 322 l 255 0 l 117 0 z "},"ķ":{"ha":781,"x_min":117,"x_max":747,"o":"m 117 0 l 117 1044 l 255 1044 l 255 429 l 313 429 l 259 397 l 555 721 l 728 721 l 372 339 l 372 416 l 747 0 l 574 0 l 258 356 l 313 322 l 255 322 l 255 0 l 117 0 m 363 -384 l 328 -344 l 382 -291 q 410 -260 398 -275 q 428 -232 422 -245 q 433 -207 434 -219 l 455 -205 q 443 -230 452 -218 q 413 -242 434 -242 q 365 -221 388 -242 q 341 -168 341 -201 q 363 -114 341 -134 q 413 -94 386 -94 q 467 -116 445 -94 q 488 -179 488 -138 q 476 -241 488 -212 q 447 -290 463 -269 q 419 -322 431 -311 l 363 -384 z "},"ĸ":{"ha":781,"x_min":109,"x_max":751,"o":"m 109 0 l 109 722 l 248 722 l 248 417 l 307 417 l 251 387 l 557 722 l 729 722 l 365 328 l 365 405 l 751 0 l 578 0 l 250 345 l 307 310 l 248 310 l 248 0 l 109 0 z "},"l":{"ha":781,"x_min":222,"x_max":699,"o":"m 482 -11 q 346 21 404 -11 q 254 109 287 52 q 222 238 222 165 l 222 1044 l 360 1044 l 360 248 q 395 152 360 189 q 492 115 431 115 q 575 132 533 115 q 648 174 617 149 l 699 52 q 596 6 652 24 q 482 -11 539 -11 z "},"ĺ":{"ha":781,"x_min":222,"x_max":699,"o":"m 482 -11 q 346 21 404 -11 q 254 109 287 52 q 222 238 222 165 l 222 1044 l 360 1044 l 360 248 q 395 152 360 189 q 492 115 431 115 q 575 132 533 115 q 648 174 617 149 l 699 52 q 596 6 652 24 q 482 -11 539 -11 m 290 1118 l 227 1174 l 397 1415 l 492 1328 l 290 1118 z "},"ľ":{"ha":781,"x_min":222,"x_max":699,"o":"m 482 -11 q 346 21 404 -11 q 254 109 287 52 q 222 238 222 165 l 222 1044 l 360 1044 l 360 248 q 395 152 360 189 q 492 115 431 115 q 575 132 533 115 q 648 174 617 149 l 699 52 q 596 6 652 24 q 482 -11 539 -11 m 509 730 l 512 1044 l 623 1044 l 608 730 l 509 730 z "},"ļ":{"ha":781,"x_min":222,"x_max":699,"o":"m 482 -11 q 346 21 404 -11 q 254 109 287 52 q 222 238 222 165 l 222 1044 l 360 1044 l 360 248 q 395 152 360 189 q 492 115 431 115 q 575 132 533 115 q 648 174 617 149 l 699 52 q 596 6 652 24 q 482 -11 539 -11 m 405 -384 l 370 -344 l 425 -291 q 452 -260 440 -275 q 470 -232 465 -245 q 475 -207 476 -219 l 497 -205 q 485 -230 494 -218 q 455 -242 476 -242 q 407 -221 430 -242 q 383 -168 383 -201 q 406 -114 383 -134 q 455 -94 428 -94 q 509 -116 487 -94 q 530 -179 530 -138 q 518 -241 530 -212 q 489 -290 505 -269 q 461 -322 473 -311 l 405 -384 z "},"ŀ":{"ha":781,"x_min":222,"x_max":813,"o":"m 482 -11 q 346 21 404 -11 q 254 109 287 52 q 222 238 222 165 l 222 1044 l 360 1044 l 360 248 q 395 152 360 189 q 492 115 431 115 q 575 132 533 115 q 648 174 617 149 l 699 52 q 596 6 652 24 q 482 -11 539 -11 m 706 412 q 630 443 661 412 q 598 520 598 474 q 629 596 598 566 q 706 627 660 627 q 783 596 751 627 q 814 520 814 566 q 783 443 814 474 q 706 412 751 412 z "},"ḷ":{"ha":781,"x_min":222,"x_max":699,"o":"m 482 -11 q 346 21 404 -11 q 254 109 287 52 q 222 238 222 165 l 222 1044 l 360 1044 l 360 248 q 395 152 360 189 q 492 115 431 115 q 575 132 533 115 q 648 174 617 149 l 699 52 q 596 6 652 24 q 482 -11 539 -11 m 450 -283 q 380 -255 408 -283 q 352 -185 352 -227 q 380 -116 352 -144 q 450 -87 408 -87 q 519 -116 491 -87 q 547 -185 547 -144 q 519 -255 547 -227 q 450 -283 491 -283 z "},"ḹ":{"ha":781,"x_min":45,"x_max":699,"o":"m 482 -11 q 346 21 404 -11 q 254 109 287 52 q 222 238 222 165 l 222 1044 l 360 1044 l 360 248 q 395 152 360 189 q 492 115 431 115 q 575 132 533 115 q 648 174 617 149 l 699 52 q 596 6 652 24 q 482 -11 539 -11 m 450 -283 q 380 -255 408 -283 q 352 -185 352 -227 q 380 -116 352 -144 q 450 -87 408 -87 q 519 -116 491 -87 q 547 -185 547 -144 q 519 -255 547 -227 q 450 -283 491 -283 m 45 1193 l 45 1282 l 534 1282 l 534 1193 l 45 1193 z "},"ǉ":{"ha":781,"x_min":119,"x_max":726,"o":"m 494 -296 q 401 -279 450 -296 q 320 -237 353 -263 l 359 -132 q 421 -169 385 -154 q 487 -183 457 -183 q 556 -153 530 -183 q 582 -74 582 -122 l 582 721 l 691 721 l 691 -81 q 636 -236 691 -177 q 494 -296 582 -296 m 300 -11 q 168 50 216 -11 q 119 209 119 111 l 119 1044 l 229 1044 l 229 201 q 252 127 229 153 q 309 102 274 102 q 354 111 332 102 q 400 135 377 119 l 438 32 q 377 2 413 15 q 300 -11 340 -11 m 422 606 l 422 721 l 691 721 l 691 606 l 422 606 m 637 838 q 571 864 597 838 q 546 929 546 890 q 572 995 546 969 q 637 1021 598 1021 q 701 995 676 1021 q 726 929 726 969 q 702 864 726 890 q 637 838 677 838 z "},"ḻ":{"ha":781,"x_min":205,"x_max":699,"o":"m 482 -11 q 346 21 404 -11 q 254 109 287 52 q 222 238 222 165 l 222 1044 l 360 1044 l 360 248 q 395 152 360 189 q 492 115 431 115 q 575 132 533 115 q 648 174 617 149 l 699 52 q 596 6 652 24 q 482 -11 539 -11 m 205 -273 l 205 -184 l 694 -184 l 694 -273 l 205 -273 z "},"ł":{"ha":781,"x_min":87,"x_max":699,"o":"m 125 391 l 87 484 l 237 564 l 342 610 l 458 673 l 496 582 l 342 498 l 237 454 l 125 391 m 482 -11 q 346 21 404 -11 q 254 109 287 52 q 222 238 222 165 l 222 1044 l 360 1044 l 360 248 q 395 152 360 189 q 492 115 431 115 q 575 132 533 115 q 648 174 617 149 l 699 52 q 596 6 652 24 q 482 -11 539 -11 z "},"m":{"ha":781,"x_min":55,"x_max":728,"o":"m 55 0 l 55 721 l 173 721 l 173 635 l 189 635 l 162 602 q 216 696 180 660 q 304 732 252 732 q 388 701 351 732 q 434 616 424 670 l 410 643 l 444 643 l 418 616 q 476 699 432 667 q 574 732 519 732 q 643 717 614 732 q 690 675 671 703 q 719 612 709 648 q 728 533 728 576 l 728 0 l 601 0 l 601 526 q 582 589 601 567 q 529 611 563 611 q 473 590 497 611 q 450 526 450 568 l 450 0 l 332 0 l 332 526 q 312 590 332 568 q 259 611 292 611 q 204 589 228 611 q 181 524 181 567 l 181 0 l 55 0 z "}}}
